<svg width="259" height="85" viewBox="0 0 259 85" fill="none" xmlns="http://www.w3.org/2000/svg">
<path d="M0.369141 83.1116H14.2598L35.5879 28.3148C36.3171 26.5648 37.0827 24.596 37.8848 22.4085C38.6868 20.221 39.3249 18.6169 39.7988 17.596H39.9629C40.1087 18.6169 40.2728 20.221 40.4551 22.4085C40.6374 24.5596 40.8014 26.5101 40.9473 28.2601L44.9941 83.1116H59.6504L53.7441 3.48665H35.0957L0.369141 83.1116ZM14.2051 64.9554H51.1191L51.7754 56.2601H17.4863L14.2051 64.9554ZM67.1426 44.0648L74.9082 83.1116H89.7832L114.885 44.0648H102.635L89.1816 64.682C88.6712 65.3747 88.1243 66.3773 87.541 67.6898C86.9577 69.0023 86.4837 70.57 86.1191 72.3929H85.9004C85.7181 70.57 85.4629 69.0205 85.1348 67.7445C84.8431 66.432 84.5879 65.3929 84.3691 64.6273L80.8691 44.0648H67.1426ZM111.604 83.1116H126.479L135.283 44.0648H120.408L111.604 83.1116ZM123.143 23.9398C122.705 26.0544 122.997 27.859 124.018 29.3538C125.038 30.8486 126.807 31.596 129.322 31.596C131.838 31.596 133.934 30.8486 135.611 29.3538C137.288 27.859 138.346 26.0544 138.783 23.9398C139.221 21.7887 138.929 20.0023 137.908 18.5804C136.887 17.1585 135.119 16.4476 132.604 16.4476C130.051 16.4476 127.937 17.1768 126.26 18.6351C124.619 20.057 123.58 21.8252 123.143 23.9398ZM136.377 83.1116H151.143L165.197 0.806961H150.432L136.377 83.1116ZM162.572 66.596C161.296 72.2835 162.372 76.6403 165.799 79.6663C169.262 82.6924 174.804 84.2054 182.424 84.2054C188.877 84.2054 194.109 82.9294 198.119 80.3773C202.166 77.7887 205.156 74.1976 207.088 69.6038L194.564 67.6898C193.471 70.096 192.031 71.9372 190.244 73.2132C188.458 74.4528 186.544 75.0726 184.502 75.0726C181.294 75.0726 179.07 74.4163 177.83 73.1038C176.59 71.7913 176.281 69.7679 176.9 67.0335L178.213 58.1195C178.796 56.3695 179.981 54.8747 181.768 53.6351C183.554 52.3955 185.851 51.7757 188.658 51.7757C192.377 51.7757 194.583 52.3773 195.275 53.5804C195.968 54.7835 196.096 56.4059 195.658 58.4476L195.275 58.9945H170.885L170.119 65.2835H208.619L209.494 59.9788C210.843 54.5101 209.968 50.2627 206.869 47.2366C203.77 44.2106 198.538 42.6976 191.174 42.6976C183.992 42.6976 177.921 44.2471 172.963 47.346C168.041 50.4085 164.96 54.6559 163.721 60.0882L162.572 66.596ZM183.846 34.221L193.525 36.9554L209.439 21.096L198.502 17.8148L183.846 34.221ZM212.229 68.0726L211.955 69.9866C211.226 74.6169 212.393 78.1533 215.455 80.596C218.554 83.0023 223.512 84.2054 230.33 84.2054C237.221 84.2054 242.708 83.1116 246.791 80.9241C250.874 78.7002 253.372 75.0544 254.283 69.9866C255.049 66.5596 254.283 63.8981 251.986 62.0023C249.689 60.1064 245.533 58.8486 239.518 58.2288C236.054 58.0465 233.739 57.609 232.572 56.9163C231.406 56.2236 230.95 55.221 231.205 53.9085C231.533 52.3044 232.262 51.2288 233.393 50.682C234.523 50.1351 236.145 49.8616 238.26 49.8616C240.739 49.8616 242.635 50.4268 243.947 51.557C245.26 52.6507 245.734 54.4372 245.369 56.9163L245.041 58.721H257.182L257.619 56.3148C258.421 52.4137 257.346 49.1689 254.393 46.5804C251.476 43.9554 246.827 42.6429 240.447 42.6429C234.14 42.6429 229.054 43.6455 225.189 45.6507C221.325 47.6559 218.973 50.9007 218.135 55.3851C217.406 58.7757 217.843 61.5465 219.447 63.6976C221.088 65.8122 224.679 67.1794 230.221 67.7991C233.757 68.0544 236.291 68.583 237.822 69.3851C239.354 70.1507 239.955 71.3174 239.627 72.8851C239.299 74.6715 238.515 75.8929 237.275 76.5491C236.036 77.2054 234.122 77.5335 231.533 77.5335C228.872 77.5335 226.867 77.0049 225.518 75.9476C224.169 74.8538 223.695 72.958 224.096 70.2601L224.424 68.2366L212.229 68.0726Z" fill="#6E61FF"/>
</svg>
