<svg width="343" height="111" viewBox="0 0 343 111" fill="none" xmlns="http://www.w3.org/2000/svg">
<path d="M2.41406 57.7991C0.992188 65.346 1.84896 71.1064 4.98438 75.0804C8.15625 79.0544 13.5521 81.0413 21.1719 81.0413C28.974 81.0413 35.0443 78.7991 39.3828 74.3148C43.7578 69.7939 46.7109 63.1221 48.2422 54.2991L57.9219 0.377274H42.9375L32.7656 56.6507C32.0729 62.0465 30.9062 65.9111 29.2656 68.2445C27.6615 70.5778 25.4557 71.7445 22.6484 71.7445C19.6224 71.7445 17.5078 70.6689 16.3047 68.5179C15.138 66.3669 14.8464 63.3044 15.4297 59.3304L16.6328 52.6585H3.28906L2.41406 57.7991ZM54.8594 63.5413C53.6198 69.0101 54.8229 73.3122 58.4688 76.4476C62.1146 79.583 67.6198 81.1507 74.9844 81.1507C82.3125 81.1507 88.5286 79.583 93.6328 76.4476C98.7734 73.3122 101.964 69.0101 103.203 63.5413L104.406 56.9241C105.609 51.6012 104.388 47.3721 100.742 44.2366C97.0964 41.1012 91.5911 39.5335 84.2266 39.5335C76.9349 39.5335 70.7188 41.1012 65.5781 44.2366C60.4375 47.3721 57.2656 51.6012 56.0625 56.9241L54.8594 63.5413ZM70.7734 56.3226C71.3203 53.5153 72.5599 51.6012 74.4922 50.5804C76.4609 49.5231 78.9766 48.9945 82.0391 48.9945C85.1745 48.9945 87.3984 49.5231 88.7109 50.5804C90.0599 51.6012 90.4427 53.5153 89.8594 56.3226L88.4375 64.4163C87.8906 67.4788 86.6328 69.484 84.6641 70.432C82.7318 71.3799 80.2161 71.8538 77.1172 71.8538C74.0182 71.8538 71.8125 71.3799 70.5 70.432C69.1875 69.484 68.8047 67.4971 69.3516 64.471L70.7734 56.3226ZM106.867 68.6273C105.992 72.6012 106.63 75.609 108.781 77.6507C110.932 79.6559 114.396 80.6585 119.172 80.6585C123.219 80.6585 126.719 80.0023 129.672 78.6898C132.625 77.3408 134.794 75.9189 136.18 74.4241C136.107 75.4814 136.143 76.5023 136.289 77.4866C136.435 78.4346 136.672 79.2731 137 80.0023H151.328L151.438 79.2366C151 78.0335 150.763 76.6299 150.727 75.0257C150.727 73.3851 150.909 71.5804 151.273 69.6116L155.539 53.6429C156.596 48.6116 155.612 45.0387 152.586 42.9241C149.56 40.8096 144.674 39.7523 137.93 39.7523C131.112 39.7523 125.607 40.7366 121.414 42.7054C117.221 44.6741 114.742 47.4632 113.977 51.0726L113.539 54.1351L126.664 54.1898L127.102 51.1273C127.393 49.5231 128.25 48.4658 129.672 47.9554C131.13 47.4085 133.044 47.1351 135.414 47.1351C137.674 47.1351 139.26 47.5726 140.172 48.4476C141.12 49.3226 141.43 50.7445 141.102 52.7132L140.281 56.432H129.562C122.927 56.432 117.714 57.5257 113.922 59.7132C110.167 61.8643 107.815 64.8356 106.867 68.6273ZM121.469 67.807C121.943 65.6195 123.128 64.307 125.023 63.8695C126.956 63.432 129.435 63.2132 132.461 63.2132H138.914L137.711 66.057C137.346 68.0986 136.07 69.9033 133.883 71.471C131.732 73.0387 129.599 73.8226 127.484 73.8226C125.552 73.8226 123.948 73.4945 122.672 72.8382C121.432 72.1455 121.031 70.4684 121.469 67.807ZM160.406 63.6507C159.24 68.8278 159.714 73.0023 161.828 76.1741C163.979 79.3096 167.826 80.8773 173.367 80.8773C176.867 80.8773 180.039 80.2575 182.883 79.0179C185.763 77.7419 188.169 76.1012 190.102 74.096L189.938 73.9866L184.961 110.409H199.234L212.141 40.9554H197.812L196.938 46.5882H196.992C196.044 44.8018 194.422 43.2523 192.125 41.9398C189.865 40.5908 186.747 39.9163 182.773 39.9163C177.268 39.9163 172.656 41.4658 168.938 44.5648C165.255 47.6273 162.812 51.7471 161.609 56.9241L160.406 63.6507ZM174.953 63.8695L176.156 57.0335C176.74 54.6273 177.797 52.6768 179.328 51.182C180.896 49.6872 183.229 48.9398 186.328 48.9398C188.406 48.9398 190.211 49.4866 191.742 50.5804C193.31 51.6377 194.294 52.932 194.695 54.4632L191.469 66.221C190.63 67.6794 189.281 68.9919 187.422 70.1585C185.562 71.2887 183.576 71.8538 181.461 71.8538C178.398 71.8538 176.411 71.1429 175.5 69.721C174.589 68.2627 174.406 66.3122 174.953 63.8695ZM214.109 66.221C213.125 71.5075 213.763 75.3174 216.023 77.6507C218.32 79.984 221.693 81.1507 226.141 81.1507C230.078 81.1507 233.469 80.4215 236.312 78.9632C239.193 77.5049 241.453 75.6455 243.094 73.3851H243.039L241.891 80.0023H256.438L265.242 40.9007H250.695L244.789 65.2366C243.622 67.096 242.237 68.6455 240.633 69.8851C239.029 71.1247 237.26 71.7445 235.328 71.7445C233.031 71.7445 231.336 71.1611 230.242 69.9945C229.148 68.8278 228.839 66.7497 229.312 63.7601L234.945 40.9554H220.289L214.109 66.221ZM265.844 80.0023H280.664L289.469 40.9554H274.648L265.844 80.0023ZM274.977 31.1116L284.656 33.846L300.57 17.9866L289.633 14.7054L274.977 31.1116ZM289.523 80.0023H304.125L309.977 55.6663C311.107 53.8434 312.492 52.3486 314.133 51.182C315.81 50.0153 317.633 49.432 319.602 49.432C321.862 49.432 323.576 50.0882 324.742 51.4007C325.909 52.6768 326.273 54.7913 325.836 57.7445L320.203 80.0023H334.805L340.984 54.2991C341.969 49.2679 341.294 45.5856 338.961 43.2523C336.628 40.9189 333.328 39.7523 329.062 39.7523C325.161 39.7523 321.716 40.4814 318.727 41.9398C315.737 43.3616 313.422 45.2393 311.781 47.5726L312.875 40.9554H298.328L289.523 80.0023Z" fill="#6E61FF"/>
</svg>
