<svg width="149" height="147" viewBox="0 0 149 147" fill="none" xmlns="http://www.w3.org/2000/svg">
<path d="M76.0974 6.91795H74.3679L74.767 4.52328L79.2903 4.65631L78.8912 15.8315L75.6983 15.6984L76.0974 6.91795Z" fill="#333333"/>
<path d="M76.0974 0L79.5564 0.133038L79.4233 2.66075L75.9644 2.52771L76.0974 0Z" fill="#333333"/>
<path d="M51.0864 3.59204L54.4124 2.52774L55.0776 4.92242L51.7516 5.98672L51.0864 3.59204Z" fill="#333333"/>
<path d="M53.3481 10.1109L51.7516 10.643L51.3525 8.24835L55.7427 6.91798L59.0687 17.561L55.8758 18.4922L53.3481 10.1109Z" fill="#333333"/>
<path fill-rule="evenodd" clip-rule="evenodd" d="M39.7777 13.4368L37.25 14.6341L44.8331 29.1352L47.6269 27.6718L45.0992 22.6164C46.0305 22.7494 47.2278 22.4833 48.2921 21.9512C49.7555 21.286 50.6868 20.2217 51.0859 18.8913C51.485 17.561 51.2189 15.9645 50.2877 14.235C49.4895 12.3725 48.4252 11.3082 47.2278 10.9091C46.0305 10.51 44.7001 10.643 43.2367 11.4412C42.4385 11.8403 41.9063 12.2395 41.5072 12.6386C41.1081 13.0377 40.709 13.5698 40.4429 14.235L39.7777 13.4368ZM47.3609 15.5654C47.893 16.7627 48.026 17.561 47.893 18.3592C47.76 19.1574 47.2278 19.6896 46.2966 20.0887C45.8974 20.3547 45.4983 20.4878 45.0992 20.4878C44.8331 20.4878 44.301 20.4878 43.9019 20.3547L41.6402 15.8315C41.9063 14.9002 42.4385 14.235 43.3697 13.8359C44.301 13.4368 44.9662 13.3038 45.6314 13.5698C46.2966 13.8359 46.8287 14.5011 47.3609 15.5654Z" fill="#333333"/>
<path fill-rule="evenodd" clip-rule="evenodd" d="M26.3414 41.1086C24.4789 41.3747 22.4833 40.7095 20.6208 38.98C18.6253 37.2505 17.561 35.388 17.694 33.3924C17.694 31.3969 18.6253 29.4013 20.3547 27.4058C21.9512 25.5432 23.6807 24.612 25.2771 24.3459C27.0066 24.0798 28.6031 24.612 30.0665 25.9423C31.2638 27.0066 31.796 28.0709 31.929 29.1352C32.062 30.1995 31.6629 31.3969 30.5986 32.4612L30.0665 33.2594C30.0665 34.3237 29.6674 35.388 28.7361 36.4523C28.0709 37.1175 27.5388 37.5166 26.7405 37.6496C26.0754 37.7827 25.4102 37.5166 24.745 36.9845C23.4146 35.7871 23.4146 34.3237 25.0111 32.5942L26.7405 30.5987L26.3414 30.1995C25.9423 29.8004 25.4102 29.6674 25.0111 29.6674C24.6119 29.8004 24.0798 30.0665 23.5476 30.7317C22.8825 31.3969 22.4833 32.1951 22.0842 33.1264L21.0199 32.1951C21.153 31.796 21.419 31.2638 21.6851 30.8647C21.9512 30.4656 22.3503 29.9335 22.7494 29.4014C23.5476 28.4701 24.4789 27.9379 25.1441 27.8049C25.9423 27.6718 26.7405 28.0709 27.6718 28.8692L29.9334 30.8647C30.3326 30.4656 30.4656 29.9335 30.3326 29.4013C30.1995 28.8692 29.6674 28.204 28.8691 27.5388C26.4745 25.4102 24.2128 25.8093 21.8182 28.4701C20.4878 30.0665 19.6896 31.5299 19.8226 32.9933C19.8226 34.4567 20.6208 35.9202 22.2173 37.2505C25.0111 39.7782 27.8048 39.5122 30.4656 36.4523C31.6629 35.1219 32.4612 34.0576 32.8603 33.1264L34.1906 34.3237C33.6585 35.388 32.8603 36.4523 31.796 37.6496C30.0665 39.7782 28.337 40.8425 26.3414 41.1086ZM28.8691 33.9246C29.0022 33.5255 29.0022 33.1264 28.8691 32.5942L27.5388 31.5299L26.0754 33.1264C25.6762 33.6585 25.4102 34.0576 25.4102 34.4567C25.4102 34.8559 25.5432 35.1219 25.9423 35.521C26.3414 35.7871 26.6075 35.9202 27.0066 35.9202C27.4057 35.7871 27.6718 35.521 28.0709 35.1219C28.47 34.7228 28.7361 34.3237 28.8691 33.9246Z" fill="#333333"/>
<path fill-rule="evenodd" clip-rule="evenodd" d="M10.7762 58.1374C12.6388 58.8026 14.1022 58.8026 15.4325 58.1374C16.7629 57.4722 17.6942 56.1418 18.4924 54.4124C19.1576 52.8159 19.4237 51.4855 19.2906 50.2882L17.162 49.49C17.162 49.8891 17.162 50.4212 17.029 51.0864C17.0074 51.1728 16.9858 51.2626 16.9637 51.3549C16.8493 51.831 16.7197 52.3701 16.4968 52.8159C16.0977 54.0132 15.5656 54.8115 15.0334 55.3436C14.5013 55.8758 13.7031 56.0088 12.9048 55.8758L15.6986 48.1596L13.8361 47.4944C12.3727 46.9623 11.1753 47.0953 9.978 47.6274C8.78066 48.1596 7.8494 49.2239 7.31725 50.8203C6.65206 52.5498 6.65206 54.1463 7.31725 55.3436C7.8494 56.541 9.04674 57.4722 10.7762 58.1374ZM12.3727 49.8891L12.9048 50.1552L11.1753 55.0775C10.2441 54.6784 9.71193 54.2793 9.44585 53.7472C9.17978 53.215 9.17978 52.4168 9.57889 51.4855C10.111 49.8891 11.0423 49.3569 12.3727 49.8891Z" fill="#333333"/>
<path d="M14.2345 65.8536C13.4362 66.3857 12.505 66.5188 11.3076 66.2527L6.2522 65.3214L5.98613 66.9179L3.59145 66.5188L3.85753 64.9223L1.46285 64.5232L1.19678 61.1973L4.52272 61.8625L5.05487 59.0687L7.44954 59.7339L6.91739 62.2616L11.8398 63.1928C12.3719 63.3259 12.9041 63.1928 13.1702 63.0598C13.4362 62.9268 13.7023 62.3946 13.7023 61.8625C13.8353 61.4634 13.8353 60.9312 13.7023 60.5321L15.8309 60.9312C15.9639 61.7294 15.9639 62.5277 15.8309 63.4589C15.5648 64.5232 15.0327 65.4545 14.2345 65.8536Z" fill="#333333"/>
<path d="M5.58758 73.5697L10.776 73.8358C11.9734 73.8358 12.9046 73.5698 13.5698 73.0376C14.235 72.5055 14.6341 71.5742 14.6341 70.3769C14.6341 69.4456 14.6341 68.5143 14.3681 67.8491L12.2395 67.7161C12.3725 68.1152 12.3725 68.6474 12.3725 69.0465C12.3725 69.7117 12.2395 70.1108 11.9734 70.3769C11.7073 70.6429 11.1752 70.776 10.643 70.776L5.72061 70.5099L5.85365 67.8491L3.45898 67.45L3.32594 70.2438L0 69.9777L0.798225 73.1706L3.1929 73.4367L3.05986 75.0332L5.45454 75.1662L5.58758 73.5697Z" fill="#333333"/>
<path fill-rule="evenodd" clip-rule="evenodd" d="M9.57905 88.0709C7.71653 88.2039 6.25312 87.9378 5.18882 87.0066C4.12452 86.0753 3.45933 84.6119 3.19325 82.6163C3.06022 80.6208 3.32629 79.0243 4.25755 77.96C5.18882 76.8957 6.51919 76.2305 8.38172 76.0975C12.2398 75.6984 14.3684 77.5609 14.7675 81.552C15.1666 85.5432 13.4371 87.6718 9.57905 88.0709ZM11.1755 79.5565C10.6434 79.1574 9.84513 79.0243 8.78083 79.1574C7.71653 79.2904 6.9183 79.5565 6.51919 80.0886C6.12008 80.6208 5.98704 81.286 5.98704 82.3503C6.12008 83.4146 6.38615 84.0798 6.9183 84.4789C7.45045 84.878 8.24868 85.011 9.31298 84.878C10.3773 84.7449 11.1755 84.4789 11.5746 83.9467C11.9737 83.4146 12.1068 82.7494 12.1068 81.6851C11.9737 80.7538 11.7077 79.9556 11.1755 79.5565Z" fill="#333333"/>
<path fill-rule="evenodd" clip-rule="evenodd" d="M7.58337 100.31L8.38159 102.971L23.8139 97.9156L22.8827 94.8558L17.4281 96.5853C17.6942 95.521 17.6942 94.4566 17.2951 93.2593C16.763 91.6629 15.8317 90.5986 14.6344 90.0664C13.437 89.5343 11.8406 89.5343 9.97804 90.1995C8.11552 90.7316 6.78514 91.6629 6.25299 92.7272C5.58781 93.7915 5.58781 95.1218 6.11996 96.7183C6.38603 97.5165 6.65211 98.0487 7.05122 98.5808C7.45033 98.9799 7.98248 99.379 8.51463 99.7782L7.58337 100.31ZM10.9093 93.2593C12.1066 92.8602 13.0379 92.8602 13.7031 93.1263C14.5013 93.3923 15.0335 93.9245 15.1665 94.8558C15.4326 95.3879 15.4326 95.787 15.4326 96.1861C15.4326 96.5853 15.2995 96.9844 15.1665 97.3835L10.2441 98.9799C9.44589 98.5808 8.78071 97.9156 8.51463 96.9844C8.24856 96.0531 8.24856 95.2549 8.64767 94.7227C9.04678 94.0575 9.71197 93.6584 10.9093 93.2593Z" fill="#333333"/>
<path d="M7.71608 111.618L6.11963 108.559L8.38127 107.361L9.97772 110.421L7.71608 111.618Z" fill="#333333"/>
<path d="M13.7028 108.16L14.501 109.623L12.2394 110.421L10.1108 106.43L19.9555 101.242L21.4189 104.035L13.7028 108.16Z" fill="#333333"/>
<path fill-rule="evenodd" clip-rule="evenodd" d="M19.4233 120.931L21.1528 123.06L34.1905 113.348L32.1949 110.82L27.6716 114.279C27.5386 113.215 27.1395 112.284 26.3412 111.219C25.2769 109.756 24.0796 109.091 22.7492 108.958C21.4188 108.825 19.9554 109.357 18.359 110.554C16.7625 111.752 15.8313 112.949 15.6982 114.146C15.4322 115.344 15.8313 116.674 16.8956 118.004C17.2947 118.669 17.8268 119.069 18.359 119.468C18.8911 119.734 19.4233 120 20.0885 120.133L19.4233 120.931ZM20.2215 113.082C21.2858 112.417 22.084 112.018 22.8823 112.018C23.6805 112.018 24.3457 112.417 24.8778 113.215C25.2769 113.614 25.41 114.013 25.543 114.412C25.676 114.678 25.676 115.211 25.676 115.61L21.5519 118.669C20.6206 118.536 19.8224 118.137 19.2902 117.339C18.7581 116.541 18.492 115.876 18.6251 115.211C18.7581 114.545 19.2902 113.747 20.2215 113.082Z" fill="#333333"/>
<path d="M23.4149 131.574L20.8872 129.179L22.6167 127.317L25.1444 129.712L23.4149 131.574Z" fill="#333333"/>
<path d="M27.9382 126.253L29.1355 127.45L27.273 128.913L23.9471 125.854L31.5302 117.738L33.7918 119.867L27.9382 126.253Z" fill="#333333"/>
<path fill-rule="evenodd" clip-rule="evenodd" d="M37.5164 136.497L39.7781 137.96L48.9577 124.656L46.2969 122.927L43.104 127.716C42.5719 126.652 41.9067 125.854 40.8424 125.188C39.379 124.257 38.0486 123.991 36.7182 124.257C35.3878 124.523 34.1905 125.587 33.1262 127.184C32.0619 128.78 31.5298 130.244 31.7958 131.441C31.9289 132.638 32.7271 133.703 34.1905 134.634C34.8557 135.033 35.3878 135.299 36.053 135.432C36.5852 135.565 37.2504 135.698 37.9156 135.565L37.5164 136.497ZM35.6539 128.78C36.3191 127.716 37.1173 127.184 37.7825 126.918C38.5807 126.652 39.2459 126.785 40.0442 127.317C40.3169 127.499 40.5275 127.743 40.7184 127.964L40.7192 127.965C40.8074 128.067 40.8914 128.164 40.9754 128.248C41.0419 128.448 41.1417 128.647 41.2415 128.847C41.3413 129.046 41.4411 129.246 41.5076 129.446L38.7138 133.703C37.7825 133.836 36.8513 133.703 36.053 133.171C35.2548 132.638 34.8557 131.973 34.7227 131.308C34.7227 130.643 34.9887 129.712 35.6539 128.78Z" fill="#333333"/>
<path fill-rule="evenodd" clip-rule="evenodd" d="M69.3123 140.089C69.8445 137.561 69.4454 135.565 68.248 134.102C67.0507 132.638 65.1882 131.707 62.3944 130.909C60.931 130.643 59.6006 130.51 58.4033 130.51L58.0042 132.372C59.0685 132.239 60.3988 132.372 62.1283 132.771C66.1194 133.57 67.7159 135.831 66.9177 139.556C66.3855 141.685 65.5873 143.015 64.39 143.814C63.1926 144.612 61.4631 144.745 59.4676 144.346C55.8756 143.548 54.4121 141.685 55.0773 138.625C55.3434 137.694 55.6095 136.896 56.0086 136.497C56.4077 136.097 56.8068 135.964 57.472 136.097L56.9398 139.024C56.8068 140.222 56.9398 141.02 57.339 141.685C57.7381 142.35 58.6693 142.749 59.8667 143.015C60.5319 143.148 61.1971 143.281 61.7292 143.281C62.3944 143.281 62.9265 143.281 63.3257 143.148L63.5917 141.818C62.6605 141.951 61.7292 141.818 60.7979 141.685C59.8667 141.552 59.3345 141.286 59.0685 141.02C58.8024 140.754 58.6693 140.355 58.8024 139.689L58.9354 139.157L61.5962 139.689C63.8578 140.089 65.1882 139.423 65.5873 137.694C65.8534 136.763 65.7203 136.097 65.1882 135.565C64.7891 135.033 64.1239 134.634 63.1926 134.501C61.8622 134.235 60.6649 134.368 59.7336 134.9L58.6693 134.634C57.2059 134.368 56.0086 134.501 55.0773 135.166C54.1461 135.698 53.4809 136.896 53.2148 138.359C52.8157 140.355 53.2148 142.084 54.2791 143.414C55.3434 144.745 57.0729 145.676 59.4676 146.208C62.1283 146.74 64.2569 146.474 65.9864 145.543C67.7159 144.479 68.7802 142.749 69.3123 140.089ZM59.6006 136.23C59.9997 135.964 60.3988 135.831 60.7979 135.698C61.1971 135.565 61.5962 135.565 61.9953 135.698C62.5274 135.831 62.9265 135.964 63.1926 136.23C63.4587 136.497 63.5917 136.896 63.4587 137.295C63.3257 137.694 63.0596 138.093 62.7935 138.226C62.5274 138.359 61.9953 138.359 61.3301 138.226L59.2015 137.827L59.6006 136.23Z" fill="#333333"/>
<path fill-rule="evenodd" clip-rule="evenodd" d="M62.2616 5.45455L59.4678 5.85367L61.4633 22.0842L64.6562 21.6851L63.991 16.0976C64.9223 16.4967 66.1196 16.6297 67.317 16.4967C69.0465 16.2306 70.2438 15.5654 71.042 14.5011C71.8403 13.3038 72.1063 11.8404 71.8403 9.84479C71.5742 7.84923 70.909 6.51885 69.9777 5.72063C68.9134 4.9224 67.7161 4.52329 65.9866 4.78937C65.1884 4.78937 64.5232 5.05544 63.991 5.32152C63.4589 5.58759 62.9267 5.9867 62.5276 6.51885L62.2616 5.45455ZM68.6474 10.1109C68.7804 11.3082 68.6474 12.2395 68.2482 12.9047C67.8491 13.5698 67.0509 13.969 66.2527 13.969C65.7205 14.102 65.3214 14.102 64.9223 13.969C64.5232 13.8359 64.1241 13.7029 63.725 13.4368L63.0598 8.38138C63.725 7.58315 64.3902 7.18404 65.4545 7.051C66.5188 6.91797 67.184 7.18404 67.7161 7.58315C68.1152 8.1153 68.5143 8.91353 68.6474 10.1109Z" fill="#333333"/>
<path fill-rule="evenodd" clip-rule="evenodd" d="M85.9425 5.45454L83.2817 4.92239L79.9558 20.8869L83.0157 21.5521L84.213 15.9645C84.8782 16.6297 85.9425 17.1618 87.1398 17.4279C88.7363 17.827 90.1997 17.561 91.264 16.7627C92.3283 15.9645 93.1265 14.6341 93.5257 12.6386C93.9248 10.643 93.7917 9.17959 93.1265 8.11529C92.4613 7.05099 91.264 6.38581 89.6676 5.98669C89.0024 5.85366 88.3372 5.72062 87.672 5.85366C87.1398 5.98669 86.4746 6.25277 85.9425 6.51884V5.45454ZM90.3327 11.9734C90.1997 13.1707 89.6676 13.9689 89.1354 14.5011C88.6033 14.9002 87.805 15.0332 86.7407 15.0332C86.676 15.0117 86.6077 14.9901 86.5376 14.9679C86.1759 14.8535 85.7663 14.724 85.5434 14.5011C85.2773 14.3681 84.8782 14.102 84.6121 13.7029L85.6764 8.64744C86.4747 8.11529 87.4059 7.98226 88.3372 8.11529C89.2684 8.24833 89.8006 8.64744 90.1997 9.31263C90.5988 9.97782 90.5988 10.776 90.3327 11.9734Z" fill="#333333"/>
<path fill-rule="evenodd" clip-rule="evenodd" d="M95.5214 13.4368C96.3196 11.7073 97.3839 10.643 98.7143 10.1109C100.045 9.57872 101.641 9.8448 103.504 10.643C105.366 11.4412 106.563 12.5055 107.096 13.8359C107.628 15.1663 107.495 16.6297 106.697 18.3592C105.1 21.9512 102.439 22.8825 98.7143 21.153C94.9892 19.5565 93.9249 16.8958 95.5214 13.4368ZM102.173 19.0244C102.705 18.7583 103.238 18.0931 103.77 17.1619C104.302 16.0976 104.435 15.2993 104.169 14.7672C104.036 14.102 103.371 13.7029 102.439 13.1707C101.508 12.7716 100.71 12.6386 100.178 12.9047C99.6455 13.1707 99.1134 13.8359 98.5812 14.7672C98.0491 15.8315 97.9161 16.6297 98.1821 17.1619C98.3152 17.827 98.9804 18.2262 99.9116 18.7583C100.71 19.1574 101.508 19.2905 102.173 19.0244Z" fill="#333333"/>
<path d="M107.361 21.5521C106.696 22.4833 106.43 23.4146 106.563 24.3459C106.829 25.2771 107.361 26.0754 108.691 27.0066C109.49 27.5388 110.155 27.9379 110.953 28.0709L112.15 26.2084C111.618 26.0754 111.219 25.9423 110.82 25.6762C110.288 25.2771 110.022 25.0111 109.889 24.6119C109.889 24.2128 110.022 23.8137 110.288 23.2816L113.082 19.1574L115.21 20.6208L116.674 18.6253L114.279 17.0288L116.142 14.235L112.949 13.3038L111.618 15.2993L110.288 14.3681L108.957 16.3636L110.288 17.2949L107.361 21.5521Z" fill="#333333"/>
<path d="M112.417 28.47C112.417 27.5388 112.683 26.6075 113.481 25.8093L116.807 21.8182L115.742 20.8869L117.339 19.0244L118.536 20.0887L120.133 18.2262L123.193 19.5565L121.064 22.0842L123.193 23.9468L121.463 25.6763L119.334 23.9468L116.142 27.6718C115.742 28.0709 115.609 28.47 115.609 28.8692C115.609 29.2683 115.875 29.6674 116.408 30.0665C116.499 30.1271 116.583 30.1878 116.664 30.2468C116.942 30.4469 117.194 30.629 117.605 30.7317L116.142 32.4612C115.476 32.1951 114.678 31.796 114.013 31.1308C112.949 30.3326 112.55 29.4013 112.417 28.47Z" fill="#333333"/>
<path fill-rule="evenodd" clip-rule="evenodd" d="M120.798 29.2683C119.335 30.5986 118.537 31.929 118.537 33.3924C118.537 34.8558 119.202 36.4523 120.266 37.9157C121.33 39.2461 122.395 40.0443 123.459 40.5765L125.188 39.113C124.789 38.847 124.39 38.5809 123.858 38.1818C123.497 37.9111 123.198 37.5792 122.918 37.2692C122.785 37.1221 122.656 36.9798 122.528 36.8514C121.73 35.9201 121.197 34.9889 121.064 34.3237C120.931 33.5255 121.197 32.8603 121.73 32.1951L126.918 38.4479L128.514 37.1175C129.712 36.1862 130.244 35.1219 130.377 33.7915C130.51 32.4612 129.978 31.2638 128.914 29.9335C127.716 28.47 126.519 27.8048 125.055 27.6718C123.592 27.5388 122.129 28.0709 120.798 29.2683ZM127.317 34.7228L126.785 35.1219L123.459 30.9977C124.257 30.4656 124.922 30.1995 125.455 30.1995C125.987 30.3326 126.652 30.7317 127.317 31.5299C128.381 32.7272 128.381 33.7915 127.317 34.7228Z" fill="#333333"/>
<path fill-rule="evenodd" clip-rule="evenodd" d="M127.849 51.3525C128.514 49.623 130.111 48.2926 132.505 47.4944C135.033 46.6962 137.162 46.6962 138.891 47.7605C140.621 48.8248 141.951 50.5543 142.749 53.082C143.548 55.3436 143.547 57.3392 143.015 58.9356C142.35 60.5321 141.153 61.7294 139.157 62.2616C137.694 62.7937 136.497 62.7937 135.432 62.2616C134.368 61.8625 133.703 60.7982 133.171 59.4678L132.904 58.5365C131.973 58.0044 131.308 57.0731 130.776 55.7427C130.51 54.9445 130.51 54.1463 130.643 53.4811C130.909 52.8159 131.441 52.2838 132.239 52.0177C133.969 51.4855 135.166 52.2838 135.964 54.4124L136.763 56.9401L137.295 56.807C137.827 56.674 138.226 56.2749 138.359 56.0088C138.492 55.7427 138.492 55.0776 138.093 54.1463C137.827 53.215 137.295 52.4168 136.763 51.6186L138.093 51.2195C138.359 51.4855 138.625 52.0177 138.891 52.5498C139.157 53.082 139.423 53.6141 139.556 54.2793C139.955 55.4767 139.955 56.4079 139.689 57.2062C139.423 57.8713 138.625 58.4035 137.561 58.8026L134.767 59.7339C134.9 60.266 135.299 60.6651 135.831 60.7982C136.363 60.9312 137.162 60.7982 138.226 60.5321C141.153 59.6008 142.084 57.3392 140.887 53.8802C140.222 51.8847 139.29 50.5543 137.96 49.8891C136.63 49.2239 135.033 49.2239 133.038 49.8891C129.446 51.0864 128.248 53.6141 129.579 57.4722C130.111 59.0687 130.643 60.3991 131.308 61.1973L129.579 61.7294C128.913 60.6651 128.381 59.4678 127.849 58.0044C127.317 55.3436 127.184 53.215 127.849 51.3525ZM132.904 57.0731C133.171 57.3392 133.57 57.6053 133.969 57.7383L135.565 57.2062L134.9 55.0776C134.634 54.4124 134.368 54.0133 134.102 53.8802C133.836 53.7472 133.437 53.6141 132.904 53.8802C132.505 54.0133 132.239 54.2793 132.106 54.6784C131.988 55.0321 132.079 55.3857 132.194 55.8319L132.222 55.9407L132.239 56.0088C132.372 56.4079 132.638 56.807 132.904 57.0731Z" fill="#333333"/>
<path fill-rule="evenodd" clip-rule="evenodd" d="M145.276 76.8957L145.41 74.1019L129.179 73.1707L129.046 76.3636L134.633 76.7627C133.968 77.6939 133.702 78.7582 133.569 79.9556C133.569 81.6851 133.968 83.0154 134.9 83.9467C135.831 84.878 137.294 85.4101 139.29 85.5432C141.285 85.6762 142.749 85.2771 143.68 84.4789C144.611 83.6806 145.143 82.4833 145.276 80.7538C145.276 80.0886 145.143 79.2904 145.01 78.7582C144.877 78.0931 144.611 77.5609 144.212 77.0288L145.276 76.8957ZM139.423 82.3503C138.225 82.2172 137.294 81.9511 136.762 81.419C136.23 80.8868 135.964 80.0886 136.097 79.2904C136.097 78.7582 136.23 78.3591 136.363 77.96C136.456 77.68 136.615 77.4655 136.793 77.2245C136.869 77.1221 136.949 77.0148 137.028 76.8957L142.084 77.1618C142.749 77.827 143.015 78.7582 143.015 79.6895C142.882 80.7538 142.616 81.419 142.084 81.8181C141.418 82.2172 140.62 82.4833 139.423 82.3503Z" fill="#333333"/>
<path d="M141.286 90.1995L141.685 88.603L143.946 89.4012L142.882 93.7915L131.973 91.2638L132.638 88.2039L141.286 90.1995Z" fill="#333333"/>
<path d="M148.07 91.5298L147.272 94.8558L144.878 94.3236L145.676 90.9977L148.07 91.5298Z" fill="#333333"/>
<path fill-rule="evenodd" clip-rule="evenodd" d="M140.886 100.177L141.951 97.6495L126.651 91.5298L125.454 94.4566L130.776 96.5852C129.977 97.2504 129.312 98.0487 128.78 99.246C128.115 100.709 128.115 102.173 128.647 103.37C129.179 104.701 130.376 105.632 132.239 106.43C134.102 107.095 135.565 107.228 136.762 106.829C137.96 106.297 138.891 105.366 139.556 103.769C139.955 103.104 140.088 102.439 140.088 101.774C140.088 101.206 139.991 100.734 139.88 100.195C139.861 100.102 139.842 100.008 139.822 99.9112L140.886 100.177ZM133.702 103.37C132.505 102.838 131.84 102.306 131.441 101.641C131.042 100.975 131.042 100.177 131.574 99.379C131.707 98.9799 131.973 98.5808 132.239 98.3147C132.505 98.0487 132.904 97.7826 133.303 97.5165L137.96 99.5121C138.359 100.31 138.359 101.242 137.96 102.173C137.561 102.971 137.028 103.503 136.363 103.769C135.698 103.902 134.767 103.769 133.702 103.37Z" fill="#333333"/>
<path d="M132.638 111.485L133.57 110.022L135.432 111.485L133.037 115.344L123.592 109.357L125.321 106.696L132.638 111.485Z" fill="#333333"/>
<path d="M138.625 114.944L136.763 117.871L134.634 116.541L136.496 113.614L138.625 114.944Z" fill="#333333"/>
<path fill-rule="evenodd" clip-rule="evenodd" d="M128.913 120.798L130.776 118.803L118.536 107.893L116.408 110.288L120.665 114.146C119.6 114.412 118.669 115.077 117.871 116.009C116.807 117.206 116.275 118.536 116.408 119.867C116.541 121.197 117.339 122.528 118.802 123.858C120.266 125.055 121.729 125.72 122.926 125.72C124.257 125.72 125.454 125.055 126.518 123.858C126.918 123.326 127.317 122.661 127.583 122.128C127.849 121.596 127.982 120.931 127.982 120.266L128.913 120.798ZM121.197 121.463C120.266 120.665 119.733 119.867 119.6 119.069C119.467 118.27 119.733 117.605 120.399 116.807C120.798 116.408 121.064 116.142 121.463 116.009L122.66 115.61L126.518 119.069C126.518 120 126.252 120.931 125.587 121.596C124.922 122.395 124.257 122.661 123.592 122.661C122.926 122.661 122.128 122.262 121.197 121.463Z" fill="#333333"/>
<path fill-rule="evenodd" clip-rule="evenodd" d="M117.339 125.188C118.403 126.652 118.935 128.115 118.669 129.579C118.403 130.909 117.472 132.239 115.876 133.437C114.279 134.634 112.683 135.166 111.352 134.9C109.889 134.634 108.692 133.836 107.627 132.239C105.366 129.046 105.898 126.386 109.224 123.991C112.284 121.596 115.077 121.995 117.339 125.188ZM109.224 127.982C109.091 128.647 109.49 129.446 110.155 130.377C110.82 131.308 111.485 131.84 112.018 131.973C112.683 132.106 113.348 131.84 114.279 131.308C115.077 130.776 115.61 130.111 115.61 129.446C115.743 128.78 115.343 127.982 114.678 127.051C114.013 126.12 113.348 125.587 112.816 125.454C112.151 125.321 111.485 125.587 110.687 126.12C109.756 126.785 109.224 127.45 109.224 127.982Z" fill="#333333"/>
<path d="M104.435 131.441C103.902 130.377 103.104 129.579 102.306 129.312C101.508 128.913 100.443 129.046 99.3791 129.579C98.5809 129.978 97.9157 130.51 97.3835 131.042L98.3148 133.038C98.5809 132.771 98.98 132.372 99.3791 132.239C99.9113 131.973 100.31 131.84 100.709 131.973C101.109 132.106 101.375 132.372 101.641 132.905L103.902 137.295L101.508 138.492L102.439 140.754L104.967 139.556L106.43 142.616L108.825 140.355L107.76 138.226L109.224 137.561L108.16 135.432L106.696 136.097L104.435 131.441Z" fill="#333333"/>
<path d="M95.7864 132.239C96.5846 132.638 97.2498 133.437 97.6489 134.501L99.3784 139.423L100.842 138.891L101.64 141.153L100.177 141.685L100.975 143.947L98.3141 145.942L97.2498 142.749L94.5891 143.681L93.9239 141.286L96.4516 140.355L94.8551 135.698C94.7221 135.166 94.323 134.767 94.0569 134.634C93.6578 134.501 93.2587 134.501 92.7265 134.767C92.3274 134.9 91.9283 135.166 91.5292 135.432L90.864 133.304C91.3962 132.771 92.1944 132.372 93.1256 132.106C93.9239 131.84 94.9882 131.84 95.7864 132.239Z" fill="#333333"/>
<path fill-rule="evenodd" clip-rule="evenodd" d="M90.8649 139.157C90.4658 137.295 89.6675 135.964 88.4702 135.166C87.2729 134.368 85.5434 134.102 83.6808 134.501C82.0844 134.767 80.754 135.166 79.8228 135.831L80.2219 138.093C80.4544 137.938 80.7321 137.828 81.0286 137.711C81.241 137.627 81.4632 137.539 81.6853 137.428C82.1311 137.205 82.6703 137.075 83.1464 136.961C83.2386 136.939 83.3284 136.917 83.4148 136.896C84.7451 136.63 85.6764 136.63 86.3416 136.896C87.0068 137.162 87.5389 137.694 87.805 138.492L79.8228 139.822L80.2219 141.818C80.4879 143.281 81.1531 144.479 82.2174 145.144C83.2817 145.942 84.6121 146.075 86.3416 145.809C88.0711 145.41 89.4015 144.745 90.1997 143.548C90.9979 142.483 91.131 140.887 90.8649 139.157ZM83.0157 141.951L82.8826 141.286L88.0711 140.488C88.2041 141.419 88.2041 142.084 87.805 142.616C87.5389 143.015 86.8737 143.414 85.8094 143.548C84.213 143.814 83.2817 143.281 83.0157 141.951Z" fill="#333333"/>
</svg>
