<svg width="416" height="55" viewBox="0 0 416 55" fill="none" xmlns="http://www.w3.org/2000/svg">
<path d="M0 5C0 2.23858 2.23858 0 5 0H411C413.761 0 416 2.23858 416 5H0Z" fill="#6E61FF"/>
<rect width="416" height="50" transform="translate(0 5)" fill="white"/>
<path d="M39.4608 33H39.0209L38.7236 33.3243L34.9608 37.4292V22.4142L45.5465 33H39.4608Z" stroke="#6E61FF" stroke-width="2"/>
<path d="M85.9608 20V40L91.4608 34H99.9608L85.9608 20Z" fill="#6E61FF"/>
<path d="M140.078 38.6083C139.776 38.7291 139.525 38.3499 139.754 38.1187L146.167 31.6411C146.259 31.6691 146.357 31.6841 146.458 31.6841C147.011 31.6841 147.458 31.2364 147.458 30.6841C147.458 30.1318 147.011 29.6841 146.458 29.6841C145.906 29.6841 145.458 30.1318 145.458 30.6841C145.458 30.7618 145.467 30.8375 145.484 30.9101L138.987 37.3495C138.756 37.5787 138.377 37.3272 138.498 37.025L142.625 26.707L146.9 23.9863C146.9 23.9863 148.807 25.8937 150.03 27.1159C151.236 28.3223 153.119 30.205 153.119 30.205L150.398 34.4803L140.078 38.6083Z" fill="#6E61FF"/>
<path d="M149.58 20.8557L156.458 27.5628L153.63 29.6841L147.416 23.4703L149.58 20.8557Z" fill="#6E61FF"/>
<path d="M200.576 38.6083C200.274 38.7291 200.022 38.3499 200.251 38.1187L206.665 31.6411C206.757 31.6691 206.855 31.6841 206.956 31.6841C207.508 31.6841 207.956 31.2364 207.956 30.6841C207.956 30.1318 207.508 29.6841 206.956 29.6841C206.404 29.6841 205.956 30.1318 205.956 30.6841C205.956 30.7618 205.965 30.8375 205.982 30.9101L199.485 37.3495C199.254 37.5787 198.874 37.3272 198.995 37.025L203.122 26.707L207.398 23.9863C207.398 23.9863 209.305 25.8937 210.527 27.1159C211.734 28.3223 213.616 30.205 213.616 30.205L210.896 34.4803L200.576 38.6083Z" fill="#6E61FF"/>
<path d="M210.077 20.8557L216.956 27.5628L214.128 29.6841L207.914 23.4703L210.077 20.8557Z" fill="#6E61FF"/>
<path d="M194.458 21.1841C194.458 21.1841 197.958 22.6841 197.958 25.6841C197.958 29.7095 194.116 31.2477 194.958 35.1841C195.435 37.4108 197.958 38.1841 197.958 38.1841" stroke="#6E61FF"/>
<path d="M254.956 25.75V22.75H261.956M268.956 25.75V22.75H261.956M261.956 22.75V37.25M261.956 37.25H258.456M261.956 37.25H265.456" stroke="#6E61FF" stroke-width="2"/>
<path d="M314.956 37.9677C319.374 37.9677 322.956 34.3859 322.956 29.9677C322.956 25.5494 319.374 21.9677 314.956 21.9677C310.538 21.9677 306.956 25.5494 306.956 29.9677C306.956 31.4464 307.357 32.8313 308.057 34.0197L306.981 38.0323L311.039 36.945C312.197 37.5962 313.533 37.9677 314.956 37.9677Z" stroke="#6E61FF" stroke-width="2"/>
<rect x="368.831" y="27.3333" width="12.2083" height="12.6667" stroke="#6E61FF" stroke-width="2"/>
<rect x="361.956" y="20" width="12.2083" height="12.6667" stroke="#6E61FF" stroke-width="2"/>
</svg>
