<svg width="27" height="27" viewBox="0 0 27 27" fill="none" xmlns="http://www.w3.org/2000/svg">
<path d="M9.67329 22.5476C9.61198 22.5516 9.55156 22.5548 9.49201 22.5573C9.38394 22.5618 9.27875 22.5639 9.17637 22.5635C9.33517 22.5641 9.50071 22.5589 9.67329 22.5476Z" fill="#6E61FF"/>
<path d="M17.5021 17.9314C17.5021 17.9314 17.5021 17.9314 17.5021 17.9314V17.9314Z" fill="#6E61FF"/>
<path d="M9.92452 17.9625C9.68741 17.9087 9.43741 17.842 9.18085 17.7583C9.37423 17.8214 9.56388 17.8748 9.74709 17.9203C9.80695 17.9352 9.86613 17.9492 9.92452 17.9625Z" fill="#6E61FF"/>
<path d="M19.4129 5.85738C19.4129 5.85738 19.4129 5.85737 19.4129 5.85738C19.4128 5.85707 19.4127 5.85674 19.4127 5.85643L19.4129 5.85738Z" fill="#6E61FF"/>
<path d="M9.861 22.8799L9.85697 22.6341C9.85651 22.6059 9.85564 22.5752 9.85476 22.5443L9.84935 22.3541L9.66138 22.3665C8.31416 22.4551 7.42712 22.155 6.84073 21.738C6.2526 21.3198 5.94847 20.7707 5.79184 20.3306L5.78725 20.319C5.57798 19.8386 5.28087 19.4014 4.91119 19.0299L4.89205 19.0107L4.86812 18.9979C4.72673 18.9223 4.48518 18.7743 4.28165 18.5624C4.07805 18.3504 3.92665 18.0899 3.92811 17.7844C3.92898 17.5925 4.00585 17.4087 4.14189 17.2733C4.27793 17.1379 4.46207 17.0619 4.65399 17.062H4.65806C4.80472 17.0627 4.94772 17.1078 5.06824 17.1914C5.18885 17.2751 5.28127 17.3934 5.33331 17.5306L5.35125 17.578L5.39112 17.6092C5.44273 17.6496 5.49738 17.6859 5.55458 17.7179C6.26571 18.2632 6.81721 18.9897 7.15123 19.8213C7.38111 20.4626 7.92719 20.761 8.53574 20.872C9.14126 20.9824 9.83878 20.9152 10.4402 20.8048C10.5449 20.7855 10.6527 20.7895 10.7557 20.8165C10.8587 20.8434 10.9545 20.8927 11.0363 20.9609C11.1181 21.029 11.184 21.1143 11.2292 21.2107C11.2744 21.3071 11.2978 21.4122 11.2978 21.5187C11.2978 22.1703 11.304 22.4212 11.3085 22.5947L11.3085 22.5957L11.3129 22.8799L11.3129 22.8812C11.3125 23.0733 11.2361 23.2574 11.1002 23.3932C10.9641 23.5293 10.7795 23.6058 10.5869 23.6058C10.3944 23.6058 10.2097 23.5293 10.0736 23.3932C9.93746 23.2571 9.86098 23.0724 9.861 22.8799Z" fill="#6E61FF"/>
<path d="M20.983 7.74818L20.9613 7.8334L21.0148 7.9032C21.7521 8.86592 22.1426 10.0495 22.1232 11.2619L22.1232 11.2662C22.1253 11.5501 22.1117 11.834 22.0825 12.1164L22.0815 12.1257L22.0815 12.1351C22.0814 13.4914 21.5999 14.8038 20.7229 15.8384C19.8458 16.8731 18.6301 17.563 17.292 17.7852L17.0821 17.8201L17.1497 18.0219C17.1892 18.1401 17.2227 18.2601 17.2501 18.3817L17.2515 18.3872C17.3479 18.7598 17.3932 19.1438 17.3862 19.5286V21.6626C17.3773 22.2508 17.3773 22.6829 17.3773 22.8798C17.3773 23.0723 17.3008 23.257 17.1647 23.3931C17.0286 23.5293 16.8439 23.6058 16.6514 23.6058C16.4588 23.6058 16.2742 23.5293 16.1381 23.3931C16.0019 23.257 15.9254 23.0724 15.9254 22.8798C15.9254 22.6781 15.9255 22.2387 15.9343 21.6526V19.5339C15.9402 19.2705 15.9108 19.0075 15.847 18.7519C15.7905 18.4038 15.6248 18.0824 15.3735 17.8348L15.3655 17.8277C15.2596 17.735 15.1829 17.6136 15.1448 17.4782C15.1066 17.3428 15.1087 17.1992 15.1506 17.065C15.1926 16.9307 15.2726 16.8115 15.381 16.7219C15.4895 16.6322 15.6216 16.576 15.7614 16.5601C17.353 16.3787 18.527 15.9621 19.3282 15.2128C20.1326 14.4604 20.5343 13.3982 20.6365 11.9862C20.6613 11.7471 20.6729 11.5068 20.6713 11.2664C20.6932 10.3445 20.3895 9.44421 19.8135 8.72391C19.7492 8.64236 19.6766 8.55418 19.6038 8.47217C19.5149 8.37272 19.4552 8.2507 19.4311 8.11952C19.407 7.98844 19.4195 7.85327 19.4672 7.72883C19.5406 7.53955 19.5952 7.34351 19.6301 7.14353L19.6309 7.13793C19.7023 6.63635 19.6741 6.1256 19.5476 5.63499L19.501 5.45404L19.3215 5.50593C18.5159 5.73881 17.7584 6.11348 17.0844 6.61233C16.9977 6.67056 16.8995 6.70954 16.7964 6.72662C16.6922 6.7439 16.5851 6.73827 16.4832 6.71033C14.6182 6.20354 12.651 6.20343 10.7858 6.70961C10.6844 6.73761 10.5782 6.74347 10.4743 6.7268C10.3717 6.71033 10.2737 6.67227 10.187 6.61514C9.50985 6.11844 8.74916 5.74715 7.94099 5.51889L7.76141 5.46818L7.7157 5.6491C7.58879 6.15147 7.56323 6.67413 7.64077 7.18645L7.64202 7.19305C7.67648 7.37497 7.7264 7.55362 7.79123 7.72705L7.79179 7.72851C7.83956 7.85303 7.85209 7.98832 7.82802 8.1195C7.80406 8.25006 7.74476 8.37153 7.65659 8.47071C7.59068 8.54125 7.5283 8.615 7.46968 8.6917C6.89073 9.42331 6.58248 10.3326 6.59714 11.2654C6.59486 11.4942 6.6053 11.723 6.62839 11.9506C6.73295 13.3805 7.13416 14.4518 7.93588 15.2088C8.73458 15.9629 9.90414 16.3792 11.4886 16.5601C11.6283 16.576 11.7604 16.632 11.8688 16.7216C11.9773 16.8111 12.0573 16.9302 12.0993 17.0644C12.1413 17.1986 12.1434 17.3421 12.1053 17.4775C12.0672 17.6128 11.9904 17.734 11.8846 17.8266L11.8767 17.8344C11.6331 18.0755 11.468 18.3843 11.4026 18.7206C11.3554 18.9053 11.2374 19.064 11.0741 19.1625C10.9094 19.2617 10.7121 19.2917 10.5255 19.2457C10.3388 19.1997 10.178 19.0815 10.0783 18.9172C9.97865 18.7529 9.94818 18.5559 9.99353 18.3692C10.0242 18.2457 10.0585 18.1298 10.0959 18.0221L10.1626 17.8304L9.9647 17.7855C9.03314 17.574 7.9127 17.1631 6.98942 16.3038C6.07031 15.4483 5.33193 14.1349 5.18341 12.0883L5.18289 12.0831C5.15543 11.8118 5.1429 11.5392 5.14529 11.2665L5.14525 11.263C5.13267 10.0509 5.52031 8.86853 6.24807 7.89918L6.30012 7.82986L6.27891 7.74581C6.25521 7.65188 6.23227 7.5492 6.21093 7.43778C6.05896 6.44188 6.18166 5.42336 6.56581 4.49201L6.56666 4.48988C6.60656 4.38956 6.66841 4.29945 6.74767 4.22614C6.82692 4.15283 6.92158 4.09819 7.02469 4.06621L7.02645 4.06564C7.28058 3.98399 8.41112 3.76795 10.6521 5.18494L10.7165 5.22565L10.7907 5.2082C12.6594 4.76845 14.6047 4.76845 16.4734 5.2082L16.548 5.22577L16.6127 5.18446C18.8619 3.74702 19.9972 3.98267 20.2537 4.06921L20.2546 4.06953C20.3554 4.1029 20.4476 4.1579 20.5249 4.23068C20.6021 4.30346 20.6625 4.39226 20.7018 4.49085L20.7026 4.49276C21.0791 5.40666 21.2031 6.40495 21.0616 7.38316C21.0378 7.5186 21.0107 7.63905 20.983 7.74818Z" fill="#6E61FF"/>
</svg>
