<svg width="27" height="27" viewBox="0 0 27 27" fill="none" xmlns="http://www.w3.org/2000/svg">
<path d="M8.10388 22.7526C7.80175 22.8735 7.55033 22.4942 7.77928 22.263L14.1928 15.7854C14.2849 15.8134 14.3827 15.8285 14.484 15.8285C15.0363 15.8285 15.484 15.3808 15.484 14.8285C15.484 14.2762 15.0363 13.8285 14.484 13.8285C13.9317 13.8285 13.484 14.2762 13.484 14.8285C13.484 14.9062 13.4928 14.9818 13.5096 15.0544L7.01294 21.4938C6.78177 21.723 6.40232 21.4716 6.52321 21.1694L10.6504 10.8513L14.9258 8.13067C14.9258 8.13067 16.8331 10.0381 18.0553 11.2602C19.2617 12.4666 21.1444 14.3493 21.1444 14.3493L18.4238 18.6247L8.10388 22.7526Z" fill="#6E61FF"/>
<path d="M17.6053 5L24.484 11.7071L21.6556 13.8284L15.4418 7.61465L17.6053 5Z" fill="#6E61FF"/>
<path d="M3 5.32843C3 5.32843 6.50002 6.82843 6.50002 9.82843C6.50002 13.8539 2.6579 15.3921 3.50001 19.3284C3.97638 21.5552 6.50001 22.3284 6.50001 22.3284" stroke="#6E61FF"/>
</svg>
