<svg width="27" height="27" viewBox="0 0 27 27" fill="none" xmlns="http://www.w3.org/2000/svg">
<path d="M5.7415 22.363C5.52889 22.4481 5.35196 22.1812 5.51308 22.0185L12.4293 15.0332C12.5239 15.062 12.6243 15.0774 12.7284 15.0774C13.2957 15.0774 13.7555 14.6175 13.7555 14.0503C13.7555 13.483 13.2957 13.0231 12.7284 13.0231C12.1611 13.0231 11.7012 13.483 11.7012 14.0503C11.7012 14.1301 11.7103 14.2078 11.7275 14.2823L4.72237 21.2258C4.55969 21.3871 4.29267 21.2101 4.37774 20.9975L8.79068 9.9651L13.1821 7.17053C13.1821 7.17053 15.1413 9.12973 16.3967 10.3851C17.6358 11.6242 19.5697 13.5581 19.5697 13.5581L16.7752 17.9496L5.7415 22.363Z" fill="#6E61FF"/>
<path d="M15.9345 3.95483L23 10.8441L20.0947 13.0231L13.7122 6.64049L15.9345 3.95483Z" fill="#6E61FF"/>
</svg>
