<svg width="27" height="27" viewBox="0 0 27 27" fill="none" xmlns="http://www.w3.org/2000/svg">
<path d="M20.0127 21.4709C19.2672 21.4802 18.5266 21.3488 17.8297 21.0837C17.2054 20.8409 16.6412 20.4654 16.1764 19.983C15.7184 19.4901 15.3647 18.9098 15.1365 18.2768C14.886 17.5766 14.7619 16.8374 14.77 16.0938C14.7647 15.363 14.8924 14.6372 15.1469 13.9521C15.3842 13.3133 15.7493 12.7296 16.22 12.2367C16.692 11.75 17.256 11.3618 17.8791 11.0947C18.5541 10.8091 19.2811 10.6671 20.0139 10.6776C20.8015 10.6608 21.5814 10.8342 22.2877 11.1831C22.9181 11.5065 23.4648 11.9718 23.8847 12.5423C24.3084 13.1252 24.614 13.7852 24.7844 14.4852C24.9703 15.2295 25.0366 15.9986 24.9809 16.7636H17.5919C17.5625 17.4903 17.8115 18.2009 18.2881 18.7502C18.7888 19.1894 19.4435 19.4117 20.1081 19.3683C20.6301 19.3806 21.143 19.2308 21.5765 18.9398C21.9206 18.7297 22.1847 18.4106 22.3268 18.0332H24.8028C24.5221 19.1003 23.8766 20.0353 22.9782 20.6759C22.089 21.2258 21.0578 21.5023 20.0127 21.4709ZM19.9335 12.8032C19.5474 12.7887 19.1635 12.8675 18.8144 13.033C18.5414 13.1706 18.299 13.3621 18.102 13.5959C17.9287 13.8084 17.8004 14.0539 17.7252 14.3175C17.6588 14.5371 17.6161 14.7632 17.5976 14.9919H22.1728C22.1398 14.3961 21.9126 13.8275 21.5259 13.373C21.098 12.969 20.5206 12.7624 19.9335 12.8032ZM8.86895 21.2044H2.00964V7.06639H8.67363C9.29096 7.06099 9.90715 7.12068 10.512 7.24448C11.0243 7.34449 11.5123 7.54269 11.9493 7.82815C12.344 8.1021 12.6607 8.47387 12.8685 8.90703C13.0979 9.42882 13.2078 9.99527 13.1902 10.565C13.2151 11.1953 13.048 11.8183 12.7111 12.3516C12.3424 12.8607 11.8441 13.2618 11.268 13.5132C12.0508 13.7089 12.7388 14.1758 13.2097 14.8311C13.6471 15.5053 13.8684 16.297 13.844 17.1003C13.8606 17.7428 13.7194 18.3795 13.4326 18.9547C13.168 19.4649 12.7841 19.9036 12.3135 20.2335C11.8257 20.5729 11.2809 20.822 10.705 20.9688C10.1038 21.1267 9.48477 21.2063 8.86321 21.2055L8.86895 21.2044ZM5.12333 14.9046V18.7996H8.44383C8.73729 18.8028 9.03019 18.7731 9.31705 18.7111C9.57966 18.6604 9.8296 18.5581 10.0524 18.4101C10.2669 18.269 10.4411 18.0746 10.5579 17.846C10.6934 17.5591 10.7573 17.2437 10.7441 16.9268C10.7998 16.3387 10.5719 15.7592 10.1305 15.3665C9.65431 15.0387 9.08324 14.8771 8.50588 14.9069L5.12333 14.9046ZM5.12333 9.47577V12.779H8.27379C8.76113 12.7982 9.2416 12.6592 9.64335 12.3826C10.0221 12.0681 10.2215 11.5872 10.1765 11.097C10.1862 10.8155 10.1262 10.5361 10.0018 10.2835C9.88951 10.0793 9.72393 9.90933 9.52271 9.79173C9.31082 9.66608 9.0768 9.58222 8.83333 9.5447C8.56819 9.495 8.2988 9.47152 8.02906 9.47462L5.12333 9.47577ZM22.7496 9.41143H17.0162V8.01544H22.7496V9.41028V9.41143Z" fill="#6E61FF"/>
</svg>
