<svg width="27" height="27" viewBox="0 0 27 27" fill="none" xmlns="http://www.w3.org/2000/svg">
<path d="M13.4974 8.62561C10.8001 8.62561 8.62315 10.8026 8.62315 13.5C8.62315 16.1974 10.8001 18.3744 13.4974 18.3744C16.1948 18.3744 18.3717 16.1974 18.3717 13.5C18.3717 10.8026 16.1948 8.62561 13.4974 8.62561ZM13.4974 16.668C11.7531 16.668 10.3295 15.2444 10.3295 13.5C10.3295 11.7556 11.7531 10.332 13.4974 10.332C15.2418 10.332 16.6654 11.7556 16.6654 13.5C16.6654 15.2444 15.2418 16.668 13.4974 16.668ZM18.5714 7.28997C17.9416 7.28997 17.433 7.79856 17.433 8.42836C17.433 9.05815 17.9416 9.56674 18.5714 9.56674C19.2012 9.56674 19.7097 9.06053 19.7097 8.42836C19.7099 8.27881 19.6806 8.13069 19.6235 7.99249C19.5663 7.85429 19.4825 7.72872 19.3767 7.62298C19.271 7.51723 19.1454 7.43338 19.0072 7.37624C18.869 7.3191 18.7209 7.28978 18.5714 7.28997ZM22.9989 13.5C22.9989 12.1881 23.0108 10.8881 22.9371 9.57863C22.8634 8.05761 22.5164 6.7077 21.4042 5.59546C20.2896 4.48084 18.9421 4.13623 17.4211 4.06256C16.1093 3.98888 14.8093 4.00077 13.4998 4.00077C12.188 4.00077 10.888 3.98888 9.57852 4.06256C8.05753 4.13623 6.70765 4.48322 5.59543 5.59546C4.48083 6.71008 4.13623 8.05761 4.06256 9.57863C3.98889 10.8905 4.00077 12.1905 4.00077 13.5C4.00077 14.8095 3.98889 16.1119 4.06256 17.4214C4.13623 18.9424 4.48321 20.2923 5.59543 21.4045C6.71003 22.5192 8.05753 22.8638 9.57852 22.9374C10.8904 23.0111 12.1903 22.9992 13.4998 22.9992C14.8117 22.9992 16.1116 23.0111 17.4211 22.9374C18.9421 22.8638 20.292 22.5168 21.4042 21.4045C22.5188 20.2899 22.8634 18.9424 22.9371 17.4214C23.0131 16.1119 22.9989 14.8119 22.9989 13.5ZM20.9075 19.104C20.734 19.5365 20.5249 19.8598 20.1898 20.1925C19.8547 20.5276 19.5339 20.7367 19.1013 20.9102C17.8513 21.4069 14.883 21.2952 13.4974 21.2952C12.1119 21.2952 9.14124 21.4069 7.89117 20.9126C7.45864 20.7391 7.13543 20.53 6.80272 20.1949C6.46762 19.8598 6.25849 19.5389 6.085 19.1064C5.59068 17.8539 5.70237 14.8856 5.70237 13.5C5.70237 12.1144 5.59068 9.14371 6.085 7.89362C6.25849 7.46108 6.46762 7.13787 6.80272 6.80514C7.13781 6.47242 7.45864 6.26091 7.89117 6.08741C9.14124 5.59308 12.1119 5.70478 13.4974 5.70478C14.883 5.70478 17.8537 5.59308 19.1037 6.08741C19.5363 6.26091 19.8595 6.47005 20.1922 6.80514C20.5273 7.14024 20.7364 7.46108 20.9099 7.89362C21.4042 9.14371 21.2925 12.1144 21.2925 13.5C21.2925 14.8856 21.4042 17.8539 20.9075 19.104Z" fill="#4E4E4E"/>
</svg>
