<svg width="27" height="27" viewBox="0 0 27 27" fill="none" xmlns="http://www.w3.org/2000/svg">
<path d="M18.2225 15.5599C17.967 15.4286 16.6944 14.8052 16.4577 14.7208C16.221 14.6318 16.0475 14.5896 15.8764 14.8521C15.703 15.1122 15.2108 15.6911 15.0561 15.8669C14.9061 16.0403 14.7538 16.0614 14.4983 15.9325C12.9796 15.1732 11.9835 14.5779 10.9828 12.8599C10.7179 12.4029 11.2476 12.4357 11.7421 11.449C11.8265 11.2756 11.7843 11.1279 11.7187 10.9966C11.6531 10.8654 11.1374 9.5951 10.9218 9.07714C10.7132 8.57324 10.4976 8.64355 10.3406 8.63418C10.1906 8.6248 10.0195 8.6248 9.84605 8.6248C9.67261 8.6248 9.39371 8.69043 9.157 8.94589C8.92028 9.20604 8.25232 9.83182 8.25232 11.1021C8.25232 12.3724 9.17809 13.6029 9.30465 13.7763C9.4359 13.9497 11.1257 16.556 13.7202 17.6786C15.3608 18.3864 16.003 18.4473 16.8233 18.3255C17.3225 18.2505 18.3514 17.702 18.5647 17.095C18.778 16.4903 18.778 15.9724 18.7147 15.8646C18.6514 15.7497 18.478 15.6841 18.2225 15.5599Z" fill="#6E61FF"/>
<path d="M23.1843 9.43114C22.6546 8.17256 21.8952 7.04289 20.9273 6.07259C19.9593 5.10463 18.8296 4.34292 17.5687 3.81558C16.2797 3.27418 14.9109 2.99997 13.5 2.99997H13.4531C12.0328 3.007 10.6571 3.28825 9.36333 3.84137C8.11413 4.37573 6.99383 5.1351 6.03525 6.10306C5.07667 7.07101 4.32434 8.196 3.80403 9.44989C3.26497 10.7483 2.9931 12.1288 3.00013 13.5491C3.00716 15.1756 3.39622 16.7904 4.12512 18.2342V21.7966C4.12512 22.3919 4.60793 22.8747 5.20323 22.8747H8.76803C10.2118 23.6036 11.8266 23.9927 13.4531 23.9997H13.5023C14.9062 23.9997 16.2679 23.7278 17.5499 23.1958C18.8038 22.6732 19.9312 21.9232 20.8968 20.9646C21.8647 20.006 22.6264 18.8857 23.1585 17.6365C23.7116 16.3428 23.9928 14.967 23.9999 13.5467C24.0069 12.1194 23.7303 10.7342 23.1843 9.43114ZM19.6429 19.6966C17.9999 21.3232 15.8203 22.2185 13.5 22.2185H13.4602C12.0469 22.2115 10.643 21.8599 9.40318 21.199L9.20631 21.0935H5.90635V17.7935L5.80088 17.5967C5.13995 16.3568 4.78839 14.9529 4.78136 13.5397C4.77199 11.203 5.66494 9.00927 7.3032 7.35695C8.93912 5.70462 11.1258 4.79057 13.4625 4.7812H13.5023C14.6742 4.7812 15.8109 5.00854 16.882 5.45853C17.9273 5.89681 18.8648 6.52727 19.671 7.33351C20.4749 8.13741 21.1077 9.07724 21.546 10.1225C22.0007 11.2053 22.228 12.3538 22.2233 13.5397C22.2093 15.874 21.2929 18.0607 19.6429 19.6966Z" fill="#6E61FF"/>
</svg>
