<svg width="27" height="26" viewBox="0 0 27 26" fill="none" xmlns="http://www.w3.org/2000/svg">
<path fill-rule="evenodd" clip-rule="evenodd" d="M8.12366 5.87943C8.12366 6.95473 7.30492 7.82494 6.02454 7.82494C4.79404 7.82494 3.97529 6.95473 4.00063 5.87943C3.97529 4.75188 4.79402 3.907 6.04906 3.907C7.3049 3.907 8.09912 4.75188 8.12366 5.87943ZM4.10358 21.7866V10.0248H7.99618V21.7858L4.10358 21.7866Z" fill="#4E4E4E"/>
<path fill-rule="evenodd" clip-rule="evenodd" d="M11.1163 14.1059C11.1163 12.5436 11.0648 11.2118 11.0134 10.1104H14.3944L14.5742 11.8262H14.651C15.1633 11.032 16.4437 9.82926 18.5183 9.82926C21.079 9.82926 23 11.5198 23 15.2065L23 21.7882H19.1074L19.1074 15.6943C19.1074 14.0798 18.5444 12.9791 17.1357 12.9791C16.0597 12.9791 15.4199 13.7219 15.1641 14.4385C15.0612 14.695 15.0105 15.0529 15.0105 15.4124L15.0105 21.7882H11.1179L11.1179 14.1059H11.1163Z" fill="#4E4E4E"/>
</svg>
