<svg width="19" height="19" viewBox="0 0 19 19" fill="none" xmlns="http://www.w3.org/2000/svg">
<path d="M2.07821 18.6083C1.77608 18.7291 1.52466 18.3499 1.75361 18.1187L8.16713 11.6411C8.25927 11.6691 8.35703 11.6841 8.45831 11.6841C9.01059 11.6841 9.45831 11.2364 9.45831 10.6841C9.45831 10.1318 9.01059 9.68413 8.45831 9.68413C7.90603 9.68413 7.45831 10.1318 7.45831 10.6841C7.45831 10.7618 7.46717 10.8375 7.48394 10.9101L0.987276 17.3495C0.756097 17.5787 0.376654 17.3272 0.497541 17.025L4.62475 6.707L8.90008 3.98633C8.90008 3.98633 10.8075 5.89372 12.0296 7.11589C13.236 8.32226 15.1187 10.205 15.1187 10.205L12.3981 14.4803L2.07821 18.6083Z" fill="#6E61FF"/>
<path d="M11.5796 0.855667L18.4583 7.56278L15.6299 9.6841L9.4161 3.47031L11.5796 0.855667Z" fill="#6E61FF"/>
</svg>
