<svg width="810" height="460" viewBox="0 0 810 460" fill="none" xmlns="http://www.w3.org/2000/svg">
<path d="M3 2.92383H18.8591V10.8534H791.152V2.92383H807.011V18.7829H798.586V441.297H807.011V457.156H791.152V449.227H18.8591V457.156H3V441.297H10.4339V18.7829H3V2.92383Z" fill="white"/>
<path d="M18.8591 10.8534V2.92383H3V18.7829H10.4339M18.8591 10.8534V18.7829H10.4339M18.8591 10.8534H791.152M10.4339 18.7829V441.297M10.4339 441.297H3V457.156H18.8591V449.227M10.4339 441.297H18.8591V449.227M18.8591 449.227H791.152M791.152 10.8534V2.92383H807.011V18.7829H798.586M791.152 10.8534V18.7829H798.586M798.586 18.7829V441.297M798.586 441.297H807.011V457.156H791.152V449.227M798.586 441.297H791.152V449.227" stroke="#6E61FF" stroke-width="5.32899"/>
</svg>
