<svg width="23" height="20" viewBox="0 0 23 20" fill="none" xmlns="http://www.w3.org/2000/svg">
<path d="M6.57583 18.6083C6.2737 18.7291 6.02228 18.3499 6.25123 18.1187L12.6648 11.6411C12.7569 11.6691 12.8546 11.6841 12.9559 11.6841C13.5082 11.6841 13.9559 11.2364 13.9559 10.6841C13.9559 10.1318 13.5082 9.68413 12.9559 9.68413C12.4036 9.68413 11.9559 10.1318 11.9559 10.6841C11.9559 10.7618 11.9648 10.8375 11.9816 10.9101L5.4849 17.3495C5.25372 17.5787 4.87427 17.3272 4.99516 17.025L9.12237 6.707L13.3977 3.98633C13.3977 3.98633 15.3051 5.89372 16.5273 7.11589C17.7336 8.32226 19.6164 10.205 19.6164 10.205L16.8957 14.4803L6.57583 18.6083Z" fill="#6E61FF"/>
<path d="M16.0773 0.855667L22.9559 7.56278L20.1275 9.6841L13.9137 3.47031L16.0773 0.855667Z" fill="#6E61FF"/>
<path d="M0.458313 1.1841C0.458313 1.1841 3.95834 2.6841 3.95834 5.6841C3.95834 9.70953 0.116217 11.2477 0.958324 15.1841C1.43469 17.4108 3.95832 18.1841 3.95832 18.1841" stroke="#6E61FF"/>
</svg>
