<svg width="226" height="41" viewBox="0 0 226 41" fill="none" xmlns="http://www.w3.org/2000/svg">
<path d="M2.45328 26.528C2.95728 26.828 3.47928 27.086 4.01928 27.302C4.57128 27.506 5.12928 27.608 5.69328 27.608C7.00128 27.608 7.86528 27.212 8.28528 26.42C8.70528 25.628 8.91528 24.524 8.91528 23.108V7.412C9.38328 7.316 9.89328 7.256 10.4453 7.232C11.0093 7.208 11.4653 7.196 11.8133 7.196C12.1973 7.196 12.6533 7.208 13.1813 7.232C13.7093 7.256 14.2133 7.316 14.6933 7.412V22.568C14.6933 23.984 14.5733 25.292 14.3333 26.492C14.0933 27.68 13.6673 28.712 13.0553 29.588C12.4433 30.464 11.5913 31.148 10.4993 31.64C9.41928 32.12 8.03328 32.36 6.34128 32.36C5.39328 32.36 4.39128 32.234 3.33528 31.982C2.27928 31.718 1.32528 31.316 0.473281 30.776C0.581281 30.056 0.809281 29.312 1.15728 28.544C1.50528 27.776 1.93728 27.104 2.45328 26.528ZM34.7706 23.018C34.7706 24.938 34.4526 26.612 33.8166 28.04C33.1806 29.468 32.2446 30.578 31.0086 31.37C29.7846 32.15 28.2666 32.54 26.4546 32.54C24.6306 32.54 23.1006 32.144 21.8646 31.352C20.6286 30.56 19.6986 29.45 19.0746 28.022C18.4506 26.594 18.1386 24.926 18.1386 23.018C18.1386 21.086 18.4506 19.412 19.0746 17.996C19.7106 16.568 20.6466 15.464 21.8826 14.684C23.1186 13.892 24.6426 13.496 26.4546 13.496C28.2786 13.496 29.8086 13.892 31.0446 14.684C32.2806 15.476 33.2106 16.586 33.8346 18.014C34.4586 19.43 34.7706 21.098 34.7706 23.018ZM23.9166 23.018C23.9166 24.002 23.9706 24.896 24.0786 25.7C24.1986 26.504 24.4386 27.146 24.7986 27.626C25.1706 28.094 25.7226 28.328 26.4546 28.328C27.1986 28.328 27.7506 28.094 28.1106 27.626C28.4706 27.146 28.7046 26.504 28.8126 25.7C28.9326 24.896 28.9926 24.002 28.9926 23.018C28.9926 22.022 28.9326 21.122 28.8126 20.318C28.7046 19.514 28.4706 18.878 28.1106 18.41C27.7506 17.93 27.1986 17.69 26.4546 17.69C25.7226 17.69 25.1706 17.93 24.7986 18.41C24.4386 18.878 24.1986 19.514 24.0786 20.318C23.9706 21.122 23.9166 22.022 23.9166 23.018ZM36.9472 27.086C36.9472 25.634 37.2832 24.452 37.9552 23.54C38.6272 22.616 39.5032 21.932 40.5832 21.488C41.6752 21.044 42.8392 20.822 44.0752 20.822C44.6152 20.822 45.2932 20.834 46.1092 20.858C46.9372 20.882 47.6812 20.96 48.3412 21.092V24.656C47.8252 24.536 47.2012 24.47 46.4692 24.458C45.7492 24.434 45.1492 24.422 44.6692 24.422C43.8652 24.422 43.2892 24.638 42.9412 25.07C42.5932 25.49 42.4192 26.036 42.4192 26.708C42.4192 27.188 42.5692 27.59 42.8692 27.914C43.1692 28.226 43.5712 28.382 44.0752 28.382C44.7952 28.382 45.5272 28.124 46.2712 27.608C47.0152 27.092 47.6452 26.384 48.1612 25.484L48.9532 29.048C48.4852 29.6 47.9512 30.146 47.3512 30.686C46.7512 31.226 46.0492 31.67 45.2452 32.018C44.4412 32.366 43.4992 32.54 42.4192 32.54C41.1832 32.54 40.1572 32.264 39.3412 31.712C38.5372 31.16 37.9372 30.464 37.5412 29.624C37.1452 28.784 36.9472 27.938 36.9472 27.086ZM53.2732 29.408C53.1772 29.9 52.9552 30.434 52.6072 31.01C52.2592 31.586 51.9112 32.012 51.5632 32.288C50.5072 32.264 49.6312 32.024 48.9352 31.568C48.2512 31.112 47.7232 30.554 47.3512 29.894C46.9912 29.222 46.7572 28.568 46.6492 27.932V20.228C46.6492 19.472 46.4572 18.902 46.0732 18.518C45.7012 18.134 45.1072 17.942 44.2912 17.942C43.5232 17.942 42.6832 18.068 41.7712 18.32C40.8592 18.56 39.9292 18.818 38.9812 19.094C38.5852 18.638 38.2732 18.05 38.0452 17.33C37.8292 16.598 37.6912 15.884 37.6312 15.188C38.4352 14.852 39.3292 14.57 40.3132 14.342C41.2972 14.102 42.2752 13.922 43.2472 13.802C44.2312 13.67 45.1072 13.604 45.8752 13.604C46.9312 13.604 47.9452 13.802 48.9172 14.198C49.8892 14.582 50.6872 15.224 51.3112 16.124C51.9472 17.012 52.2652 18.218 52.2652 19.742V27.068C52.2652 27.584 52.3432 28.04 52.4992 28.436C52.6672 28.832 52.9252 29.156 53.2732 29.408ZM55.3356 23.054C55.3356 20.99 55.6656 19.25 56.3256 17.834C56.9856 16.406 57.8616 15.326 58.9536 14.594C60.0456 13.862 61.2456 13.496 62.5536 13.496C63.7296 13.496 64.7256 13.688 65.5416 14.072C66.3696 14.456 67.0536 14.924 67.5936 15.476C68.1456 16.028 68.5716 16.568 68.8716 17.096L67.9536 21.686C67.2576 20.378 66.5076 19.382 65.7036 18.698C64.9116 18.014 64.1916 17.672 63.5436 17.672C62.9676 17.672 62.4996 17.894 62.1396 18.338C61.7796 18.77 61.5156 19.388 61.3476 20.192C61.1796 20.996 61.0956 21.962 61.0956 23.09C61.0956 24.758 61.2936 25.97 61.6896 26.726C62.0976 27.47 62.6076 27.842 63.2196 27.842C63.9396 27.842 64.6416 27.596 65.3256 27.104C66.0216 26.612 66.6036 25.88 67.0716 24.908L67.8636 28.832C67.4676 29.504 66.9576 30.11 66.3336 30.65C65.7096 31.178 65.0076 31.598 64.2276 31.91C63.4596 32.21 62.6556 32.36 61.8156 32.36C60.3516 32.36 59.1396 31.964 58.1796 31.172C57.2196 30.38 56.5056 29.288 56.0376 27.896C55.5696 26.492 55.3356 24.878 55.3356 23.054ZM65.8656 19.148C65.8656 17.648 66.2676 16.382 67.0716 15.35C67.8756 14.306 69.0696 13.772 70.6536 13.748C71.0016 14.012 71.3496 14.438 71.6976 15.026C72.0456 15.602 72.2676 16.136 72.3636 16.628C72.0636 16.844 71.8176 17.192 71.6256 17.672C71.4456 18.14 71.3556 18.656 71.3556 19.22V39.524L71.1216 39.776H68.9256C67.8216 39.776 67.0356 39.524 66.5676 39.02C66.0996 38.516 65.8656 37.64 65.8656 36.392V19.148ZM91.0867 26.87C91.0867 27.446 91.1767 27.968 91.3567 28.436C91.5487 28.904 91.7947 29.246 92.0947 29.462C91.9987 29.966 91.7767 30.494 91.4287 31.046C91.0807 31.598 90.7327 32.012 90.3847 32.288C88.7887 32.264 87.5707 31.718 86.7307 30.65C85.8907 29.582 85.4707 28.298 85.4707 26.798V14.036C85.8547 13.964 86.2987 13.91 86.8027 13.874C87.3067 13.838 87.7987 13.82 88.2787 13.82C88.7467 13.82 89.2267 13.838 89.7187 13.874C90.2227 13.91 90.6787 13.964 91.0867 14.036V26.87ZM75.6247 18.536C75.6247 17.828 75.5527 17.168 75.4087 16.556C75.2767 15.944 75.0487 15.41 74.7247 14.954C75.1447 14.606 75.6607 14.318 76.2727 14.09C76.8847 13.862 77.5387 13.748 78.2347 13.748C79.3627 13.748 80.1427 14.048 80.5747 14.648C81.0187 15.248 81.2407 16.106 81.2407 17.222V24.89C81.2407 25.694 81.3487 26.294 81.5647 26.69C81.7927 27.074 82.2007 27.266 82.7887 27.266C83.1607 27.266 83.5867 27.17 84.0667 26.978C84.5587 26.774 85.0447 26.444 85.5247 25.988C86.0167 25.532 86.4427 24.932 86.8027 24.188V29.102C85.9627 29.93 85.0507 30.674 84.0667 31.334C83.0827 31.994 81.9487 32.324 80.6647 32.324C79.5727 32.324 78.6487 32.054 77.8927 31.514C77.1487 30.962 76.5847 30.206 76.2007 29.246C75.8167 28.274 75.6247 27.164 75.6247 25.916V18.536ZM101.899 32C101.503 32.072 101.053 32.126 100.549 32.162C100.057 32.198 99.5713 32.216 99.0913 32.216C98.6233 32.216 98.1373 32.198 97.6333 32.162C97.1413 32.126 96.6853 32.072 96.2653 32V20.084C96.2653 19.484 96.1393 18.986 95.8873 18.59C95.6473 18.194 95.2093 17.996 94.5733 17.996H94.0333C93.8773 17.384 93.7993 16.748 93.7993 16.088C93.7993 15.776 93.8173 15.446 93.8533 15.098C93.8893 14.738 93.9493 14.396 94.0333 14.072C94.5853 14.012 95.1493 13.97 95.7253 13.946C96.3133 13.91 96.8053 13.892 97.2013 13.892H97.9753C99.1873 13.892 100.141 14.282 100.837 15.062C101.545 15.83 101.899 16.874 101.899 18.194V32ZM100.513 4.298C101.185 4.502 101.863 4.916 102.547 5.54C103.231 6.152 103.681 6.818 103.897 7.538L97.2373 12.542C96.7693 12.398 96.3133 12.128 95.8693 11.732C95.4253 11.336 95.1073 10.88 94.9153 10.364L100.513 4.298ZM108.518 13.784C109.598 13.784 110.408 14.156 110.948 14.9C111.5 15.632 111.776 16.622 111.776 17.87V32C111.38 32.072 110.93 32.126 110.426 32.162C109.934 32.198 109.448 32.216 108.968 32.216C108.5 32.216 108.014 32.198 107.51 32.162C107.018 32.126 106.562 32.072 106.142 32V14.036L106.394 13.784H108.518ZM121.622 27.5C121.622 28.196 121.688 28.856 121.82 29.48C121.952 30.092 122.186 30.626 122.522 31.082C122.114 31.418 121.604 31.706 120.992 31.946C120.38 32.174 119.72 32.288 119.012 32.288C117.884 32.288 117.098 31.988 116.654 31.388C116.21 30.788 115.988 29.924 115.988 28.796V21.146C115.988 20.33 115.88 19.73 115.664 19.346C115.46 18.95 115.058 18.752 114.458 18.752C114.086 18.752 113.654 18.854 113.162 19.058C112.682 19.25 112.196 19.574 111.704 20.03C111.224 20.486 110.798 21.092 110.426 21.848V16.916C111.278 16.1 112.196 15.362 113.18 14.702C114.176 14.042 115.31 13.712 116.582 13.712C117.686 13.712 118.61 13.988 119.354 14.54C120.098 15.08 120.662 15.83 121.046 16.79C121.43 17.75 121.622 18.86 121.622 20.12V27.5ZM139.86 7.412C140.316 7.34 140.862 7.286 141.498 7.25C142.146 7.214 142.71 7.196 143.19 7.196C143.646 7.196 144.198 7.214 144.846 7.25C145.506 7.286 146.064 7.352 146.52 7.448L154.26 31.622C153.864 31.85 153.348 32.024 152.712 32.144C152.088 32.264 151.506 32.324 150.966 32.324C150.054 32.324 149.34 32.114 148.824 31.694C148.308 31.262 147.876 30.428 147.528 29.192L144.954 20.066C144.678 19.058 144.354 17.87 143.982 16.502C143.622 15.134 143.286 13.856 142.974 12.668H142.758C142.638 13.328 142.476 14.066 142.272 14.882C142.068 15.698 141.852 16.514 141.624 17.33C141.408 18.134 141.204 18.866 141.012 19.526L137.34 32.036C136.98 32.12 136.596 32.174 136.188 32.198C135.78 32.234 135.348 32.252 134.892 32.252C134.46 32.252 133.968 32.216 133.416 32.144C132.876 32.072 132.444 31.976 132.12 31.856L131.904 31.55L139.86 7.412ZM140.292 26.852C140.124 26.852 139.926 26.852 139.698 26.852C139.482 26.84 139.266 26.834 139.05 26.834C138.834 26.822 138.636 26.816 138.456 26.816H135.432L137.178 22.334H139.842C140.01 22.334 140.202 22.334 140.418 22.334C140.634 22.322 140.85 22.316 141.066 22.316C141.282 22.304 141.474 22.298 141.642 22.298H144.27C144.45 22.298 144.642 22.304 144.846 22.316C145.062 22.316 145.278 22.322 145.494 22.334C145.722 22.334 145.92 22.334 146.088 22.334H148.842L150.3 26.816H147.258C147.09 26.816 146.892 26.822 146.664 26.834C146.448 26.834 146.226 26.84 145.998 26.852C145.782 26.852 145.59 26.852 145.422 26.852H140.292ZM179.031 32C178.635 32.072 178.185 32.126 177.681 32.162C177.189 32.198 176.703 32.216 176.223 32.216C175.755 32.216 175.269 32.198 174.765 32.162C174.273 32.126 173.817 32.072 173.397 32V20.084C173.397 19.484 173.271 18.986 173.019 18.59C172.767 18.194 172.323 17.996 171.687 17.996H170.265L166.287 32C165.627 32.072 164.925 32.126 164.181 32.162C163.437 32.198 162.711 32.216 162.003 32.216C160.935 32.216 160.095 32.042 159.483 31.694C158.871 31.334 158.409 30.614 158.097 29.534L153.795 14.468C154.287 14.264 154.809 14.09 155.361 13.946C155.925 13.79 156.435 13.712 156.891 13.712C157.779 13.712 158.487 13.91 159.015 14.306C159.543 14.69 159.921 15.368 160.149 16.34L161.769 23.054C161.889 23.51 161.997 24.014 162.093 24.566C162.189 25.106 162.273 25.628 162.345 26.132C162.429 26.636 162.501 27.068 162.561 27.428C162.609 27.62 162.729 27.716 162.921 27.716L166.035 14.234C166.371 14.138 166.821 14.066 167.385 14.018C167.961 13.958 168.471 13.928 168.915 13.928H175.143C176.319 13.928 177.261 14.318 177.969 15.098C178.677 15.878 179.031 16.91 179.031 18.194V32ZM172.317 8.978C172.317 8.642 172.353 8.294 172.425 7.934C172.497 7.562 172.599 7.208 172.731 6.872C173.043 6.716 173.445 6.584 173.937 6.476C174.441 6.368 174.933 6.314 175.413 6.314C175.893 6.314 176.391 6.368 176.907 6.476C177.423 6.584 177.813 6.716 178.077 6.872C178.221 7.208 178.323 7.568 178.383 7.952C178.455 8.324 178.491 8.666 178.491 8.978C178.491 9.302 178.455 9.65 178.383 10.022C178.323 10.394 178.221 10.742 178.077 11.066C177.813 11.222 177.423 11.354 176.907 11.462C176.391 11.57 175.893 11.624 175.413 11.624C174.933 11.624 174.435 11.576 173.919 11.48C173.403 11.372 173.007 11.234 172.731 11.066C172.599 10.742 172.497 10.394 172.425 10.022C172.353 9.65 172.317 9.302 172.317 8.978ZM191.285 27.896C191.417 28.292 191.525 28.724 191.609 29.192C191.693 29.648 191.735 30.104 191.735 30.56C191.735 30.764 191.723 30.98 191.699 31.208C191.687 31.436 191.651 31.64 191.591 31.82C191.051 31.904 190.445 31.982 189.773 32.054C189.101 32.138 188.417 32.18 187.721 32.18C186.089 32.18 184.931 31.778 184.247 30.974C183.575 30.158 183.239 28.892 183.239 27.176V5.756L183.491 5.504H185.687C186.791 5.504 187.571 5.756 188.027 6.26C188.495 6.764 188.729 7.64 188.729 8.888V26.186C188.729 27.326 189.251 27.896 190.295 27.896H191.285ZM196.746 24.836V20.966H203.532V20.552C203.532 20 203.454 19.496 203.298 19.04C203.142 18.572 202.89 18.2 202.542 17.924C202.206 17.636 201.75 17.492 201.174 17.492C200.298 17.492 199.68 17.852 199.32 18.572C198.972 19.292 198.798 20.402 198.798 21.902V23.594C198.798 24.41 198.87 25.172 199.014 25.88C199.158 26.588 199.464 27.158 199.932 27.59C200.4 28.022 201.114 28.238 202.074 28.238C202.89 28.238 203.688 28.136 204.468 27.932C205.26 27.716 206.016 27.458 206.736 27.158C207.156 27.566 207.492 28.082 207.744 28.706C207.996 29.33 208.164 29.924 208.248 30.488C207.336 31.148 206.244 31.652 204.972 32C203.712 32.36 202.44 32.54 201.156 32.54C199.572 32.54 198.264 32.282 197.232 31.766C196.2 31.238 195.384 30.53 194.784 29.642C194.184 28.742 193.758 27.734 193.506 26.618C193.266 25.49 193.146 24.332 193.146 23.144C193.146 21.332 193.416 19.7 193.956 18.248C194.508 16.784 195.378 15.626 196.566 14.774C197.754 13.922 199.302 13.496 201.21 13.496C202.794 13.496 204.144 13.832 205.26 14.504C206.376 15.176 207.228 16.088 207.816 17.24C208.416 18.38 208.716 19.676 208.716 21.128C208.716 21.932 208.674 22.604 208.59 23.144C208.518 23.672 208.398 24.236 208.23 24.836H196.746ZM203.478 4.298C204.15 4.502 204.828 4.916 205.512 5.54C206.196 6.152 206.646 6.818 206.862 7.538L200.202 12.542C199.734 12.398 199.278 12.128 198.834 11.732C198.39 11.336 198.072 10.88 197.88 10.364L203.478 4.298ZM210.628 30.758C210.652 30.158 210.814 29.486 211.114 28.742C211.426 27.998 211.786 27.41 212.194 26.978C212.986 27.386 213.802 27.74 214.642 28.04C215.494 28.328 216.34 28.472 217.18 28.472C217.876 28.472 218.398 28.352 218.746 28.112C219.106 27.872 219.286 27.572 219.286 27.212C219.286 26.864 219.16 26.558 218.908 26.294C218.656 26.018 218.236 25.778 217.648 25.574L215.65 24.854C214.81 24.542 214.048 24.152 213.364 23.684C212.68 23.204 212.14 22.622 211.744 21.938C211.348 21.242 211.15 20.414 211.15 19.454C211.15 18.23 211.438 17.174 212.014 16.286C212.59 15.398 213.4 14.714 214.444 14.234C215.488 13.742 216.712 13.496 218.116 13.496C219.256 13.496 220.45 13.652 221.698 13.964C222.946 14.276 223.96 14.624 224.74 15.008C224.764 15.44 224.71 15.92 224.578 16.448C224.446 16.976 224.254 17.462 224.002 17.906C223.762 18.35 223.492 18.686 223.192 18.914C222.448 18.578 221.638 18.272 220.762 17.996C219.886 17.708 219.022 17.564 218.17 17.564C217.69 17.564 217.324 17.678 217.072 17.906C216.82 18.134 216.694 18.404 216.694 18.716C216.694 19.028 216.802 19.292 217.018 19.508C217.234 19.724 217.582 19.916 218.062 20.084L220.294 20.876C221.662 21.356 222.802 22.058 223.714 22.982C224.626 23.906 225.082 25.136 225.082 26.672C225.082 28.46 224.392 29.888 223.012 30.956C221.644 32.012 219.742 32.54 217.306 32.54C216.022 32.54 214.798 32.36 213.634 32C212.482 31.652 211.48 31.238 210.628 30.758Z" fill="#6E61FF"/>
</svg>
