<svg width="138" height="86" viewBox="0 0 138 86" fill="none" xmlns="http://www.w3.org/2000/svg">
<path d="M4.14644 28.7509C3.5925 31.691 3.92628 33.9351 5.14777 35.4833C6.38347 37.0315 8.48557 37.8056 11.4541 37.8056C14.4936 37.8056 16.8585 36.932 18.5487 35.185C20.2531 33.4238 21.4035 30.8246 22.0001 27.3874L25.7711 6.38059H19.9335L15.9707 28.3035C15.7009 30.4056 15.2464 31.9112 14.6072 32.8202C13.9823 33.7292 13.123 34.1837 12.0293 34.1837C10.8504 34.1837 10.0266 33.7647 9.55792 32.9267C9.10341 32.0887 8.98979 30.8956 9.21704 29.3474L9.68575 26.7482H4.48732L4.14644 28.7509ZM24.578 30.9879C24.0951 33.1184 24.5638 34.7944 25.9841 36.0159C27.4045 37.2374 29.5492 37.8482 32.4183 37.8482C35.2731 37.8482 37.6948 37.2374 39.6833 36.0159C41.686 34.7944 42.9287 33.1184 43.4117 30.9879L43.8804 28.41C44.3491 26.3363 43.8733 24.6887 42.4529 23.4672C41.0326 22.2458 38.8879 21.635 36.0188 21.635C33.1781 21.635 30.7565 22.2458 28.7538 23.4672C26.7511 24.6887 25.5154 26.3363 25.0467 28.41L24.578 30.9879ZM30.7778 28.1757C30.9908 27.082 31.4737 26.3363 32.2265 25.9386C32.9935 25.5267 33.9735 25.3208 35.1666 25.3208C36.3881 25.3208 37.2545 25.5267 37.7658 25.9386C38.2913 26.3363 38.4405 27.082 38.2132 28.1757L37.6593 31.3288C37.4462 32.5219 36.9562 33.3031 36.1892 33.6724C35.4365 34.0417 34.4564 34.2263 33.2492 34.2263C32.0419 34.2263 31.1826 34.0417 30.6712 33.6724C30.1599 33.3031 30.0108 32.529 30.2238 31.3501L30.7778 28.1757ZM44.8391 32.9693C44.4982 34.5175 44.7468 35.6893 45.5848 36.4846C46.4228 37.2658 47.7721 37.6564 49.6327 37.6564C51.2093 37.6564 52.5728 37.4008 53.7233 36.8894C54.8738 36.3639 55.7189 35.81 56.2586 35.2276C56.2302 35.6395 56.2444 36.0372 56.3012 36.4207C56.358 36.79 56.4504 37.1167 56.5782 37.4008H62.1601L62.2027 37.1025C62.0323 36.6338 61.94 36.0869 61.9258 35.462C61.9258 34.8228 61.9968 34.1198 62.1388 33.3528L63.8006 27.1317C64.2125 25.1717 63.829 23.7797 62.6501 22.9559C61.4713 22.1321 59.568 21.7202 56.9404 21.7202C54.2843 21.7202 52.1396 22.1037 50.5063 22.8707C48.8729 23.6377 47.907 24.7242 47.6088 26.1304L47.4383 27.3235L52.5515 27.3448L52.722 26.1517C52.8356 25.5267 53.1694 25.1148 53.7233 24.916C54.2915 24.7029 55.0371 24.5964 55.9603 24.5964C56.841 24.5964 57.4588 24.7669 57.8139 25.1077C58.1832 25.4486 58.3039 26.0025 58.1761 26.7695L57.8565 28.2183H53.6807C51.0957 28.2183 49.0646 28.6444 47.5875 29.4966C46.1245 30.3346 45.2084 31.4922 44.8391 32.9693ZM50.5276 32.6497C50.7122 31.7975 51.1738 31.2862 51.9124 31.1158C52.6652 30.9453 53.631 30.8601 54.8099 30.8601H57.3239L56.8552 31.968C56.7131 32.7634 56.216 33.4664 55.3638 34.0772C54.5258 34.6879 53.6949 34.9933 52.8711 34.9933C52.1183 34.9933 51.4934 34.8655 50.9963 34.6098C50.5134 34.3399 50.3571 33.6866 50.5276 32.6497ZM65.6968 31.0305C65.2423 33.0474 65.4269 34.6737 66.2507 35.9094C67.0887 37.1309 68.5871 37.7416 70.7461 37.7416C72.1096 37.7416 73.3453 37.5002 74.4531 37.0173C75.5752 36.5201 76.5126 35.881 77.2654 35.0998L77.2015 35.0572L75.2627 49.2464H80.8234L85.8514 22.1889H80.2694L79.9285 24.3834H79.9498C79.5806 23.6874 78.9485 23.0838 78.0537 22.5724C77.1731 22.0469 75.9587 21.7841 74.4105 21.7841C72.2658 21.7841 70.4691 22.3878 69.0204 23.5951C67.5858 24.7882 66.6342 26.3931 66.1655 28.41L65.6968 31.0305ZM71.3639 31.1158L71.8326 28.4526C72.0599 27.5152 72.4718 26.7553 73.0683 26.173C73.6791 25.5907 74.5881 25.2995 75.7954 25.2995C76.605 25.2995 77.308 25.5125 77.9046 25.9386C78.5153 26.3505 78.8988 26.8548 79.055 27.4513L77.798 32.0319C77.4714 32.6 76.9458 33.1113 76.2215 33.5658C75.4971 34.0062 74.723 34.2263 73.8992 34.2263C72.7061 34.2263 71.932 33.9493 71.577 33.3954C71.2219 32.8273 71.1509 32.0674 71.3639 31.1158ZM86.6183 32.0319C86.2348 34.0914 86.4834 35.5756 87.364 36.4846C88.2588 37.3937 89.5726 37.8482 91.3054 37.8482C92.8394 37.8482 94.1603 37.5641 95.2682 36.996C96.3903 36.4278 97.2709 35.7035 97.91 34.8228H97.8887L97.4413 37.4008H103.108L106.539 22.1676H100.871L98.5705 31.6484C98.116 32.3728 97.5762 32.9764 96.9513 33.4593C96.3263 33.9422 95.6375 34.1837 94.8847 34.1837C93.9899 34.1837 93.3294 33.9564 92.9033 33.5019C92.4772 33.0474 92.3565 32.2378 92.5411 31.0732L94.7356 22.1889H89.0258L86.6183 32.0319ZM106.773 37.4008H112.547L115.977 22.1889H110.203L106.773 37.4008ZM110.331 18.354L114.102 19.4193L120.302 13.2408L116.041 11.9625L110.331 18.354ZM115.998 37.4008H121.686L123.966 27.92C124.406 27.2098 124.946 26.6275 125.585 26.173C126.239 25.7185 126.949 25.4912 127.716 25.4912C128.596 25.4912 129.264 25.7469 129.718 26.2582C130.173 26.7553 130.315 27.5791 130.145 28.7296L127.95 37.4008H133.639L136.046 27.3874C136.43 25.4273 136.167 23.9928 135.258 23.0838C134.349 22.1747 133.063 21.7202 131.402 21.7202C129.882 21.7202 128.54 22.0043 127.375 22.5724C126.21 23.1264 125.308 23.8578 124.669 24.7669L125.095 22.1889H119.428L115.998 37.4008Z" fill="#6E61FF"/>
<path d="M25.9454 77.9169H31.3569L39.6658 56.5692C39.9499 55.8874 40.2482 55.1205 40.5606 54.2683C40.8731 53.416 41.1217 52.7911 41.3063 52.3934H41.3702C41.4271 52.7911 41.491 53.416 41.562 54.2683C41.633 55.1063 41.6969 55.8661 41.7537 56.5479L43.3303 77.9169H49.0401L46.7391 46.8967H39.4741L25.9454 77.9169ZM31.3356 70.8436H45.7165L45.9721 67.4561H32.6139L31.3356 70.8436ZM51.9589 62.7051L54.9842 77.9169H60.7791L70.5582 62.7051H65.7858L60.5448 70.7371C60.3459 71.0069 60.1329 71.3975 59.9056 71.9088C59.6784 72.4202 59.4937 73.0309 59.3517 73.7411H59.2665C59.1955 73.0309 59.096 72.4273 58.9682 71.9301C58.8546 71.4188 58.7552 71.014 58.6699 70.7158L57.3064 62.7051H51.9589ZM69.2799 77.9169H75.0748L78.505 62.7051H72.71L69.2799 77.9169ZM73.7752 54.8648C73.6048 55.6886 73.7184 56.3917 74.1161 56.974C74.5138 57.5563 75.2027 57.8475 76.1827 57.8475C77.1627 57.8475 77.9794 57.5563 78.6328 56.974C79.2861 56.3917 79.698 55.6886 79.8685 54.8648C80.0389 54.0268 79.9253 53.3308 79.5276 52.7769C79.1299 52.223 78.441 51.946 77.461 51.946C76.4668 51.946 75.643 52.2301 74.9896 52.7982C74.3505 53.3521 73.9457 54.041 73.7752 54.8648ZM78.9311 77.9169H84.6834L90.1588 45.8528H84.4065L78.9311 77.9169ZM89.1362 71.4827C88.6391 73.6985 89.0581 75.3958 90.3932 76.5747C91.7425 77.7535 93.9014 78.343 96.8699 78.343C99.3839 78.343 101.422 77.8459 102.984 76.8516C104.561 75.8432 105.726 74.4441 106.479 72.6545L101.6 71.9088C101.174 72.8463 100.613 73.5635 99.9165 74.0607C99.2206 74.5436 98.4749 74.785 97.6795 74.785C96.4296 74.785 95.5632 74.5294 95.0803 74.018C94.5974 73.5067 94.4767 72.7184 94.7181 71.6532L95.2294 68.1805C95.4567 67.4987 95.9183 66.9164 96.6143 66.4334C97.3102 65.9505 98.205 65.7091 99.2987 65.7091C100.747 65.7091 101.607 65.9434 101.877 66.4121C102.146 66.8808 102.196 67.5129 102.026 68.3083L101.877 68.5213H92.3746L92.0763 70.9714H107.075L107.416 68.9048C107.941 66.7743 107.601 65.1196 106.393 63.9407C105.186 62.7619 103.148 62.1724 100.279 62.1724C97.4807 62.1724 95.1158 62.7761 93.1842 63.9834C91.2667 65.1764 90.0665 66.8311 89.5836 68.9474L89.1362 71.4827ZM97.4239 58.8701L101.195 59.9354L107.395 53.7569L103.134 52.4786L97.4239 58.8701ZM108.481 72.058L108.375 72.8037C108.091 74.6075 108.545 75.9852 109.738 76.9368C110.945 77.8743 112.877 78.343 115.533 78.343C118.218 78.343 120.355 77.9169 121.946 77.0647C123.537 76.1983 124.51 74.7779 124.865 72.8037C125.163 71.4685 124.865 70.4317 123.97 69.6931C123.075 68.9545 121.456 68.4645 119.112 68.2231C117.763 68.1521 116.861 67.9816 116.407 67.7117C115.952 67.4419 115.775 67.0513 115.874 66.54C116.002 65.915 116.286 65.496 116.726 65.283C117.167 65.0699 117.799 64.9634 118.622 64.9634C119.588 64.9634 120.327 65.1835 120.838 65.6238C121.349 66.05 121.534 66.7459 121.392 67.7117L121.264 68.4148H125.994L126.164 67.4774C126.477 65.9576 126.058 64.6935 124.907 63.6851C123.771 62.6624 121.96 62.1511 119.475 62.1511C117.017 62.1511 115.036 62.5417 113.53 63.3229C112.025 64.1041 111.109 65.3682 110.782 67.1152C110.498 68.4361 110.669 69.5156 111.293 70.3536C111.933 71.1774 113.332 71.71 115.491 71.9515C116.868 72.0509 117.855 72.2568 118.452 72.5693C119.048 72.8676 119.283 73.3221 119.155 73.9328C119.027 74.6288 118.722 75.1046 118.239 75.3603C117.756 75.6159 117.01 75.7438 116.002 75.7438C114.965 75.7438 114.184 75.5378 113.658 75.1259C113.133 74.6998 112.948 73.9612 113.104 72.9102L113.232 72.1219L108.481 72.058Z" fill="#6E61FF"/>
</svg>
