<svg width="150" height="22" viewBox="0 0 150 22" fill="none" xmlns="http://www.w3.org/2000/svg">
<path d="M16.1506 8.13725C16.1506 9.67699 15.8012 10.9562 15.1024 11.9748C14.4155 12.9815 13.4679 13.7336 12.2598 14.2311C11.0517 14.7167 9.6778 14.9595 8.13806 14.9595C7.93671 14.9595 7.60508 14.9595 7.14315 14.9595C6.69308 14.9595 6.21931 14.9595 5.72186 14.9595C5.2244 14.9595 4.79801 14.9595 4.44269 14.9595C4.09921 14.9595 3.92747 14.9595 3.92747 14.9595V10.9088C4.19988 10.8851 4.59074 10.8673 5.10004 10.8555C5.62118 10.8318 6.13048 10.8199 6.62793 10.8199C7.12539 10.8081 7.46887 10.8022 7.65838 10.8022C8.45193 10.8022 9.04414 10.6541 9.435 10.358C9.82585 10.0619 10.0864 9.7066 10.2167 9.29205C10.347 8.86566 10.4121 8.46888 10.4121 8.10171C10.4121 7.74639 10.347 7.36145 10.2167 6.94691C10.0864 6.53236 9.82585 6.17704 9.435 5.88094C9.04414 5.58483 8.45193 5.43678 7.65838 5.43678C7.36227 5.43678 7.14908 5.43678 7.01879 5.43678C6.8885 5.42493 6.61609 5.41309 6.20154 5.40125V21C5.72778 21.0829 5.24217 21.1362 4.74471 21.1599C4.24726 21.1954 3.82087 21.2132 3.46554 21.2132C3.13391 21.2132 2.68383 21.1954 2.11531 21.1599C1.54679 21.1362 1.03749 21.0829 0.587413 21V1.59927L0.782842 1.38608C1.74222 1.36239 2.89702 1.33278 4.24726 1.29725C5.59749 1.26171 6.89443 1.24395 8.13806 1.24395C9.68965 1.24395 11.0636 1.48083 12.2598 1.9546C13.4679 2.42836 14.4155 3.17454 15.1024 4.19314C15.8012 5.1999 16.1506 6.5146 16.1506 8.13725ZM19.6392 1.42161C20.0893 1.32686 20.5986 1.26764 21.1671 1.24395C21.7356 1.22026 22.1857 1.20841 22.5173 1.20841C22.8845 1.20841 23.3168 1.22026 23.8143 1.24395C24.3117 1.26764 24.7973 1.32686 25.2711 1.42161V21C24.7973 21.0829 24.3117 21.1362 23.8143 21.1599C23.3168 21.1954 22.8845 21.2132 22.5173 21.2132C22.1857 21.2132 21.7356 21.1954 21.1671 21.1599C20.5986 21.1362 20.0893 21.0829 19.6392 21V1.42161ZM45.9924 8.13725C45.9924 9.67699 45.643 10.9562 44.9441 11.9748C44.2572 12.9815 43.3097 13.7336 42.1016 14.2311C40.8934 14.7167 39.5195 14.9595 37.9798 14.9595C37.7784 14.9595 37.4468 14.9595 36.9849 14.9595C36.5348 14.9595 36.061 14.9595 35.5636 14.9595C35.0661 14.9595 34.6397 14.9595 34.2844 14.9595C33.9409 14.9595 33.7692 14.9595 33.7692 14.9595V10.9088C34.0416 10.8851 34.4325 10.8673 34.9418 10.8555C35.4629 10.8318 35.9722 10.8199 36.4697 10.8199C36.9671 10.8081 37.3106 10.8022 37.5001 10.8022C38.2937 10.8022 38.8859 10.6541 39.2767 10.358C39.6676 10.0619 39.9281 9.7066 40.0584 9.29205C40.1887 8.86566 40.2539 8.46888 40.2539 8.10171C40.2539 7.74639 40.1887 7.36145 40.0584 6.94691C39.9281 6.53236 39.6676 6.17704 39.2767 5.88094C38.8859 5.58483 38.2937 5.43678 37.5001 5.43678C37.204 5.43678 36.9908 5.43678 36.8605 5.43678C36.7302 5.42493 36.4578 5.41309 36.0433 5.40125V21C35.5695 21.0829 35.0839 21.1362 34.5864 21.1599C34.089 21.1954 33.6626 21.2132 33.3073 21.2132C32.9756 21.2132 32.5255 21.1954 31.957 21.1599C31.3885 21.1362 30.8792 21.0829 30.4291 21V1.59927L30.6246 1.38608C31.5839 1.36239 32.7387 1.33278 34.089 1.29725C35.4392 1.26171 36.7361 1.24395 37.9798 1.24395C39.5314 1.24395 40.9053 1.48083 42.1016 1.9546C43.3097 2.42836 44.2572 3.17454 44.9441 4.19314C45.643 5.1999 45.9924 6.5146 45.9924 8.13725ZM49.4809 1.42161C49.931 1.32686 50.4403 1.26764 51.0088 1.24395C51.5773 1.22026 52.0274 1.20841 52.359 1.20841C52.7262 1.20841 53.1585 1.22026 53.656 1.24395C54.1534 1.26764 54.639 1.32686 55.1128 1.42161V21C54.639 21.0829 54.1534 21.1362 53.656 21.1599C53.1585 21.1954 52.7262 21.2132 52.359 21.2132C52.0274 21.2132 51.5773 21.1954 51.0088 21.1599C50.4403 21.1362 49.931 21.0829 49.4809 21V1.42161ZM75.8341 8.13725C75.8341 9.67699 75.4847 10.9562 74.7859 11.9748C74.0989 12.9815 73.1514 13.7336 71.9433 14.2311C70.7352 14.7167 69.3612 14.9595 67.8215 14.9595C67.6202 14.9595 67.2885 14.9595 66.8266 14.9595C66.3765 14.9595 65.9028 14.9595 65.4053 14.9595C64.9078 14.9595 64.4815 14.9595 64.1261 14.9595C63.7826 14.9595 63.6109 14.9595 63.6109 14.9595V10.9088C63.8833 10.8851 64.2742 10.8673 64.7835 10.8555C65.3046 10.8318 65.8139 10.8199 66.3114 10.8199C66.8088 10.8081 67.1523 10.8022 67.3418 10.8022C68.1354 10.8022 68.7276 10.6541 69.1184 10.358C69.5093 10.0619 69.7699 9.7066 69.9002 9.29205C70.0304 8.86566 70.0956 8.46888 70.0956 8.10171C70.0956 7.74639 70.0304 7.36145 69.9002 6.94691C69.7699 6.53236 69.5093 6.17704 69.1184 5.88094C68.7276 5.58483 68.1354 5.43678 67.3418 5.43678C67.0457 5.43678 66.8325 5.43678 66.7022 5.43678C66.5719 5.42493 66.2995 5.41309 65.885 5.40125V21C65.4112 21.0829 64.9256 21.1362 64.4282 21.1599C63.9307 21.1954 63.5043 21.2132 63.149 21.2132C62.8173 21.2132 62.3673 21.1954 61.7988 21.1599C61.2302 21.1362 60.7209 21.0829 60.2709 21V1.59927L60.4663 1.38608C61.4257 1.36239 62.5805 1.33278 63.9307 1.29725C65.2809 1.26171 66.5779 1.24395 67.8215 1.24395C69.3731 1.24395 70.747 1.48083 71.9433 1.9546C73.1514 2.42836 74.0989 3.17454 74.7859 4.19314C75.4847 5.1999 75.8341 6.5146 75.8341 8.13725ZM83.551 11.2463C83.551 11.9215 83.5925 12.6203 83.6754 13.3428C83.7701 14.0534 83.9478 14.7226 84.2084 15.3503C84.4808 15.9662 84.8775 16.4637 85.3987 16.8427C85.9198 17.2217 86.6127 17.4112 87.4773 17.4112C88.342 17.4112 89.0348 17.2217 89.556 16.8427C90.0771 16.4637 90.468 15.9662 90.7286 15.3503C91.001 14.7226 91.1786 14.0534 91.2615 13.3428C91.3563 12.6203 91.4037 11.9215 91.4037 11.2463C91.4037 10.5594 91.3563 9.85465 91.2615 9.13216C91.1786 8.39782 91.001 7.7227 90.7286 7.1068C90.468 6.47906 90.0771 5.97569 89.556 5.59667C89.0348 5.20582 88.342 5.01039 87.4773 5.01039C86.6127 5.01039 85.9198 5.20582 85.3987 5.59667C84.8775 5.97569 84.4808 6.47906 84.2084 7.1068C83.9478 7.7227 83.7701 8.39782 83.6754 9.13216C83.5925 9.85465 83.551 10.5594 83.551 11.2463ZM77.8125 11.2463C77.8125 9.12623 78.1797 7.29631 78.914 5.75657C79.6484 4.20499 80.7321 3.00873 82.1652 2.16779C83.5984 1.31501 85.3632 0.888622 87.4596 0.888622C89.5915 0.888622 91.3741 1.30909 92.8072 2.15002C94.2522 2.99096 95.3359 4.18722 96.0584 5.7388C96.7809 7.27855 97.1422 9.11439 97.1422 11.2463C97.1422 13.3783 96.775 15.2141 96.0407 16.7539C95.3182 18.2818 94.2404 19.4603 92.8072 20.2894C91.3741 21.1184 89.5915 21.533 87.4596 21.533C85.3276 21.533 83.5451 21.1184 82.1119 20.2894C80.6906 19.4484 79.6187 18.2581 78.8963 16.7183C78.1738 15.1786 77.8125 13.3546 77.8125 11.2463ZM98.1088 5.96977C98.0259 5.54338 97.9666 5.1466 97.9311 4.77943C97.9074 4.40041 97.8956 4.05693 97.8956 3.74899C97.8956 3.44104 97.9074 3.07979 97.9311 2.66525C97.9666 2.23886 98.0259 1.82431 98.1088 1.42161H114.187C114.282 1.7414 114.347 2.10265 114.383 2.50535C114.418 2.89621 114.436 3.22192 114.436 3.48249C114.436 4.27605 114.223 4.89195 113.796 5.33018C113.37 5.75657 112.659 5.96977 111.664 5.96977H110.936C110.687 5.96977 110.356 5.96384 109.941 5.952C109.538 5.94016 109.225 5.93423 108.999 5.93423H103.439C103.19 5.93423 102.846 5.94016 102.408 5.952C101.982 5.96384 101.644 5.96977 101.396 5.96977H98.1088ZM103.403 8.08395C103.403 7.70493 103.409 7.35553 103.421 7.03574C103.433 6.7041 103.439 6.33693 103.439 5.93423V3.73122H108.999V5.93423C108.999 6.33693 109.005 6.7041 109.017 7.03574C109.029 7.35553 109.035 7.70493 109.035 8.08395V21C108.703 21.0711 108.247 21.1244 107.667 21.1599C107.098 21.1954 106.613 21.2132 106.21 21.2132C105.843 21.2132 105.381 21.1954 104.824 21.1599C104.268 21.1244 103.794 21.0711 103.403 21V8.08395ZM116.222 5.96977C116.139 5.54338 116.08 5.1466 116.044 4.77943C116.021 4.40041 116.009 4.05693 116.009 3.74899C116.009 3.44104 116.021 3.07979 116.044 2.66525C116.08 2.23886 116.139 1.82431 116.222 1.42161H132.3C132.395 1.7414 132.46 2.10265 132.496 2.50535C132.531 2.89621 132.549 3.22192 132.549 3.48249C132.549 4.27605 132.336 4.89195 131.91 5.33018C131.483 5.75657 130.773 5.96977 129.778 5.96977H129.049C128.8 5.96977 128.469 5.96384 128.054 5.952C127.652 5.94016 127.338 5.93423 127.113 5.93423H121.552C121.303 5.93423 120.96 5.94016 120.521 5.952C120.095 5.96384 119.757 5.96977 119.509 5.96977H116.222ZM121.516 8.08395C121.516 7.70493 121.522 7.35553 121.534 7.03574C121.546 6.7041 121.552 6.33693 121.552 5.93423V3.73122H127.113V5.93423C127.113 6.33693 127.119 6.7041 127.13 7.03574C127.142 7.35553 127.148 7.70493 127.148 8.08395V21C126.817 21.0711 126.361 21.1244 125.78 21.1599C125.212 21.1954 124.726 21.2132 124.323 21.2132C123.956 21.2132 123.494 21.1954 122.938 21.1599C122.381 21.1244 121.907 21.0711 121.516 21V8.08395ZM134.945 1.61704L135.14 1.42161H140.452V5.8987C140.452 6.26587 140.458 6.57974 140.47 6.84031C140.482 7.10088 140.488 7.42067 140.488 7.79969V14.462C140.488 14.9003 140.482 15.2615 140.47 15.5458C140.458 15.8182 140.452 16.1735 140.452 16.6117V21.0711H138.196C137.189 21.0711 136.395 20.7868 135.815 20.2183C135.235 19.6379 134.945 18.8621 134.945 17.8909V1.61704ZM147.257 8.95449C147.387 9.27429 147.47 9.64145 147.505 10.056C147.541 10.4587 147.559 10.8022 147.559 11.0864C147.559 11.4181 147.541 11.7912 147.505 12.2057C147.47 12.6084 147.387 12.9756 147.257 13.3072H142.708C142.436 13.3072 142.033 13.3072 141.5 13.3072C140.967 13.3072 140.422 13.3072 139.866 13.3072C139.321 13.2954 138.877 13.2835 138.533 13.2717V9.02556C138.877 9.01371 139.321 9.00187 139.866 8.99003C140.422 8.97818 140.967 8.97226 141.5 8.97226C142.033 8.96042 142.436 8.95449 142.708 8.95449H147.257ZM149.193 1.42161C149.276 1.82431 149.323 2.20925 149.335 2.57641C149.347 2.94358 149.353 3.29299 149.353 3.62462C149.353 3.94442 149.317 4.30566 149.246 4.70836C149.187 5.11106 149.081 5.51969 148.927 5.93423H142.708C142.436 5.93423 142.033 5.93423 141.5 5.93423C140.967 5.92239 140.422 5.91055 139.866 5.8987C139.321 5.88686 138.877 5.87501 138.533 5.86317V1.42161H149.193ZM149.85 16.5407C149.85 18.2344 149.584 19.4129 149.051 20.0762C148.53 20.7394 147.642 21.0711 146.386 21.0711H138.604V16.7539C139.303 16.7302 139.866 16.7006 140.292 16.665C140.719 16.6295 141.121 16.5999 141.5 16.5762C141.891 16.5525 142.359 16.5407 142.904 16.5407H149.85Z" fill="#6E61FF"/>
</svg>
