<svg width="48" height="44" viewBox="0 0 48 44" fill="none" xmlns="http://www.w3.org/2000/svg">
<path fill-rule="evenodd" clip-rule="evenodd" d="M26.1306 5.6617C25.6852 4.95647 25.611 4.06565 25.9822 2.95213C26.3533 1.8386 26.9101 1.09626 27.7267 0.762199C28.5433 0.428143 29.5083 0.428143 30.6218 0.799317C31.624 1.13337 32.3664 1.6159 32.7375 2.2469C33.1458 2.87789 33.1829 3.62024 32.9231 4.47394C32.7004 5.10494 32.4035 5.55035 31.9581 5.81017C31.5498 6.10711 31.0301 6.10711 30.3991 5.92152L29.9537 5.77305C29.5083 5.95864 29.0258 5.99576 28.3948 5.77305C28.0236 5.6617 27.7267 5.439 27.5411 5.17917C27.3926 4.95647 27.3555 4.62241 27.4669 4.25124C27.7267 3.47177 28.3206 3.24907 29.2856 3.58312L30.3991 3.9543L30.4734 3.73159C30.5476 3.47177 30.5476 3.28618 30.4363 3.13771C30.3249 2.98925 30.1022 2.84078 29.731 2.72942C29.3598 2.61807 28.9144 2.54384 28.5061 2.54384L28.6917 1.98707C28.8773 1.98707 29.1 1.98707 29.3598 2.02419C29.6197 2.06131 29.8795 2.13554 30.1393 2.20978C30.6961 2.39537 31.0301 2.61807 31.2157 2.91501C31.4013 3.21195 31.4013 3.62024 31.2157 4.10277L30.8074 5.36476C31.0672 5.439 31.29 5.40188 31.4755 5.25341C31.6611 5.10494 31.8467 4.77088 31.9952 4.32547C32.4035 3.02636 31.8838 2.13554 30.362 1.6159C29.5083 1.31896 28.766 1.28184 28.2092 1.57878C27.6153 1.8386 27.207 2.43248 26.9101 3.28618C26.3905 4.88223 26.9843 5.95864 28.6546 6.47828C29.3598 6.70099 29.9537 6.84946 30.4363 6.84946L30.1764 7.62892C29.6568 7.59181 29.0629 7.48045 28.4319 7.25775C27.3555 6.92369 26.6132 6.36693 26.1306 5.6617ZM29.4712 5.40188C29.6568 5.36476 29.8424 5.32764 29.9908 5.21629L30.2135 4.51106L29.3227 4.177C29.0258 4.06565 28.8031 4.06565 28.6546 4.13989C28.5061 4.21412 28.3948 4.32547 28.3206 4.54818C28.2463 4.73376 28.2834 4.91935 28.3577 5.0307C28.469 5.14206 28.6175 5.25341 28.8402 5.32764C29.1 5.40188 29.2856 5.40188 29.4712 5.40188Z" fill="#6E61FF"/>
<path fill-rule="evenodd" clip-rule="evenodd" d="M16.4802 3.8801C16.7029 4.69668 17.074 5.25344 17.6679 5.55038C18.2247 5.84732 18.9299 5.88444 19.7465 5.66173C20.4888 5.47615 21.0456 5.21633 21.4168 4.91939L21.157 3.95433C20.9714 4.1028 20.7487 4.21415 20.526 4.32551C20.3033 4.43686 20.0434 4.51109 19.7836 4.58533C19.264 4.69668 18.8186 4.7338 18.5216 4.65956C18.2247 4.58533 17.9649 4.36262 17.8164 4.02857L21.2683 3.13775L21.0827 2.32117C20.8971 1.69017 20.5631 1.24476 20.0806 0.947821C19.598 0.650881 18.967 0.613764 18.2618 0.799351C17.4823 0.984938 16.9256 1.35611 16.6286 1.91287C16.3317 2.43252 16.2946 3.10063 16.4802 3.8801ZM19.8207 2.35828L19.895 2.6181L17.6679 3.21198C17.5566 2.80369 17.5566 2.46964 17.705 2.24693C17.8164 2.02423 18.1133 1.83864 18.5587 1.72729C19.2269 1.5417 19.6723 1.7644 19.8207 2.35828Z" fill="#6E61FF"/>
<path d="M14.7727 7.22073C14.4016 7.10938 14.0675 6.81244 13.8077 6.36703L12.6941 4.36269L12.1003 4.69675L11.5806 3.76881L12.1745 3.43475L11.6549 2.50682L12.657 1.46753L13.3994 2.76664L14.4758 2.17276L14.9583 3.13781L13.9561 3.69458L15.0325 5.58756C15.1439 5.81027 15.2924 5.95874 15.4408 5.99586C15.5893 6.03297 15.7749 5.99586 16.0347 5.84739C16.2203 5.73603 16.3688 5.62468 16.5172 5.47621L16.9998 6.32991C16.7771 6.58974 16.5172 6.81244 16.1461 7.03514C15.5893 7.29497 15.181 7.3692 14.7727 7.22073Z" fill="#6E61FF"/>
<path d="M11.2094 8.37131C11.5435 8.7796 11.9147 9.0023 12.323 9.03942C12.6941 9.11366 13.1024 8.96519 13.5478 8.59401C13.8819 8.29707 14.1417 8.03725 14.2902 7.74031L13.6963 6.99796C13.585 7.18355 13.4365 7.33202 13.288 7.44337C13.0653 7.62896 12.8797 7.70319 12.7313 7.70319C12.5828 7.70319 12.3972 7.59184 12.2487 7.40625L10.8754 5.73597L11.7662 4.99362L11.1352 4.1028L10.133 4.88227L9.2051 3.73163L8.38852 4.9565L9.05663 5.77309L8.53699 6.2185L9.24222 7.0722L9.76186 6.62679L11.2094 8.37131Z" fill="#6E61FF"/>
<path fill-rule="evenodd" clip-rule="evenodd" d="M6.60695 12.6027C5.93883 12.1202 5.56766 11.5634 5.45631 10.9324C5.34495 10.3014 5.56766 9.63329 6.12442 8.92805C6.64406 8.22282 7.23794 7.81453 7.83182 7.70318C8.46282 7.59183 9.09381 7.81453 9.76193 8.29706C11.1353 9.29923 11.2837 10.5241 10.2445 11.9717C9.16805 13.4193 7.98029 13.642 6.60695 12.6027ZM9.57634 10.3385C9.53922 10.0787 9.2794 9.78176 8.90823 9.48482C8.49993 9.18788 8.16588 9.03941 7.90605 9.07652C7.60912 9.11364 7.34929 9.29923 7.08947 9.6704C6.82965 10.0416 6.7183 10.3385 6.75541 10.6355C6.79253 10.8953 7.05235 11.1922 7.42353 11.4892C7.83182 11.7861 8.16588 11.9346 8.4257 11.8974C8.72264 11.8603 8.98246 11.6747 9.24228 11.3036C9.53922 10.9324 9.65057 10.5983 9.57634 10.3385Z" fill="#6E61FF"/>
<path fill-rule="evenodd" clip-rule="evenodd" d="M2.59819 16.5372L2.22702 17.6879L9.05663 19.8407L9.46492 18.5044L7.0894 17.7621C7.46058 17.4651 7.7204 17.0569 7.86887 16.5372C8.09157 15.832 8.05446 15.2381 7.75752 14.7185C7.46058 14.1988 6.8667 13.7905 6.05012 13.5307C5.23353 13.2709 4.56542 13.2338 4.08289 13.4936C3.60037 13.7163 3.22919 14.1988 3.00649 14.904C2.89513 15.2381 2.85802 15.4979 2.85802 15.7949C2.85802 16.0918 2.93225 16.3516 3.0436 16.6114L2.59819 16.5372ZM5.64182 14.8669C6.16147 15.0525 6.49552 15.2381 6.68111 15.535C6.8667 15.7949 6.90382 16.166 6.82958 16.5372C6.75535 16.7599 6.68111 16.9084 6.56976 17.0569C6.45841 17.2053 6.30994 17.3167 6.16147 17.428L4.00866 16.7599C3.78595 16.3887 3.78595 15.9805 3.8973 15.5722C4.00866 15.1639 4.19424 14.904 4.49118 14.7927C4.75101 14.6813 5.1593 14.7185 5.64182 14.8669Z" fill="#6E61FF"/>
<path d="M0 21.1026L0.0742349 19.5807L1.18776 19.6179L1.11352 21.1768L0 21.1026Z" fill="#6E61FF"/>
<path d="M3.04363 21.1397L3.00651 21.882L1.96722 21.6964L2.07858 19.6921L6.97808 19.9148L6.90384 21.3253L3.04363 21.1397Z" fill="#6E61FF"/>
<path fill-rule="evenodd" clip-rule="evenodd" d="M2.6725 27.4868L2.93232 28.6745L9.94751 27.1898L9.65057 25.8165L7.20082 26.3361C7.34929 25.9278 7.38641 25.4453 7.27506 24.8885C7.12659 24.1462 6.79253 23.6266 6.27289 23.3296C5.75324 23.0327 5.08513 22.9584 4.23143 23.144C3.37773 23.2925 2.78385 23.6266 2.48691 24.072C2.15285 24.5545 2.07862 25.1484 2.22709 25.8536C2.30132 26.1877 2.41268 26.4846 2.56115 26.7073C2.70962 26.9671 2.8952 27.1527 3.11791 27.3383L2.6725 27.4868ZM4.56549 24.5174C5.08513 24.406 5.49342 24.4431 5.79036 24.5916C6.0873 24.7401 6.27289 25.037 6.38424 25.4453C6.45848 25.668 6.45848 25.8536 6.42136 26.0392C6.38424 26.1877 6.31001 26.3732 6.23577 26.5588L4.04584 27.0042C3.67467 26.7444 3.45196 26.4104 3.37773 26.0021C3.30349 25.5938 3.34061 25.2597 3.5262 25.037C3.71179 24.8143 4.04584 24.6287 4.56549 24.5174Z" fill="#6E61FF"/>
<path d="M2.67251 32.7204L2.00439 31.347L2.96945 30.9016L3.63756 32.275L2.67251 32.7204Z" fill="#6E61FF"/>
<path d="M5.30785 31.2728L5.6419 31.9409L4.67685 32.275L3.78603 30.4933L8.16589 28.3034L8.79688 29.5654L5.30785 31.2728Z" fill="#6E61FF"/>
<path fill-rule="evenodd" clip-rule="evenodd" d="M8.12874 36.9517L8.9082 37.8797L14.3273 33.1286L13.3994 32.0893L11.5064 33.7225C11.4693 33.2771 11.2466 32.8317 10.8754 32.4234C10.3929 31.8666 9.83614 31.6068 9.24226 31.5697C8.64838 31.5326 8.01738 31.8295 7.34927 32.3863C6.71827 32.943 6.3471 33.4998 6.30998 34.0566C6.23575 34.6133 6.45845 35.1701 6.94098 35.7268C7.16368 35.9867 7.42351 36.1723 7.64621 36.3207C7.86891 36.4321 8.12874 36.5434 8.42568 36.5806L8.12874 36.9517ZM8.27721 33.4998C8.6855 33.1286 9.05667 32.943 9.39073 32.943C9.72479 32.943 10.0588 33.0915 10.2815 33.3885C10.4059 33.5128 10.4782 33.6632 10.542 33.7961C10.5544 33.8218 10.5664 33.8469 10.5785 33.871C10.6527 34.0566 10.6898 34.2422 10.6898 34.4277L8.98244 35.9124C8.57415 35.9124 8.24009 35.7268 7.94315 35.3928C7.68333 35.0587 7.57197 34.7618 7.60909 34.4649C7.64621 34.1679 7.86891 33.8339 8.27721 33.4998Z" fill="#6E61FF"/>
<path fill-rule="evenodd" clip-rule="evenodd" d="M21.9736 40.7377C22.2705 39.6613 22.1963 38.7705 21.7137 38.0652C21.2312 37.36 20.4518 36.8775 19.3382 36.5063C18.7072 36.3207 18.1505 36.2465 17.5937 36.2094L17.371 36.9888C17.8164 36.9888 18.4103 37.0631 19.1526 37.2858C20.86 37.7683 21.491 38.8076 21.0456 40.4036C20.7858 41.2944 20.3775 41.8883 19.8208 42.1853C19.264 42.4822 18.5217 42.5193 17.6308 42.2595C16.109 41.8141 15.5151 40.9604 15.8863 39.6242C16.0348 39.1787 16.1833 38.8818 16.3688 38.6962C16.5544 38.5106 16.7771 38.4735 17.037 38.5477L16.6658 39.8097C16.5544 40.3294 16.5544 40.7006 16.74 40.9975C16.9256 41.2944 17.2597 41.5171 17.8164 41.6656C18.0762 41.7398 18.336 41.7769 18.5957 41.8141C18.8555 41.8512 19.0784 41.8512 19.264 41.8141L19.4125 41.2573C19.0042 41.2573 18.5959 41.2202 18.1876 41.1089C17.8164 40.9975 17.5937 40.8861 17.4824 40.7377C17.371 40.5892 17.371 40.4036 17.4452 40.1438L17.5195 39.9211L18.633 40.2551C19.5981 40.515 20.1919 40.2923 20.4146 39.5128C20.526 39.1416 20.4889 38.8447 20.3033 38.5849C20.1177 38.325 19.8208 38.1395 19.4496 38.0281C18.8186 37.8425 18.2989 37.8796 17.8907 38.1023L17.4452 37.991C16.8142 37.8054 16.2575 37.8425 15.8492 38.1023C15.4409 38.3622 15.144 38.8076 14.9584 39.4757C14.6986 40.3294 14.7728 41.0717 15.2182 41.7027C15.6636 42.3337 16.3688 42.7791 17.4081 43.0761C18.5588 43.4101 19.5238 43.373 20.3033 43.0018C21.1199 42.6307 21.6395 41.8512 21.9736 40.7377ZM17.8907 38.6962C18.0762 38.5849 18.2247 38.5106 18.4103 38.4735C18.5588 38.4364 18.7814 38.4735 19.0041 38.5106C19.264 38.5849 19.4125 38.6962 19.5238 38.8076C19.6352 38.9189 19.6723 39.1045 19.5981 39.2901C19.5609 39.5128 19.4496 39.6242 19.3011 39.6984C19.1526 39.7355 18.9299 39.7355 18.633 39.6613L17.7051 39.4014L17.8907 38.6962Z" fill="#6E61FF"/>
<path fill-rule="evenodd" clip-rule="evenodd" d="M39.6415 7.29488L38.8991 6.36694L33.2944 10.7839L34.1852 11.8603L36.1524 10.3014C36.1895 10.7468 36.4122 11.1922 36.7463 11.6376C37.2288 12.2315 37.7485 12.5284 38.3423 12.5656C38.9733 12.6027 39.6043 12.38 40.2724 11.8232C40.9406 11.2664 41.3117 10.7468 41.386 10.19C41.4602 9.67039 41.2375 9.11363 40.7921 8.51975C40.5694 8.25993 40.3467 8.07435 40.124 7.92588C39.9013 7.77741 39.6415 7.66605 39.3445 7.62894L39.6415 7.29488ZM39.3445 10.7468C38.9362 11.118 38.565 11.2664 38.231 11.2664C37.8969 11.2664 37.6 11.118 37.3402 10.7839C37.1917 10.5983 37.0804 10.4127 37.0432 10.2643C37.0061 10.0787 36.969 9.89308 36.969 9.70751L38.7135 8.29705C39.1218 8.37128 39.493 8.55687 39.7528 8.89093C40.0126 9.22499 40.124 9.52192 40.0497 9.81886C39.9755 10.1158 39.7528 10.4127 39.3445 10.7468Z" fill="#6E61FF"/>
<path d="M42.2397 13.0852L41.9427 12.4171L42.9449 12.1201L43.7615 13.9389L39.2703 15.9432L38.7135 14.6812L42.2397 13.0852Z" fill="#6E61FF"/>
<path d="M44.9863 11.749L45.6173 13.1223L44.6152 13.5677L43.9842 12.1944L44.9863 11.749Z" fill="#6E61FF"/>
<path fill-rule="evenodd" clip-rule="evenodd" d="M44.6894 17.0197L44.5038 15.8319L37.4144 16.9825L37.6371 18.3559L40.1239 17.9476C39.9384 18.3559 39.9012 18.8384 39.9755 19.3952C40.0868 20.1375 40.4209 20.6572 40.9034 20.9912C41.423 21.3253 42.0912 21.4366 42.9449 21.2882C43.7986 21.1397 44.3924 20.8428 44.7265 20.3974C45.0606 19.9519 45.1719 19.3952 45.0606 18.6528C44.9863 18.3188 44.9121 18.0218 44.7636 17.7991C44.6523 17.5764 44.4667 17.3537 44.244 17.1681L44.6894 17.0197ZM42.7593 19.8777C42.2396 19.9519 41.8313 19.9148 41.5344 19.7664C41.2375 19.6179 41.0519 19.3209 40.9776 18.9127C40.9405 18.69 40.9405 18.5044 40.9776 18.3188C41.0148 18.1332 41.0519 17.9847 41.1632 17.7991L43.3903 17.428C43.7614 17.6878 43.947 18.0218 44.0213 18.4301C44.0955 18.8384 44.0213 19.1725 43.8357 19.3952C43.6501 19.6179 43.2789 19.8035 42.7593 19.8777Z" fill="#6E61FF"/>
<path d="M44.2068 22.5872L45.209 22.8099L45.0234 24.8143L40.1239 24.3689L40.2353 22.9584L44.1326 23.3296L44.2068 22.5872Z" fill="#6E61FF"/>
<path d="M47.1762 23.478L47.0277 24.9999L45.9513 24.8885L46.0998 23.3667L47.1762 23.478Z" fill="#6E61FF"/>
<path fill-rule="evenodd" clip-rule="evenodd" d="M44.3924 27.9322L44.8007 26.7816L38.0825 24.4061L37.5999 25.7052L39.9755 26.5589C39.6043 26.8187 39.3445 27.227 39.1589 27.7466C38.8991 28.4519 38.9362 29.0829 39.196 29.6025C39.4558 30.1222 40.0126 30.5304 40.8292 30.8274C41.6457 31.1243 42.3139 31.1614 42.7964 30.9387C43.2789 30.716 43.6501 30.2706 43.9099 29.5654C44.0584 29.2313 44.0955 28.9344 44.0955 28.6746C44.0955 28.4147 44.0584 28.1178 43.947 27.858L44.3924 27.9322ZM41.2374 29.4912C40.7549 29.3056 40.4209 29.0829 40.2353 28.7859C40.0868 28.489 40.0497 28.1549 40.161 27.8209C40.2353 27.5982 40.3466 27.4497 40.458 27.3012C40.5693 27.1528 40.6807 27.0414 40.8663 26.93L42.982 27.6724C43.1304 28.0807 43.1676 28.4519 43.0191 28.8602C42.8706 29.2313 42.6479 29.4912 42.3881 29.6025C42.1283 29.7139 41.72 29.6767 41.2374 29.4912Z" fill="#6E61FF"/>
<path fill-rule="evenodd" clip-rule="evenodd" d="M40.2353 31.7182C40.8663 32.2378 41.2375 32.7946 41.3117 33.4256C41.386 34.0566 41.1261 34.6876 40.5694 35.3928C40.0126 36.098 39.4187 36.4692 38.7878 36.5434C38.1568 36.6177 37.5258 36.395 36.8948 35.8753C35.5585 34.7989 35.4472 33.574 36.5607 32.2007C37.6742 30.7902 38.8991 30.6418 40.2353 31.7182ZM37.1546 33.871C37.1917 34.1308 37.4144 34.4277 37.7856 34.7618C38.1568 35.0587 38.4908 35.2072 38.7878 35.2072C39.0847 35.1701 39.3445 34.9845 39.6414 34.6504C39.9384 34.3164 40.0497 33.9823 40.0126 33.7225C39.9755 33.4627 39.7528 33.1658 39.3816 32.8317C39.0105 32.5348 38.6764 32.3863 38.3795 32.3863C38.0825 32.3863 37.8227 32.5719 37.5258 32.943C37.2288 33.2771 37.1175 33.6112 37.1546 33.871Z" fill="#6E61FF"/>
<path d="M35.4471 35.7641C35.1131 35.3187 34.779 35.0959 34.3707 35.0217C33.9996 34.9846 33.5542 35.0959 33.1087 35.43C32.7376 35.6898 32.5149 35.9496 32.3293 36.2466L32.9232 37.0261C33.0345 36.8405 33.183 36.692 33.3315 36.5806C33.5542 36.4322 33.7397 36.3579 33.8882 36.3579C34.0367 36.3579 34.2223 36.4693 34.3707 36.692L35.707 38.4365L34.779 39.1417L35.3729 40.0326L36.3751 39.2902L37.2659 40.478L38.1196 39.2902L37.4886 38.4365L38.0454 38.0282L37.3773 37.1745L36.8205 37.5828L35.4471 35.7641Z" fill="#6E61FF"/>
<path d="M31.8468 36.7661C32.2179 36.9146 32.5149 37.2115 32.7747 37.6569L33.814 39.6984L34.445 39.4014L34.9275 40.3665L34.2965 40.6634L34.779 41.5914L33.7026 42.5935L33.0345 41.2944L31.921 41.8512L31.5127 40.849L32.552 40.3294L31.5498 38.3621C31.4385 38.1394 31.29 37.991 31.1415 37.9538C30.9931 37.9167 30.8075 37.9538 30.5477 38.0652C30.3621 38.1394 30.2136 38.2879 30.0651 38.4364L29.6197 37.5827C29.8424 37.3228 30.1394 37.1001 30.5105 36.9146C31.0302 36.6919 31.4385 36.6176 31.8468 36.7661Z" fill="#6E61FF"/>
<path fill-rule="evenodd" clip-rule="evenodd" d="M29.9909 40.0325C29.8053 39.2159 29.4341 38.6591 28.8773 38.3251C28.3206 38.0281 27.6154 37.9539 26.7617 38.1024C26.0564 38.2508 25.4997 38.4735 25.0914 38.7705L25.3141 39.7355C25.4625 39.6242 25.6852 39.5128 25.9451 39.4015C26.0317 39.3767 26.1183 39.3479 26.2049 39.319C26.3781 39.2613 26.5513 39.2035 26.7245 39.1788C27.2442 39.0674 27.6896 39.0674 27.9865 39.1417C28.2835 39.2159 28.5062 39.4386 28.6546 39.8098L25.1656 40.5521L25.3512 41.4058C25.4997 42.0368 25.7966 42.5193 26.2791 42.8163C26.7617 43.1132 27.3555 43.1875 28.0979 43.039C28.8773 42.8905 29.4341 42.5193 29.7682 41.9997C30.0651 41.4801 30.1765 40.8119 29.9909 40.0325ZM26.6132 41.4429L26.5389 41.1831L28.8402 40.7006C28.9516 41.1089 28.9145 41.4058 28.766 41.6285C28.6175 41.8512 28.3206 41.9997 27.8752 42.1111C27.1699 42.2595 26.7245 42.0368 26.6132 41.4429Z" fill="#6E61FF"/>
</svg>
