<svg width="21" height="30" viewBox="0 0 21 30" fill="none" xmlns="http://www.w3.org/2000/svg">
<rect x="9.23077" width="2.30769" height="2.30769" fill="#6E61FF"/>
<rect x="9.23077" y="2.30769" width="2.30769" height="2.30769" fill="#6E61FF"/>
<rect x="11.5385" y="2.30769" width="2.30769" height="2.30769" fill="#6E61FF"/>
<rect x="11.5385" y="4.61538" width="2.30769" height="2.30769" fill="#6E61FF"/>
<rect x="13.8462" y="4.61538" width="2.30769" height="2.30769" fill="#6E61FF"/>
<rect x="16.1539" y="4.61538" width="2.30769" height="2.30769" fill="#6E61FF"/>
<rect x="13.8462" y="6.92308" width="2.30769" height="2.30769" fill="#6E61FF"/>
<rect x="9.23077" y="4.61538" width="2.30769" height="2.30769" fill="#6E61FF"/>
<rect x="9.23077" y="6.92308" width="2.30769" height="2.30769" fill="#6E61FF"/>
<rect x="9.23077" y="9.23077" width="2.30769" height="2.30769" fill="#6E61FF"/>
<rect x="9.23077" y="13.8462" width="2.30769" height="2.30769" fill="#6E61FF"/>
<rect x="9.23077" y="16.1538" width="2.30769" height="2.30769" fill="#6E61FF"/>
<rect x="9.23077" y="18.4615" width="2.30769" height="2.30769" fill="#6E61FF"/>
<rect x="9.23077" y="20.7692" width="2.30769" height="2.30769" fill="#6E61FF"/>
<rect x="9.23077" y="23.0769" width="2.30769" height="2.30769" fill="#6E61FF"/>
<rect x="9.23077" y="25.3846" width="2.30769" height="2.30769" fill="#6E61FF"/>
<rect x="9.23077" y="27.6923" width="2.30769" height="2.30769" fill="#6E61FF"/>
<rect x="6.9231" y="18.4615" width="2.30769" height="2.30769" fill="#6E61FF"/>
<rect x="6.9231" y="20.7692" width="2.30769" height="2.30769" fill="#6E61FF"/>
<rect x="6.9231" y="23.0769" width="2.30769" height="2.30769" fill="#6E61FF"/>
<rect x="6.9231" y="25.3846" width="2.30769" height="2.30769" fill="#6E61FF"/>
<rect x="6.9231" y="27.6923" width="2.30769" height="2.30769" fill="#6E61FF"/>
<rect x="4.61542" y="27.6923" width="2.30769" height="2.30769" fill="#6E61FF"/>
<rect x="2.30774" y="27.6923" width="2.30769" height="2.30769" fill="#6E61FF"/>
<rect y="27.6923" width="2.30769" height="2.30769" fill="#6E61FF"/>
<rect y="25.3846" width="2.30769" height="2.30769" fill="#6E61FF"/>
<rect y="23.0769" width="2.30769" height="2.30769" fill="#6E61FF"/>
<rect x="2.30774" y="23.0769" width="2.30769" height="2.30769" fill="#6E61FF"/>
<rect x="11.5385" y="13.8462" width="2.30769" height="2.30769" fill="#6E61FF"/>
<rect x="13.8462" y="13.8462" width="2.30769" height="2.30769" fill="#6E61FF"/>
<rect x="16.1539" y="13.8462" width="2.30769" height="2.30769" fill="#6E61FF"/>
<rect x="11.5385" y="16.1538" width="2.30769" height="2.30769" fill="#6E61FF"/>
<rect x="13.8462" y="16.1538" width="2.30769" height="2.30769" fill="#6E61FF"/>
<rect x="16.1539" y="16.1538" width="2.30769" height="2.30769" fill="#6E61FF"/>
<rect x="11.5385" y="18.4615" width="2.30769" height="2.30769" fill="#6E61FF"/>
<rect x="13.8462" y="18.4615" width="2.30769" height="2.30769" fill="#6E61FF"/>
<rect x="16.1539" y="18.4615" width="2.30769" height="2.30769" fill="#6E61FF"/>
<rect x="11.5385" y="20.7692" width="2.30769" height="2.30769" fill="#6E61FF"/>
<rect x="13.8462" y="20.7692" width="2.30769" height="2.30769" fill="#6E61FF"/>
<rect x="16.1539" y="20.7692" width="2.30769" height="2.30769" fill="#6E61FF"/>
<rect x="11.5385" y="23.0769" width="2.30769" height="2.30769" fill="#6E61FF"/>
<rect x="13.8462" y="23.0769" width="2.30769" height="2.30769" fill="#6E61FF"/>
<rect x="16.1539" y="23.0769" width="2.30769" height="2.30769" fill="#6E61FF"/>
<rect x="11.5385" y="25.3846" width="2.30769" height="2.30769" fill="#6E61FF"/>
<rect x="13.8462" y="25.3846" width="2.30769" height="2.30769" fill="#6E61FF"/>
<rect x="16.1539" y="25.3846" width="2.30769" height="2.30769" fill="#6E61FF"/>
<rect x="11.5385" y="27.6923" width="2.30769" height="2.30769" fill="#6E61FF"/>
<rect x="13.8462" y="27.6923" width="2.30769" height="2.30769" fill="#6E61FF"/>
<rect x="16.1539" y="27.6923" width="2.30769" height="2.30769" fill="#6E61FF"/>
<rect x="11.5385" y="9.23077" width="2.30769" height="2.30769" fill="#6E61FF"/>
<rect x="13.8462" y="9.23077" width="2.30769" height="2.30769" fill="#6E61FF"/>
<rect x="16.1539" y="9.23077" width="2.30769" height="2.30769" fill="#6E61FF"/>
<rect x="18.4615" y="9.23077" width="2.30769" height="2.30769" fill="#6E61FF"/>
<rect x="18.4615" y="6.92308" width="2.30769" height="2.30769" fill="#6E61FF"/>
<rect x="18.4615" y="4.61538" width="2.30769" height="2.30769" fill="#6E61FF"/>
<rect x="18.4615" y="2.30769" width="2.30769" height="2.30769" fill="#6E61FF"/>
<rect x="16.1539" y="2.30769" width="2.30769" height="2.30769" fill="#6E61FF"/>
<rect x="16.1539" width="2.30769" height="2.30769" fill="#6E61FF"/>
</svg>
