<svg width="73" height="73" viewBox="0 0 73 73" fill="none" xmlns="http://www.w3.org/2000/svg">
<path d="M55.1613 39.1132C53.3582 39.1226 51.7912 39.5571 50.4791 40.1994C49.9976 39.2454 49.5162 38.3953 49.4313 37.7719C49.3369 37.0446 49.2236 36.6006 49.3369 35.7316C49.4501 34.8626 49.9599 33.6252 49.9504 33.5308C49.941 33.4363 49.8372 32.9924 48.7988 32.9829C47.7604 32.9735 46.8636 33.1813 46.7598 33.4552C46.6559 33.7292 46.4577 34.3526 46.3255 34.9949C46.1462 35.9394 44.2488 39.3115 43.1632 41.0779C42.8139 40.3883 42.5118 39.7838 42.4457 39.3021C42.3513 38.5748 42.2381 38.1308 42.3513 37.2618C42.4646 36.3928 42.9744 35.1554 42.9649 35.061C42.9555 34.9665 42.8516 34.5226 41.8133 34.5131C40.7749 34.5037 39.8781 34.7115 39.7742 34.9854C39.6704 35.2593 39.5571 35.9016 39.34 36.5251C39.1229 37.1485 36.6024 42.7781 35.9416 44.2327C35.6018 44.9789 35.3092 45.574 35.1015 45.9801C35.1015 45.9801 35.0921 46.0085 35.0637 46.0557C34.8844 46.4052 34.7805 46.5941 34.7805 46.5941C34.7805 46.5941 34.7805 46.5941 34.7805 46.6035C34.6389 46.8586 34.4879 47.0947 34.4124 47.0947C34.3557 47.0947 34.2519 46.4146 34.4313 45.489C34.8089 43.5337 35.7057 40.4922 35.6962 40.3883C35.6962 40.3316 35.8661 39.8027 35.1109 39.5288C34.3746 39.2548 34.1103 39.7082 34.0442 39.7082C33.9782 39.7082 33.931 39.8688 33.931 39.8688C33.931 39.8688 34.7522 36.4495 32.3639 36.4495C30.8724 36.4495 28.8145 38.0836 27.795 39.5571C27.1531 39.9066 25.7843 40.6528 24.3211 41.4557C23.7642 41.7674 23.1884 42.0791 22.6503 42.3719C22.6125 42.3341 22.5748 42.2869 22.537 42.2491C19.6484 39.1604 14.3054 36.9784 14.532 32.8318C14.6169 31.3205 15.1361 27.3533 24.7931 22.5361C32.7415 18.6161 39.0663 19.7024 40.1613 22.111C41.7283 25.5492 36.7724 31.9345 28.5597 32.8602C25.4256 33.2096 23.7831 32.0006 23.3677 31.5472C22.9335 31.0749 22.8674 31.0466 22.7069 31.141C22.4426 31.2827 22.6125 31.7078 22.7069 31.9534C22.9524 32.5957 23.9624 33.7291 25.671 34.2864C27.1814 34.7776 30.8535 35.0515 35.2997 33.3324C40.2746 31.4055 44.1638 26.0498 43.0216 21.5632C41.8793 17.0104 34.3274 15.5085 27.1814 18.0494C22.9335 19.5607 18.3268 21.941 15.0134 25.0392C11.077 28.723 10.4539 31.925 10.7088 33.2663C11.6245 38.0269 18.1852 41.1251 20.8095 43.4204C20.6773 43.4959 20.5546 43.5621 20.4508 43.6187C19.1386 44.2705 14.1355 46.8869 12.8894 49.6545C11.4735 52.7904 13.116 55.0385 14.2016 55.3408C17.5716 56.2759 21.0361 54.5946 22.8957 51.8175C24.7554 49.0405 24.5288 45.4323 23.6698 43.7793C23.6604 43.7604 23.6509 43.7415 23.632 43.7226C23.9719 43.5243 24.3211 43.3165 24.661 43.1181C25.3312 42.7214 25.992 42.353 26.5584 42.0508C26.2374 42.9292 26.0014 43.9777 25.8882 45.489C25.7466 47.2647 26.4734 49.5695 27.4269 50.4763C27.8517 50.873 28.352 50.8824 28.6729 50.8824C29.7868 50.8824 30.2872 49.9568 30.8441 48.8611C31.5238 47.5198 32.1374 45.9612 32.1374 45.9612C32.1374 45.9612 31.3727 50.174 33.4495 50.174C34.2047 50.174 34.9693 49.1917 35.3092 48.691C35.3092 48.7005 35.3092 48.7005 35.3092 48.7005C35.3092 48.7005 35.3281 48.6721 35.3658 48.606C35.4413 48.4832 35.4885 48.4077 35.4885 48.4077C35.4885 48.4077 35.4885 48.3982 35.4885 48.3888C35.7906 47.8598 36.4703 46.6602 37.4804 44.6672C38.7831 42.098 40.0386 38.8865 40.0386 38.8865C40.0386 38.8865 40.1518 39.6705 40.5389 40.974C40.7654 41.739 41.2374 42.5797 41.615 43.392C41.3129 43.8171 41.1242 44.0532 41.1242 44.0532C41.1242 44.0532 41.1241 44.0532 41.1336 44.0627C40.8882 44.3838 40.6238 44.7333 40.3312 45.0734C39.3022 46.3013 38.0751 47.7087 37.9051 48.1149C37.7069 48.5966 37.7541 48.9461 38.1317 49.2294C38.4055 49.4372 38.8963 49.4656 39.3966 49.4372C40.3218 49.3711 40.9731 49.1444 41.2941 49.0027C41.7944 48.8233 42.3797 48.5494 42.9272 48.1432C43.9372 47.397 44.5508 46.3296 44.4942 44.9222C44.4659 44.1477 44.211 43.3731 43.8995 42.6458C43.9939 42.5136 44.0788 42.3814 44.1732 42.2491C45.7686 39.916 47.0052 37.3563 47.0052 37.3563C47.0052 37.3563 47.1185 38.1403 47.5055 39.4438C47.6943 40.105 48.0813 40.8228 48.4212 41.5218C46.9202 42.7403 45.9951 44.1571 45.6647 45.0828C45.07 46.8019 45.5326 47.5765 46.4105 47.7559C46.807 47.8409 47.3734 47.652 47.7887 47.4725C48.3173 47.3025 48.9404 47.0097 49.5351 46.5752C50.5452 45.829 51.5175 44.79 51.4608 43.3826C51.4325 42.7403 51.2626 42.1074 51.0266 41.4935C52.301 40.9645 53.9435 40.6717 56.0392 40.9173C60.5326 41.4462 61.4199 44.2516 61.25 45.4323C61.0801 46.613 60.1361 47.2553 59.8246 47.4537C59.5131 47.652 59.4092 47.7181 59.4375 47.8598C59.4753 48.0676 59.6263 48.0582 59.8907 48.0204C60.2588 47.9543 62.2506 47.0664 62.3356 44.8939C62.4772 42.1169 59.834 39.0848 55.1613 39.1132ZM20.498 50.8069C19.0065 52.4315 16.9297 53.0455 16.0329 52.526C15.0701 51.9687 15.4476 49.5695 17.279 47.8504C18.3929 46.8019 19.8278 45.829 20.7812 45.2339C20.9983 45.1017 21.3193 44.9128 21.7063 44.6766C21.7724 44.6389 21.8101 44.62 21.8101 44.62C21.8857 44.5727 21.9612 44.5255 22.0367 44.4783C22.7069 46.9341 22.065 49.0972 20.498 50.8069ZM31.3539 43.4204C30.8347 44.6861 29.7491 47.9259 29.0883 47.7465C28.5219 47.5953 28.1726 45.1395 28.975 42.7119C29.3809 41.4935 30.24 40.0388 30.7403 39.4721C31.5521 38.5653 32.4489 38.2631 32.666 38.6314C32.9398 39.1132 31.6748 42.6269 31.3539 43.4204ZM40.3123 47.7087C40.0952 47.822 39.8875 47.8976 39.7931 47.8409C39.727 47.8031 39.8875 47.652 39.8875 47.652C39.8875 47.652 41.0109 46.443 41.4545 45.8951C41.7094 45.574 42.0115 45.1962 42.3325 44.7711C42.3325 44.8089 42.3325 44.8561 42.3325 44.8939C42.3325 46.3391 40.9354 47.312 40.3123 47.7087ZM47.2223 46.1313C47.0618 46.0179 47.0902 45.6401 47.6282 44.4594C47.8359 43.9966 48.3268 43.222 49.1669 42.4758C49.2613 42.7781 49.3274 43.0709 49.318 43.3448C49.3085 45.1678 48.0058 45.8479 47.2223 46.1313Z" fill="#494949"/>
</svg>
