<svg width="73" height="73" viewBox="0 0 73 73" fill="none" xmlns="http://www.w3.org/2000/svg">
<path d="M39.6843 34.4197C38.3536 35.5446 37.4716 37.1315 37.3706 38.9328C37.2687 40.7816 38.0107 42.5009 39.3166 43.7754C40.6464 45.0718 42.5429 45.8852 44.6622 45.8852C46.7816 45.8852 48.6743 45.0718 50.005 43.7754C51.31 42.5009 52.0539 40.7816 51.9529 38.9309C51.851 37.1316 50.969 35.5446 49.6392 34.4197C48.3333 33.3148 46.5768 32.6395 44.6622 32.6395C42.7457 32.6395 40.9893 33.3148 39.6843 34.4197Z" fill="#494949"/>
<path fill-rule="evenodd" clip-rule="evenodd" d="M26.3335 45.7252C25.9963 44.6555 25.7715 43.2858 25.7591 42.5809C25.7468 41.8789 25.9011 40.7092 25.9011 40.7092L15.3146 49.3734C13.4657 50.8669 10.9787 50.864 9.80897 49.3648C8.6564 47.8903 9.24791 45.5604 11.0777 44.1593C11.0961 44.1447 11.1169 44.1296 11.1372 44.1148C11.1422 44.1112 11.1472 44.1076 11.152 44.104L30.5494 29.2152L19.6791 29.2361L19.682 29.2294C17.8388 29.2228 16.6348 27.9807 16.9815 26.4833C17.3187 25.0136 19.0228 23.8506 20.7955 23.8486H20.8241L42.2704 23.8258L35.234 18.104L35.2388 18.0992C34.1433 17.201 34.2843 15.777 35.515 14.9159C36.7323 14.0644 38.5936 14.0615 39.7004 14.9111C39.7102 14.9175 39.7186 14.9245 39.7271 14.9316C39.7326 14.9362 39.7382 14.9409 39.7442 14.9454L56.6146 27.8988L56.6108 27.9016C58.2825 29.198 59.6884 30.7382 60.779 32.4975C61.9716 34.4121 62.746 36.5124 63.0642 38.7508C63.2271 39.8996 63.2642 41.0493 63.1756 42.1971C63.0851 43.362 62.8594 44.5231 62.5022 45.6671C61.7916 47.9312 60.5914 50.0297 58.9197 51.8833C57.2061 53.7816 55.0943 55.3123 52.653 56.4049C50.0869 57.5498 47.3064 58.1404 44.4231 58.1442C41.535 58.1489 38.7546 57.5698 36.1884 56.4335C33.7471 55.3514 31.6334 53.8273 29.9169 51.9299C28.2443 50.0839 27.0422 47.9894 26.3335 45.7252ZM44.4231 49.9868C47.7274 49.9801 50.7812 48.7199 52.9625 46.4977C54.0284 45.4118 54.8086 44.1678 55.2925 42.8391C55.7659 41.536 55.9497 40.1558 55.8297 38.7632C55.7097 37.3963 55.3067 36.1009 54.6562 34.9255C54.0199 33.7711 53.1445 32.73 52.0643 31.8498C49.9421 30.1277 47.2445 29.2009 44.4183 29.2047C41.595 29.2085 38.8955 30.1439 36.7752 31.8717C35.6931 32.7557 34.8168 33.8006 34.1805 34.9569C33.5328 36.1333 33.127 37.4335 33.0117 38.7966C32.8898 40.191 33.0736 41.5732 33.5471 42.8753C34.03 44.2002 34.813 45.4442 35.8789 46.5253C38.0602 48.7437 41.114 49.9925 44.4231 49.9868Z" fill="#494949"/>
</svg>
