<svg width="73" height="73" viewBox="0 0 73 73" fill="none" xmlns="http://www.w3.org/2000/svg">
<rect x="14.2796" y="14.2795" width="43.5602" height="43.5602" rx="8.02424" stroke="#494949" stroke-width="2.29264"/>
<path d="M22.3038 45.8106V27.1965C22.3038 27.0699 22.358 26.9975 22.4847 26.9975C22.7922 26.9975 23.0816 26.9975 23.4977 26.9794C23.9137 26.9613 24.3841 26.9613 24.8725 26.9432C25.3609 26.9252 25.8855 26.9252 26.4463 26.9071C27.007 26.889 27.5497 26.889 28.0924 26.889C29.5757 26.889 30.8058 27.0699 31.8188 27.4498C32.7269 27.7581 33.555 28.2648 34.2428 28.9331C34.8257 29.5179 35.2761 30.2212 35.5634 30.9953C35.8372 31.7492 35.978 32.5449 35.9794 33.3469C35.9794 34.9026 35.6176 36.187 34.894 37.2C34.1671 38.2116 33.1522 38.9807 31.9816 39.4069C30.7516 39.8591 29.3948 40.0219 27.9115 40.0219C27.4774 40.0219 27.1879 40.0219 27.007 40.0039C26.8261 39.9858 26.5729 39.9858 26.2292 39.9858V45.7925C26.2332 45.8223 26.2312 45.8525 26.2234 45.8815C26.2155 45.9105 26.2019 45.9376 26.1833 45.9612C26.1647 45.9848 26.1416 46.0045 26.1153 46.019C26.089 46.0335 26.0601 46.0426 26.0302 46.0457H22.5208C22.3761 46.0457 22.3038 45.9734 22.3038 45.8106ZM26.2473 30.4888V36.5668C26.5005 36.5849 26.7357 36.603 26.9528 36.603H27.9115C28.6177 36.6039 29.3196 36.494 29.9918 36.2774C30.5685 36.1078 31.0837 35.7748 31.4751 35.3187C31.855 34.8664 32.0359 34.2514 32.0359 33.4555C32.0529 32.8902 31.9086 32.3317 31.6199 31.8455C31.3182 31.3758 30.8746 31.0146 30.3536 30.8144C29.6745 30.5484 28.9479 30.4253 28.219 30.4526C27.7487 30.4526 27.3326 30.4526 26.9889 30.4707C26.7417 30.4545 26.4935 30.4606 26.2473 30.4888V30.4888Z" fill="#494949"/>
<path d="M47.2672 35.4633C46.721 35.1757 46.1361 34.9685 45.5306 34.8483C44.8656 34.6977 44.1864 34.6189 43.5046 34.6131C43.1385 34.6005 42.7726 34.6432 42.4192 34.7398C42.1939 34.7867 41.9941 34.9156 41.8585 35.1016C41.7671 35.2483 41.7171 35.4171 41.7138 35.59C41.7222 35.7621 41.7856 35.9269 41.8947 36.0603C42.0661 36.2614 42.275 36.4273 42.5097 36.5487C42.9258 36.7658 43.3599 36.9648 43.7941 37.1457C44.7714 37.4747 45.7064 37.9179 46.5798 38.4662C47.1739 38.8397 47.6651 39.3559 48.0089 39.9676C48.2996 40.5447 48.4425 41.1849 48.425 41.8308C48.4396 42.6859 48.1935 43.525 47.7195 44.2367C47.2149 44.9589 46.5109 45.5183 45.6934 45.8467C44.8071 46.2266 43.7217 46.4256 42.4192 46.4256C41.5934 46.4289 40.7693 46.3501 39.9591 46.1904C39.3211 46.0802 38.7006 45.8855 38.114 45.6115C38.0509 45.5799 37.9984 45.5305 37.9631 45.4694C37.9277 45.4084 37.911 45.3383 37.915 45.2678V42.1203C37.9134 42.0894 37.9191 42.0585 37.9317 42.0302C37.9443 42.0019 37.9633 41.977 37.9873 41.9575C38.0128 41.9426 38.0424 41.9364 38.0717 41.9396C38.101 41.9429 38.1285 41.9555 38.1501 41.9756C38.847 42.3864 39.6038 42.6854 40.3932 42.8619C41.0902 43.0433 41.8076 43.1345 42.5278 43.1333C43.2152 43.1333 43.7036 43.0428 44.0292 42.88C44.1744 42.8129 44.2975 42.7058 44.384 42.5713C44.4706 42.4367 44.5169 42.2802 44.5176 42.1203C44.5176 41.867 44.3729 41.6319 44.0835 41.3967C43.794 41.1615 43.1971 40.8902 42.3107 40.5465C41.4014 40.2261 40.5379 39.7882 39.742 39.244C39.1752 38.84 38.7055 38.3148 38.3672 37.7064C38.0785 37.1351 37.9356 36.5013 37.9511 35.8613C37.9538 35.0894 38.1664 34.3328 38.5662 33.6725C39.0257 32.9463 39.6853 32.3684 40.4656 32.0083C41.3158 31.5741 42.3831 31.3751 43.6674 31.3751C44.4181 31.3753 45.1677 31.4297 45.9105 31.5379C46.4446 31.6102 46.9674 31.75 47.4662 31.954C47.5457 31.9822 47.6108 32.0407 47.6471 32.1168C47.668 32.1874 47.6801 32.2603 47.6833 32.3339V35.2824C47.6836 35.3176 47.6755 35.3523 47.6598 35.3838C47.6441 35.4152 47.6211 35.4425 47.5928 35.4633C47.4876 35.5012 47.3725 35.5012 47.2672 35.4633Z" fill="#494949"/>
</svg>
