<svg width="73" height="73" viewBox="0 0 73 73" fill="none" xmlns="http://www.w3.org/2000/svg">
<path fill-rule="evenodd" clip-rule="evenodd" d="M43.3979 15.6476L30.4829 15.6476C28.4548 15.6476 26.5097 16.4533 25.0756 17.8874C23.6415 19.3215 22.8358 21.2666 22.8358 23.2948C22.8358 25.3229 23.6415 27.268 25.0756 28.7021C25.4759 29.1024 25.916 29.4538 26.3867 29.7523C25.916 30.0508 25.4759 30.4022 25.0756 30.8025C23.6415 32.2366 22.8358 34.1817 22.8358 36.2098C22.8358 38.2379 23.6415 40.183 25.0756 41.6171C25.4759 42.0175 25.9161 42.3688 26.3868 42.6674C25.9161 42.9659 25.4759 43.3173 25.0756 43.7177C23.6415 45.1518 22.8358 47.0968 22.8358 49.125C22.8358 51.1531 23.6415 53.0982 25.0756 54.5323C26.5097 55.9664 28.4548 56.7721 30.4829 56.7721C32.511 56.7721 34.4561 55.9664 35.8902 54.5323C37.3243 53.0982 38.13 51.1531 38.13 49.125V41.753C39.5494 43.102 41.4348 43.8569 43.3979 43.8569C45.4261 43.8569 47.3712 43.0512 48.8053 41.6171C50.2394 40.183 51.0451 38.2379 51.0451 36.2098C51.0451 34.1817 50.2394 32.2366 48.8053 30.8025C48.4049 30.4021 47.9648 30.0508 47.4941 29.7523C47.9648 29.4537 48.4049 29.1024 48.8053 28.702C50.2394 27.2679 51.0451 25.3228 51.0451 23.2947C51.0451 21.2666 50.2394 19.3215 48.8053 17.8874C47.3712 16.4533 45.4261 15.6476 43.3979 15.6476ZM38.13 36.2376C38.1373 37.6247 38.6915 38.9535 39.6729 39.9349C40.6608 40.9228 42.0008 41.4778 43.3979 41.4778C44.7951 41.4778 46.135 40.9228 47.123 39.9349C48.1109 38.9469 48.666 37.607 48.666 36.2098C48.666 34.8126 48.1109 33.4727 47.123 32.4848C46.1371 31.4988 44.8005 30.944 43.4065 30.9418L43.3869 30.9418C41.9937 30.9447 40.6582 31.4994 39.6729 32.4848C38.6915 33.4661 38.1373 34.7949 38.13 36.182V36.2376ZM38.13 28.5627L43.3979 28.5627L43.4065 28.5627C44.8005 28.5604 46.1371 28.0057 47.123 27.0197C48.1109 26.0318 48.666 24.6919 48.666 23.2947C48.666 21.8975 48.1109 20.5576 47.123 19.5696C46.135 18.5817 44.7951 18.0267 43.3979 18.0267H38.13V28.5627ZM35.7508 28.5627V18.0267H30.4829C29.0857 18.0267 27.7458 18.5818 26.7579 19.5697C25.7699 20.5577 25.2149 21.8976 25.2149 23.2948C25.2149 24.6919 25.7699 26.0319 26.7579 27.0198C27.7407 28.0027 29.072 28.5571 30.4615 28.5627C30.4686 28.5627 30.4758 28.5627 30.4829 28.5627H35.7508ZM35.7509 36.1763C35.7509 36.1875 35.7508 36.1986 35.7508 36.2098C35.7508 36.221 35.7509 36.2322 35.7509 36.2433V41.4778H30.4829C29.0857 41.4778 27.7458 40.9228 26.7579 39.9349C25.7699 38.9469 25.2149 37.607 25.2149 36.2098C25.2149 34.8126 25.7699 33.4727 26.7579 32.4848C27.7407 31.5019 29.072 30.9475 30.4615 30.9418C30.4686 30.9419 30.4758 30.9419 30.4829 30.9419H35.7509V36.1763ZM30.4829 43.857C29.0857 43.857 27.7458 44.412 26.7579 45.3999C25.7699 46.3879 25.2149 47.7278 25.2149 49.125C25.2149 50.5221 25.7699 51.8621 26.7579 52.85C27.7458 53.838 29.0857 54.393 30.4829 54.393C31.8801 54.393 33.22 53.838 34.2079 52.85C35.1959 51.8621 35.7509 50.5221 35.7509 49.125V43.857H30.4829Z" fill="#494949"/>
</svg>
