<svg width="73" height="73" viewBox="0 0 73 73" fill="none" xmlns="http://www.w3.org/2000/svg">
<path d="M25.3166 45.8106V27.1965C25.3166 27.0699 25.3709 26.9975 25.4975 26.9975C25.805 26.9975 26.0944 26.9975 26.5105 26.9794C26.9266 26.9613 27.3969 26.9613 27.8853 26.9432C28.3737 26.9252 28.8983 26.9252 29.4591 26.9071C30.0199 26.889 30.5625 26.889 31.1052 26.889C32.5886 26.889 33.8186 27.0699 34.8317 27.4498C35.7397 27.7581 36.5678 28.2648 37.2556 28.9331C37.8386 29.5179 38.2889 30.2212 38.5762 30.9953C38.85 31.7492 38.9908 32.5449 38.9922 33.3469C38.9922 34.9026 38.6304 36.187 37.9069 37.2C37.1799 38.2116 36.165 38.9807 34.9945 39.4069C33.7644 39.8591 32.4077 40.0219 30.9243 40.0219C30.4902 40.0219 30.2007 40.0219 30.0199 40.0039C29.839 39.9858 29.5857 39.9858 29.242 39.9858V45.7925C29.246 45.8223 29.2441 45.8525 29.2362 45.8815C29.2283 45.9105 29.2147 45.9376 29.1961 45.9612C29.1776 45.9848 29.1544 46.0045 29.1281 46.019C29.1018 46.0335 29.0729 46.0426 29.043 46.0457H25.5337C25.3889 46.0457 25.3166 45.9734 25.3166 45.8106ZM29.2601 30.4888V36.5668C29.5133 36.5849 29.7485 36.603 29.9656 36.603H30.9243C31.6305 36.6039 32.3325 36.494 33.0046 36.2774C33.5813 36.1078 34.0965 35.7748 34.488 35.3187C34.8678 34.8664 35.0487 34.2514 35.0487 33.4555C35.0658 32.8902 34.9214 32.3317 34.6327 31.8455C34.331 31.3758 33.8875 31.0146 33.3664 30.8144C32.6873 30.5484 31.9607 30.4253 31.2318 30.4526C30.7615 30.4526 30.3455 30.4526 30.0018 30.4707C29.7545 30.4545 29.5063 30.4606 29.2601 30.4888V30.4888Z" fill="#494949"/>
<path d="M41.5247 31.5379H44.6904C44.7761 31.54 44.859 31.5691 44.9273 31.621C44.9955 31.673 45.0455 31.7452 45.0703 31.8273C45.1255 31.9729 45.162 32.1248 45.1788 32.2796C45.215 32.4605 45.2512 32.6594 45.2693 32.8403C45.2874 33.0212 45.3054 33.2564 45.3054 33.4916C45.8486 32.8575 46.505 32.3299 47.241 31.9359C48.0819 31.4688 49.0288 31.2258 49.9906 31.2304C50.0204 31.2263 50.0507 31.2283 50.0796 31.2362C50.1086 31.2441 50.1357 31.2577 50.1594 31.2763C50.183 31.2948 50.2026 31.3179 50.2172 31.3442C50.2317 31.3705 50.2408 31.3995 50.2439 31.4294V35.0292C50.2439 35.1739 50.1534 35.2281 49.9544 35.2281C49.2982 35.2067 48.6419 35.2674 48.0008 35.409C47.4782 35.5169 46.9688 35.6807 46.4813 35.8975C46.1313 36.0553 45.8173 36.283 45.5587 36.5668V45.7924C45.5587 45.9733 45.4863 46.0457 45.3235 46.0457H41.7599C41.7265 46.0513 41.6924 46.0501 41.6595 46.0421C41.6266 46.0341 41.5957 46.0195 41.5686 45.9992C41.5416 45.9789 41.5189 45.9533 41.502 45.924C41.4852 45.8946 41.4744 45.8622 41.4705 45.8286V35.7346C41.4705 35.3005 41.4705 34.8483 41.4524 34.3779C41.4343 33.9076 41.4343 33.4373 41.4162 32.967C41.4162 32.5509 41.38 32.1529 41.3439 31.7369C41.3391 31.7155 41.3385 31.6934 41.3423 31.6718C41.3461 31.6502 41.3541 31.6296 41.3658 31.6111C41.3776 31.5926 41.3929 31.5766 41.4109 31.564C41.4288 31.5515 41.4491 31.5426 41.4705 31.5379C41.4705 31.5198 41.5067 31.5198 41.5247 31.5379V31.5379Z" fill="#494949"/>
<rect x="14.9997" y="14.2795" width="43.5602" height="43.5602" rx="8.02424" stroke="#494949" stroke-width="2.29264"/>
</svg>
