<svg width="73" height="73" viewBox="0 0 73 73" fill="none" xmlns="http://www.w3.org/2000/svg">
<rect x="14.2794" y="14.2795" width="43.5602" height="43.5602" rx="8.02424" stroke="#494949" stroke-width="2.29264"/>
<path d="M32.0782 41.3244H25.349L23.9742 45.5935C23.9588 45.671 23.915 45.7399 23.8514 45.7868C23.7878 45.8336 23.709 45.855 23.6305 45.8468H20.2296C20.0307 45.8468 19.9764 45.7382 20.0307 45.5211L25.8555 28.8246C25.9097 28.6437 25.964 28.4809 26.0364 28.2638C26.1092 27.8761 26.1455 27.4824 26.1449 27.088C26.1395 27.0427 26.1514 26.997 26.1782 26.9601C26.2051 26.9232 26.2448 26.8978 26.2896 26.889H30.9748C31.1014 26.889 31.1919 26.9432 31.2099 27.0337L37.8126 45.5754C37.8669 45.7744 37.8126 45.8648 37.6317 45.8648H33.851C33.7871 45.871 33.723 45.8544 33.6701 45.818C33.6171 45.7816 33.5787 45.7278 33.5616 45.6659L32.0782 41.3244ZM26.3981 37.7246H30.9929C30.8843 37.3447 30.7396 36.8925 30.5768 36.4221C30.414 35.9518 30.2512 35.4091 30.0884 34.8664C29.9256 34.3238 29.7447 33.763 29.5638 33.2022C29.3829 32.6414 29.2201 32.1168 29.0754 31.5922C28.9307 31.0676 28.804 30.6154 28.6774 30.1813H28.6412C28.4787 30.9697 28.2734 31.7487 28.0262 32.5148C27.7549 33.3831 27.4835 34.2876 27.1941 35.192C26.9589 36.1146 26.6695 36.9648 26.3981 37.7246Z" fill="#494949"/>
<path d="M48.5396 39.6601H42.8052C42.8736 40.2309 43.065 40.7802 43.366 41.27C43.6857 41.7576 44.1463 42.1362 44.6865 42.3554C45.4177 42.6681 46.2069 42.8222 47.002 42.8076C47.6337 42.796 48.2631 42.7295 48.8833 42.6086C49.4349 42.5364 49.9756 42.3967 50.4932 42.1926C50.5837 42.1202 50.638 42.1564 50.638 42.3373V45.105C50.6348 45.1785 50.6226 45.2514 50.6018 45.3221C50.5691 45.3728 50.5259 45.416 50.4752 45.4487C49.8966 45.7028 49.2891 45.885 48.6662 45.9914C47.82 46.1541 46.959 46.2269 46.0975 46.2084C44.7227 46.2084 43.565 45.9914 42.6243 45.5753C41.7392 45.1911 40.9579 44.6021 40.345 43.8568C39.7723 43.1599 39.3476 42.3536 39.0969 41.4871C38.5668 39.6824 38.592 37.76 39.1692 35.9698C39.4577 35.0641 39.9184 34.2226 40.5259 33.4915C41.1242 32.7687 41.8706 32.1826 42.7148 31.773C43.565 31.357 44.578 31.2123 45.7357 31.2123C46.7003 31.1899 47.6578 31.3814 48.5396 31.773C49.2807 32.0943 49.9325 32.591 50.439 33.2202C50.9198 33.838 51.2873 34.5363 51.5243 35.2824C51.7544 35.9954 51.8704 36.7402 51.868 37.4893C51.868 37.9235 51.85 38.3033 51.8319 38.647C51.8138 38.9907 51.7776 39.244 51.7595 39.4068C51.7515 39.4695 51.7218 39.5273 51.6755 39.5703C51.6292 39.6133 51.5693 39.6387 51.5062 39.642C51.3977 39.642 51.1987 39.6601 50.9093 39.6781C50.561 39.7177 50.2106 39.7358 49.8601 39.7324C49.444 39.7324 49.0099 39.6601 48.5396 39.6601ZM42.8052 37.019H46.6221C47.0924 37.019 47.4361 37.019 47.6532 37.0009C47.8019 36.9885 47.945 36.9387 48.0692 36.8562V36.6753C48.07 36.4477 48.0333 36.2216 47.9607 36.006C47.8024 35.511 47.4873 35.081 47.0631 34.7808C46.6389 34.4805 46.1285 34.3265 45.6091 34.3417C45.1181 34.3142 44.6297 34.4294 44.2028 34.6733C43.7759 34.9173 43.4287 35.2796 43.2032 35.7165C42.9921 36.1228 42.8573 36.5642 42.8052 37.019V37.019Z" fill="#494949"/>
</svg>
