<svg width="73" height="73" viewBox="0 0 73 73" fill="none" xmlns="http://www.w3.org/2000/svg">
<path d="M34.5318 42.8982H27.8025L26.4277 47.1492C26.4124 47.2267 26.3686 47.2957 26.305 47.3425C26.2414 47.3894 26.1626 47.4108 26.084 47.4025H22.6832C22.4842 47.4025 22.43 47.294 22.4842 47.0769L28.309 30.3079C28.3633 30.127 28.4176 29.9281 28.4899 29.711C28.5627 29.3233 28.5991 28.9296 28.5985 28.5352C28.5931 28.4899 28.605 28.4442 28.6318 28.4073C28.6586 28.3704 28.6984 28.345 28.7432 28.3362H33.4284C33.5731 28.3362 33.6454 28.3904 33.6635 28.4809L40.2662 47.1131C40.3205 47.312 40.2662 47.4025 40.0853 47.4025H36.3046C36.2407 47.4087 36.1766 47.3921 36.1237 47.3557C36.0707 47.3193 36.0323 47.2654 36.0152 47.2035L34.5318 42.8982ZM28.8517 39.226H33.4465C33.3379 38.8462 33.1932 38.3939 33.0304 37.9236C32.8676 37.4533 32.7048 36.9106 32.542 36.3679C32.3792 35.8252 32.1983 35.2645 32.0174 34.7037C31.8365 34.1429 31.6737 33.6183 31.529 33.0937C31.3843 32.5691 31.2576 32.1169 31.131 31.6827H31.0948C30.9323 32.4712 30.7269 33.2502 30.4798 34.0163C30.2084 34.8846 29.9371 35.789 29.6477 36.6935C29.3944 37.6161 29.1231 38.4663 28.8517 39.226V39.226Z" fill="#494949"/>
<path d="M44.2097 31.4295C43.9128 31.436 43.6175 31.3834 43.3411 31.2747C43.0647 31.166 42.8127 31.0034 42.5997 30.7964C42.1853 30.3432 41.9645 29.7459 41.9847 29.1321C41.974 28.8331 42.0265 28.5352 42.1387 28.2577C42.2509 27.9803 42.4203 27.7297 42.6359 27.5222C43.0707 27.1112 43.6476 26.8843 44.2459 26.889C44.9514 26.889 45.4941 27.1061 45.892 27.5222C46.2928 27.9608 46.5069 28.5383 46.489 29.1321C46.5 29.4378 46.4497 29.7425 46.3409 30.0284C46.2322 30.3142 46.0672 30.5754 45.8558 30.7964C45.6427 31.0135 45.3854 31.1824 45.1015 31.2916C44.8175 31.4008 44.5134 31.4478 44.2097 31.4295V31.4295ZM42.1837 47.1312V33.2023C42.1837 33.0214 42.256 32.949 42.4188 32.949H46.0006C46.1634 32.949 46.2357 33.0395 46.2357 33.2023V47.1312C46.2357 47.3302 46.1634 47.4206 46.0006 47.4206H42.455C42.417 47.4237 42.3788 47.4182 42.3432 47.4045C42.3076 47.3908 42.2755 47.3692 42.2495 47.3414C42.2234 47.3136 42.2039 47.2802 42.1925 47.2438C42.1811 47.2074 42.1781 47.1689 42.1837 47.1312V47.1312Z" fill="#494949"/>
<rect x="14.4401" y="14.2795" width="43.5602" height="43.5602" rx="8.02424" stroke="#494949" stroke-width="2.29264"/>
</svg>
