<svg width="73" height="73" viewBox="0 0 73 73" fill="none" xmlns="http://www.w3.org/2000/svg">
<rect x="15.1603" y="14.2795" width="43.5602" height="43.5602" rx="8.02424" stroke="#494949" stroke-width="2.29264"/>
<path d="M37.2375 45.958H25.7687C25.5697 45.958 25.4793 45.8495 25.4793 45.6324V27.145C25.4753 27.1152 25.4772 27.0849 25.4851 27.056C25.493 27.027 25.5066 26.9999 25.5252 26.9762C25.5438 26.9526 25.5669 26.933 25.5932 26.9185C25.6195 26.9039 25.6484 26.8948 25.6783 26.8917H29.2962C29.3188 26.8876 29.342 26.8881 29.3645 26.8932C29.3869 26.8984 29.408 26.908 29.4266 26.9215C29.4452 26.935 29.4609 26.9522 29.4727 26.9719C29.4845 26.9917 29.4921 27.0136 29.4952 27.0364V42.2859H37.8525C38.0334 42.2859 38.0877 42.3763 38.0515 42.5391L37.5269 45.6867C37.5241 45.7283 37.513 45.7688 37.4944 45.8061C37.4758 45.8434 37.4499 45.8766 37.4184 45.9038C37.3653 45.9405 37.302 45.9595 37.2375 45.958V45.958Z" fill="#494949"/>
<path d="M40.1319 31.4865H43.2975C43.3833 31.4885 43.4662 31.5176 43.5344 31.5696C43.6026 31.6216 43.6527 31.6938 43.6774 31.7759C43.7522 31.9039 43.8014 32.0452 43.8221 32.192C43.8583 32.3729 43.8945 32.5718 43.9126 32.7527C43.9307 32.9336 43.9488 33.1688 43.9488 33.404C44.4919 32.7699 45.1483 32.2423 45.8843 31.8483C46.7108 31.4003 47.6399 31.1758 48.5797 31.197C48.6094 31.193 48.6397 31.195 48.6687 31.2029C48.6977 31.2108 48.7248 31.2244 48.7484 31.2429C48.772 31.2615 48.7917 31.2846 48.8062 31.3109C48.8207 31.3372 48.8298 31.3662 48.8329 31.396V34.9958C48.8329 35.1406 48.7425 35.1948 48.5435 35.1948C47.3711 35.1246 46.199 35.3355 45.1246 35.8099C44.7582 35.9666 44.4262 36.1941 44.1478 36.4792V45.7048C44.1478 45.8857 44.0754 45.9581 43.9126 45.9581H40.3851C40.3518 45.9637 40.3176 45.9625 40.2847 45.9545C40.2518 45.9465 40.2209 45.9319 40.1939 45.9116C40.1668 45.8913 40.1441 45.8657 40.1273 45.8364C40.1104 45.807 40.0997 45.7746 40.0957 45.741V35.6471C40.0957 35.2129 40.0957 34.7607 40.0776 34.2903C40.0595 33.82 40.0595 33.3497 40.0414 32.8794C40.0234 32.4814 39.9872 32.0834 39.9329 31.6855C39.9281 31.6641 39.9276 31.642 39.9313 31.6204C39.9351 31.5988 39.9431 31.5782 39.9549 31.5597C39.9666 31.5412 39.9819 31.5252 39.9999 31.5126C40.0179 31.5001 40.0381 31.4912 40.0595 31.4865C40.0776 31.4684 40.0957 31.4684 40.1319 31.4865V31.4865Z" fill="#494949"/>
</svg>
