<svg width="322" height="196" viewBox="0 0 322 196" fill="none" xmlns="http://www.w3.org/2000/svg">
<path d="M47.3734 78L32.4782 7.3319H15.1192L0.89595 78H13.7752L16.2391 63.3288H31.6942L34.3821 78H47.3734ZM23.7427 19.7632L29.9023 53.5853H17.919L23.7427 19.7632ZM65.7027 78V3.07614H53.0474V78H65.7027ZM97.1975 80.5759C97.1975 82.9277 96.5255 83.5997 94.0617 83.5997H76.5906V93.2312H97.7575C106.269 93.2312 109.965 89.1994 109.965 82.1438V23.011H97.4215V28.3867C96.5255 24.8029 93.7257 23.011 89.4699 23.011H85.9981C78.0466 23.011 74.5748 27.0428 74.5748 34.0984V65.4567C74.5748 72.5123 78.0466 76.5441 85.9981 76.5441H89.4699C93.3897 76.5441 96.0776 74.9762 97.1975 71.8403V80.5759ZM90.3659 32.8665H93.7257C96.1896 32.8665 97.1975 33.8744 97.1975 36.5623V62.8808C97.1975 65.6807 96.1896 66.6886 93.7257 66.6886H90.3659C87.902 66.6886 87.2301 66.0167 87.2301 63.6648V35.8903C87.2301 33.5385 87.902 32.8665 90.3659 32.8665ZM143.513 23.011H130.858C122.234 23.011 118.874 27.0428 118.874 34.0984V66.9126C118.874 73.9682 122.234 78 130.858 78H143.513C152.025 78 155.384 73.9682 155.384 66.9126V34.0984C155.384 27.0428 152.025 23.011 143.513 23.011ZM142.953 65.4567C142.953 67.8086 142.169 68.4805 139.705 68.4805H134.554C132.09 68.4805 131.306 67.8086 131.306 65.4567V35.5543C131.306 33.2025 132.09 32.5305 134.554 32.5305H139.705C142.169 32.5305 142.953 33.2025 142.953 35.5543V65.4567Z" fill="#494949"/>
<path d="M223 72.7318C237.605 72.7318 249.445 60.9399 249.445 46.3939C249.445 31.8478 237.605 20.0559 223 20.0559C208.395 20.0559 196.556 31.8478 196.556 46.3939C196.556 51.2621 197.882 55.8217 200.194 59.734L196.64 72.9448L210.054 69.365C213.881 71.5089 218.297 72.7318 223 72.7318Z" stroke="#6E61FF" stroke-width="6.66667"/>
<path d="M24.7506 168.905C24.7506 171.257 24.0787 171.929 21.5028 171.929H19.2629C16.7991 171.929 16.1271 171.257 16.1271 168.905V164.873H3.6958V169.913C3.6958 176.968 7.2796 181 15.9031 181H24.9746C33.4862 181 37.1819 176.968 37.1819 169.913V160.169C37.1819 153.226 33.7101 149.194 25.0866 149.194H19.0389C16.5751 149.194 15.7911 148.522 15.7911 146.17V138.106C15.7911 135.755 16.5751 135.083 19.0389 135.083H21.2788C23.7427 135.083 24.4147 135.755 24.4147 138.106V142.25H36.622V137.098C36.622 130.043 33.0382 126.011 24.5266 126.011H15.6791C7.05561 126.011 3.47181 130.043 3.47181 137.098V147.178C3.47181 154.121 6.83162 158.153 15.4551 158.153H21.5028C24.0787 158.153 24.7506 158.825 24.7506 161.177V168.905ZM69.4703 126.011H56.815C48.1915 126.011 44.8316 130.043 44.8316 137.098V169.913C44.8316 176.968 48.1915 181 56.815 181H69.4703C77.9818 181 81.3416 176.968 81.3416 169.913V137.098C81.3416 130.043 77.9818 126.011 69.4703 126.011ZM68.9103 168.457C68.9103 170.809 68.1264 171.481 65.6625 171.481H60.5108C58.0469 171.481 57.263 170.809 57.263 168.457V138.554C57.263 136.202 58.0469 135.531 60.5108 135.531H65.6625C68.1264 135.531 68.9103 136.202 68.9103 138.554V168.457ZM90.4516 106.076V181H102.995V175.96C104.003 179.32 106.803 181 110.946 181H114.306C122.37 181 125.842 176.968 125.842 169.913V136.986C125.842 129.931 122.37 125.899 114.306 125.899H110.946C106.915 125.899 104.227 127.467 103.107 130.603V106.076H90.4516ZM106.579 135.755H109.939C112.402 135.755 113.074 136.426 113.074 138.778V168.121C113.074 170.473 112.402 171.145 109.939 171.145H106.579C104.227 171.145 103.107 170.137 103.107 167.449V139.562C103.107 136.762 104.227 135.755 106.579 135.755ZM147.183 181V144.826C147.183 139.45 149.534 136.762 154.238 136.762H158.942V125.787H156.926C151.55 125.787 148.191 129.035 147.071 133.067V126.011H134.527V181H147.183ZM187.458 168.457C187.458 170.809 186.786 171.481 184.323 171.481H179.171C176.707 171.481 176.035 170.921 176.035 168.457V157.145H199.89V137.098C199.89 130.043 196.306 126.011 187.794 126.011H175.923C167.411 126.011 163.716 130.043 163.716 137.098V169.913C163.716 176.968 167.411 181 175.923 181H187.57C196.194 181 199.778 176.968 199.778 169.913V164.313H187.458V168.457ZM176.035 138.442C176.035 136.09 176.707 135.419 179.171 135.419H184.547C187.01 135.419 187.682 136.09 187.682 138.442V148.97H176.035V138.442Z" fill="#494949"/>
<path d="M221.516 182H234.031L239.047 160.953C239.953 159.516 241.078 158.297 242.422 157.297C243.797 156.297 245.266 155.797 246.828 155.797C248.547 155.797 249.859 156.25 250.766 157.156C251.703 158.062 251.984 159.703 251.609 162.078L246.781 182H259.344L264.359 160.906C265.297 159.469 266.438 158.266 267.781 157.297C269.156 156.297 270.609 155.797 272.141 155.797C273.891 155.797 275.219 156.281 276.125 157.25C277.031 158.188 277.297 159.875 276.922 162.312L272.094 182H284.656L290 159.547C290.844 155.328 290.312 152.266 288.406 150.359C286.531 148.422 283.828 147.453 280.297 147.453C277.234 147.453 274.328 148.094 271.578 149.375C268.859 150.625 266.656 152.234 264.969 154.203H264.922C264.641 152.172 263.594 150.547 261.781 149.328C259.969 148.109 257.656 147.5 254.844 147.5C251.812 147.5 249.062 148.125 246.594 149.375C244.125 150.625 242.062 152.266 240.406 154.297L241.438 148.531H229.062L221.516 182ZM291.969 182H304.672L312.219 148.531H299.516L291.969 182ZM299.797 140.094L308.094 142.438L321.734 128.844L312.359 126.031L299.797 140.094Z" fill="#6E61FF"/>
</svg>
