<svg width="515" height="199" viewBox="0 0 515 199" fill="none" xmlns="http://www.w3.org/2000/svg">
<path d="M47.3734 78L32.4782 7.3319H15.1192L0.89595 78H13.7752L16.2391 63.3288H31.6942L34.3821 78H47.3734ZM23.7427 19.7632L29.9023 53.5853H17.919L23.7427 19.7632ZM65.7027 78V3.07614H53.0474V78H65.7027ZM97.1975 80.5759C97.1975 82.9277 96.5255 83.5997 94.0617 83.5997H76.5906V93.2312H97.7575C106.269 93.2312 109.965 89.1994 109.965 82.1438V23.011H97.4215V28.3867C96.5255 24.8029 93.7257 23.011 89.4699 23.011H85.9981C78.0466 23.011 74.5748 27.0428 74.5748 34.0984V65.4567C74.5748 72.5123 78.0466 76.5441 85.9981 76.5441H89.4699C93.3897 76.5441 96.0776 74.9762 97.1975 71.8403V80.5759ZM90.3659 32.8665H93.7257C96.1896 32.8665 97.1975 33.8744 97.1975 36.5623V62.8808C97.1975 65.6807 96.1896 66.6886 93.7257 66.6886H90.3659C87.902 66.6886 87.2301 66.0167 87.2301 63.6648V35.8903C87.2301 33.5385 87.902 32.8665 90.3659 32.8665ZM119.21 23.011V66.9126C119.21 73.9682 122.682 78 130.634 78H134.106C138.361 78 141.161 76.2081 142.057 72.5123V78H154.6V23.011H141.833V64.4487C141.833 67.1366 140.825 68.1445 138.361 68.1445H135.002C132.538 68.1445 131.866 67.4726 131.866 65.1207V23.011H119.21ZM176.822 78V36.5623C176.822 33.8744 177.942 32.8665 180.293 32.8665H183.653C186.117 32.8665 186.789 33.5385 186.789 35.8903V78H199.556V34.0984C199.556 27.0428 196.085 23.011 188.021 23.011H184.661C180.517 23.011 177.718 24.6909 176.71 28.0508V23.011H164.166V78H176.822ZM232.977 23.011H220.322C211.698 23.011 208.338 27.0428 208.338 34.0984V66.9126C208.338 73.9682 211.698 78 220.322 78H232.977C241.488 78 244.848 73.9682 244.848 66.9126V34.0984C244.848 27.0428 241.488 23.011 232.977 23.011ZM232.417 65.4567C232.417 67.8086 231.633 68.4805 229.169 68.4805H224.017C221.553 68.4805 220.77 67.8086 220.77 65.4567V35.5543C220.77 33.2025 221.553 32.5305 224.017 32.5305H229.169C231.633 32.5305 232.417 33.2025 232.417 35.5543V65.4567ZM273.893 65.9047C273.893 68.2565 273.221 68.9285 270.645 68.9285H268.405C265.942 68.9285 265.27 68.2565 265.27 65.9047V61.8729H252.838V66.9126C252.838 73.9682 256.422 78 265.046 78H274.117C282.629 78 286.324 73.9682 286.324 66.9126V57.1692C286.324 50.2255 282.853 46.1938 274.229 46.1938H268.181C265.718 46.1938 264.934 45.5218 264.934 43.1699V35.1064C264.934 32.7545 265.718 32.0825 268.181 32.0825H270.421C272.885 32.0825 273.557 32.7545 273.557 35.1064V39.2501H285.764V34.0984C285.764 27.0428 282.181 23.011 273.669 23.011H264.822C256.198 23.011 252.614 27.0428 252.614 34.0984V44.1779C252.614 51.1215 255.974 55.1533 264.598 55.1533H270.645C273.221 55.1533 273.893 55.8252 273.893 58.1771V65.9047ZM334.419 3.07614V27.6028C333.299 24.467 330.611 22.899 326.691 22.899H323.219C315.268 22.899 311.796 26.9308 311.796 33.9864V66.9126C311.796 73.9682 315.268 78 323.219 78H326.691C330.947 78 333.747 76.2081 334.643 72.5123V78H347.186V3.07614H334.419ZM327.587 32.7545H330.947C333.411 32.7545 334.419 33.7624 334.419 36.5623V64.4487C334.419 67.1366 333.411 68.1445 330.947 68.1445H327.587C325.123 68.1445 324.451 67.4726 324.451 65.1207V35.7783C324.451 33.4265 325.123 32.7545 327.587 32.7545ZM379.838 65.4567C379.838 67.8086 379.166 68.4805 376.703 68.4805H371.551C369.087 68.4805 368.415 67.9206 368.415 65.4567V54.1453H392.27V34.0984C392.27 27.0428 388.686 23.011 380.174 23.011H368.303C359.791 23.011 356.096 27.0428 356.096 34.0984V66.9126C356.096 73.9682 359.791 78 368.303 78H379.95C388.574 78 392.158 73.9682 392.158 66.9126V61.3129H379.838V65.4567ZM368.415 35.4424C368.415 33.0905 369.087 32.4185 371.551 32.4185H376.927C379.39 32.4185 380.062 33.0905 380.062 35.4424V45.9698H368.415V35.4424Z" fill="#494949"/>
<path d="M441.778 57.3675H440.4L439.469 58.3833L427.8 71.1135V24.5073L460.66 57.3675H441.778Z" stroke="#6E61FF" stroke-width="6.26518"/>
<path d="M77.471 171V129.562C77.471 126.874 78.591 125.866 80.9428 125.866H84.3027C86.7665 125.866 87.4385 126.538 87.4385 128.89V171H100.206V129.562C100.206 126.874 101.214 125.866 103.678 125.866H107.037C109.501 125.866 110.173 126.538 110.173 128.89V171H122.829V127.098C122.829 120.043 119.357 116.011 111.405 116.011H107.933C103.566 116.011 100.206 117.915 99.1978 121.611C97.7419 118.027 94.2701 116.011 88.6704 116.011H85.3106C81.1668 116.011 78.367 117.691 77.359 121.051V116.011H64.8157V171H77.471ZM131.523 107.052H144.85V95.9641H131.523V107.052ZM144.514 171V116.011H131.859V171H144.514ZM174.105 158.905C174.105 161.257 173.433 161.929 170.857 161.929H168.617C166.154 161.929 165.482 161.257 165.482 158.905V154.873H153.05V159.913C153.05 166.968 156.634 171 165.258 171H174.329C182.841 171 186.536 166.968 186.536 159.913V150.169C186.536 143.226 183.065 139.194 174.441 139.194H168.393C165.93 139.194 165.146 138.522 165.146 136.17V128.106C165.146 125.755 165.93 125.083 168.393 125.083H170.633C173.097 125.083 173.769 125.755 173.769 128.106V132.25H185.976V127.098C185.976 120.043 182.393 116.011 173.881 116.011H165.034C156.41 116.011 152.826 120.043 152.826 127.098V137.178C152.826 144.121 156.186 148.153 164.81 148.153H170.857C173.433 148.153 174.105 148.825 174.105 151.177V158.905Z" fill="#494949"/>
<path d="M211.609 146.406H237.297L239.031 138.531H213.391L211.609 146.406ZM213.906 159.812C213.094 164.406 213.484 167.719 215.078 169.75C216.672 171.781 219.344 172.797 223.094 172.797C225.094 172.797 226.812 172.703 228.25 172.516C229.688 172.359 230.797 172.188 231.578 172L233.219 165.062C232.625 165.281 232.031 165.438 231.438 165.531C230.844 165.594 230.188 165.625 229.469 165.625C227.781 165.625 226.609 165.031 225.953 163.844C225.328 162.625 225.25 160.172 225.719 156.484L232.891 120.953H222.109L219.484 139.094H218.969L213.906 159.812ZM236.734 172H248.5L253.234 152.734C254.672 150.422 256.438 148.531 258.531 147.062C260.625 145.594 262.609 144.859 264.484 144.859C265.391 144.859 266.203 144.938 266.922 145.094C267.641 145.219 268.25 145.375 268.75 145.562L270.625 138.297C270.344 138.172 269.828 138.062 269.078 137.969C268.328 137.844 267.531 137.781 266.688 137.781C264.281 137.781 262.062 138.359 260.031 139.516C258.031 140.672 256.328 142.203 254.922 144.109H254.969L255.953 138.531H244.281L236.734 172ZM266.453 162.297C265.703 165.672 266.234 168.234 268.047 169.984C269.859 171.703 272.781 172.562 276.812 172.562C280.25 172.562 283.219 171.984 285.719 170.828C288.25 169.672 290.109 168.438 291.297 167.125C291.234 168.031 291.266 168.906 291.391 169.75C291.516 170.594 291.719 171.344 292 172H303.25L303.391 171.344C302.984 170.281 302.781 169.047 302.781 167.641C302.781 166.234 302.922 164.672 303.203 162.953L306.906 149.172C307.781 144.953 306.969 141.953 304.469 140.172C301.969 138.391 297.953 137.5 292.422 137.5C286.734 137.5 282.156 138.328 278.688 139.984C275.219 141.641 273.172 143.969 272.547 146.969L272.172 149.688L282.531 149.734L282.906 147.062C283.156 145.594 283.922 144.625 285.203 144.156C286.516 143.656 288.25 143.406 290.406 143.406C292.438 143.406 293.875 143.812 294.719 144.625C295.562 145.406 295.828 146.688 295.516 148.469L294.766 151.844H285.625C280.062 151.844 275.672 152.766 272.453 154.609C269.234 156.453 267.234 159.016 266.453 162.297ZM277.984 161.688C278.391 159.688 279.453 158.469 281.172 158.031C282.891 157.562 285.109 157.328 287.828 157.328H293.688L292.562 160.141C292.25 162.016 291.109 163.656 289.141 165.062C287.203 166.438 285.281 167.125 283.375 167.125C281.656 167.125 280.219 166.828 279.062 166.234C277.938 165.609 277.578 164.094 277.984 161.688ZM309.766 172H321.156L321.812 167.641H321.719C322.688 169.203 324.062 170.453 325.844 171.391C327.625 172.328 329.953 172.797 332.828 172.797C337.516 172.797 341.656 171.391 345.25 168.578C348.844 165.766 351.156 162.172 352.188 157.797L353.219 151.75C354.25 147.375 353.609 143.906 351.297 141.344C349.016 138.781 345.547 137.5 340.891 137.5C337.922 137.5 335.344 138.125 333.156 139.375C331 140.625 329.25 142.172 327.906 144.016L333.203 101.453H321.812L309.766 172ZM323.641 160.797L326.453 150.391C327.172 148.797 328.25 147.469 329.688 146.406C331.125 145.344 332.797 144.812 334.703 144.812C337.484 144.812 339.469 145.438 340.656 146.688C341.844 147.906 342.172 149.672 341.641 151.984L340.562 158.078C340.094 160.328 338.938 162.172 337.094 163.609C335.281 165.016 333.078 165.719 330.484 165.719C328.391 165.719 326.781 165.281 325.656 164.406C324.562 163.531 323.891 162.328 323.641 160.797ZM355.609 162.297C354.859 165.672 355.391 168.234 357.203 169.984C359.016 171.703 361.938 172.562 365.969 172.562C369.406 172.562 372.375 171.984 374.875 170.828C377.406 169.672 379.266 168.438 380.453 167.125C380.391 168.031 380.422 168.906 380.547 169.75C380.672 170.594 380.875 171.344 381.156 172H392.406L392.547 171.344C392.141 170.281 391.938 169.047 391.938 167.641C391.938 166.234 392.078 164.672 392.359 162.953L396.062 149.172C396.938 144.953 396.125 141.953 393.625 140.172C391.125 138.391 387.109 137.5 381.578 137.5C375.891 137.5 371.312 138.328 367.844 139.984C364.375 141.641 362.328 143.969 361.703 146.969L361.328 149.688L371.688 149.734L372.062 147.062C372.312 145.594 373.078 144.625 374.359 144.156C375.672 143.656 377.406 143.406 379.562 143.406C381.594 143.406 383.031 143.812 383.875 144.625C384.719 145.406 384.984 146.688 384.672 148.469L383.922 151.844H374.781C369.219 151.844 364.828 152.766 361.609 154.609C358.391 156.453 356.391 159.016 355.609 162.297ZM367.141 161.688C367.547 159.688 368.609 158.469 370.328 158.031C372.047 157.562 374.266 157.328 376.984 157.328H382.844L381.719 160.141C381.406 162.016 380.266 163.656 378.297 165.062C376.359 166.438 374.438 167.125 372.531 167.125C370.812 167.125 369.375 166.828 368.219 166.234C367.094 165.609 366.734 164.094 367.141 161.688ZM385.234 197.828C385.828 197.984 386.812 198.156 388.188 198.344C389.531 198.562 390.938 198.672 392.406 198.672C397.031 198.672 400.984 197.219 404.266 194.312C407.578 191.406 409.781 186.922 410.875 180.859L418.844 138.531H407.219L399.391 179.781C398.797 183.812 397.922 186.609 396.766 188.172C395.609 189.766 394.109 190.562 392.266 190.562C390.922 190.562 389.828 190.484 388.984 190.328C388.141 190.172 387.453 190.016 386.922 189.859L385.234 197.828ZM409.516 121.188C409.172 122.844 409.391 124.281 410.172 125.5C410.984 126.688 412.391 127.281 414.391 127.281C416.391 127.281 418.047 126.688 419.359 125.5C420.703 124.281 421.562 122.828 421.938 121.141C422.281 119.422 422.047 118 421.234 116.875C420.422 115.75 419.016 115.188 417.016 115.188C415.016 115.188 413.359 115.766 412.047 116.922C410.734 118.078 409.891 119.5 409.516 121.188ZM421.375 158.078C420.312 162.703 421.297 166.344 424.328 169C427.359 171.625 431.922 172.938 438.016 172.938C444.172 172.938 449.375 171.625 453.625 169C457.906 166.344 460.578 162.703 461.641 158.078L462.719 152.078C463.75 147.578 462.75 144 459.719 141.344C456.719 138.688 452.141 137.359 445.984 137.359C439.891 137.359 434.703 138.688 430.422 141.344C426.141 144 423.484 147.578 422.453 152.078L421.375 158.078ZM434.031 151.656C434.531 149.031 435.656 147.234 437.406 146.266C439.156 145.297 441.422 144.812 444.203 144.812C447.016 144.812 449.016 145.297 450.203 146.266C451.422 147.234 451.781 149.031 451.281 151.656L450.016 158.734C449.516 161.578 448.375 163.453 446.594 164.359C444.844 165.234 442.578 165.672 439.797 165.672C437.016 165.672 435.031 165.234 433.844 164.359C432.656 163.453 432.297 161.578 432.766 158.734L434.031 151.656ZM465.438 159.156L465.156 160.891C464.531 164.797 465.5 167.781 468.062 169.844C470.625 171.906 474.719 172.938 480.344 172.938C486.094 172.938 490.672 172.016 494.078 170.172C497.484 168.297 499.562 165.234 500.312 160.984C501 158.047 500.359 155.781 498.391 154.188C496.422 152.594 492.953 151.516 487.984 150.953C484.984 150.766 482.984 150.359 481.984 149.734C481.016 149.078 480.641 148.125 480.859 146.875C481.141 145.375 481.797 144.359 482.828 143.828C483.891 143.297 485.375 143.031 487.281 143.031C489.5 143.031 491.188 143.547 492.344 144.578C493.5 145.578 493.922 147.188 493.609 149.406L493.328 151H502.891L503.266 148.938C503.953 145.625 503.078 142.875 500.641 140.688C498.203 138.469 494.344 137.359 489.062 137.359C483.844 137.359 479.625 138.203 476.406 139.891C473.219 141.578 471.266 144.297 470.547 148.047C469.922 150.891 470.281 153.203 471.625 154.984C472.969 156.766 475.953 157.938 480.578 158.5C483.672 158.781 485.875 159.281 487.188 160C488.531 160.719 489.062 161.812 488.781 163.281C488.469 164.938 487.734 166.078 486.578 166.703C485.453 167.328 483.734 167.641 481.422 167.641C479.016 167.641 477.219 167.156 476.031 166.188C474.844 165.219 474.422 163.516 474.766 161.078L475.047 159.25L465.438 159.156Z" fill="#6E61FF"/>
</svg>
