<svg width="417" height="189" viewBox="0 0 417 189" fill="none" xmlns="http://www.w3.org/2000/svg">
<path d="M16.7991 76H5.3757V5.3319H19.4869L31.3583 47.3296L43.2296 5.3319H57.3408V76H46.0295V26.3867L36.622 60.6568H26.2066L16.7991 26.4987V76ZM67.2575 12.0515V0.964149H80.5848V12.0515H67.2575ZM80.2488 76H67.5935V21.011H80.2488V76Z" fill="#494949"/>
<path d="M104.516 82H117.031L119.047 73.0938L151.438 48.5312H137.047L122.141 59.9219L129.078 11.4062H116.562L104.516 82ZM131.469 82H146.609L133.391 56.3594L123.078 65.2188L131.469 82ZM150.922 82H163.672L171.219 48.5312H158.469L150.922 82ZM160.859 30.25C160.484 32.0312 160.719 33.5625 161.562 34.8438C162.438 36.125 163.953 36.7656 166.109 36.7656C168.266 36.7656 170.047 36.125 171.453 34.8438C172.891 33.5625 173.812 32.0156 174.219 30.2031C174.562 28.3594 174.297 26.8437 173.422 25.6562C172.578 24.4375 171.078 23.8281 168.922 23.8281C166.766 23.8281 164.969 24.4531 163.531 25.7031C162.125 26.9219 161.234 28.4375 160.859 30.25ZM174.547 57.0625H200.984L202.859 48.5312H176.422L174.547 57.0625ZM176.844 69.625C176.062 74.25 176.484 77.6094 178.109 79.7031C179.766 81.7656 182.547 82.7969 186.453 82.7969C188.578 82.7969 190.391 82.7031 191.891 82.5156C193.422 82.3281 194.594 82.1406 195.406 81.9531L197.141 74.4062C196.547 74.625 195.953 74.7812 195.359 74.875C194.766 74.9375 194.109 74.9688 193.391 74.9688C191.734 74.9688 190.578 74.375 189.922 73.1875C189.297 72 189.219 69.5938 189.688 65.9688L196.719 31.1406H185.047L182.516 49.1406L181.906 49.1875L176.844 69.625Z" fill="#6E61FF"/>
<path d="M250.655 1.07614H263.422V76H250.879V70.5123C249.983 74.1708 247.332 76 242.927 76H239.455C231.84 76 228.032 72.3042 228.032 64.9126V31.9864C228.032 24.5948 231.84 20.899 239.455 20.899H242.927C246.959 20.899 249.535 22.467 250.655 25.6028V1.07614ZM243.823 66.1445H247.183C249.497 66.1445 250.655 64.9126 250.655 62.4487V34.5623C250.655 33.1437 250.393 32.1731 249.871 31.6505C249.348 31.0532 248.452 30.7545 247.183 30.7545H243.823C242.628 30.7545 241.807 30.9785 241.359 31.4265C240.911 31.7998 240.687 32.5837 240.687 33.7783V63.1207C240.687 64.3153 240.911 65.1366 241.359 65.5846C241.807 65.9579 242.628 66.1445 243.823 66.1445ZM284.539 21.011H296.41C304.474 21.011 308.505 24.7068 308.505 32.0984V52.1453H284.651V63.4567C284.651 64.6513 284.837 65.4726 285.211 65.9206C285.659 66.2939 286.517 66.4805 287.787 66.4805H292.938C294.133 66.4805 294.954 66.2939 295.402 65.9206C295.85 65.4726 296.074 64.6513 296.074 63.4567V59.3129H308.393V64.9126C308.393 72.3042 304.324 76 296.186 76H284.539C276.401 76 272.331 72.3042 272.331 64.9126V32.0984C272.331 24.7068 276.401 21.011 284.539 21.011ZM284.651 43.9698H296.298V33.4424C296.298 32.2478 296.074 31.4638 295.626 31.0905C295.178 30.6425 294.357 30.4185 293.162 30.4185H287.787C286.592 30.4185 285.771 30.6425 285.323 31.0905C284.875 31.4638 284.651 32.2478 284.651 33.4424V43.9698Z" fill="#494949"/>
<path d="M349.675 77.5487C349.281 77.7062 348.953 77.212 349.252 76.9107L371.669 54.2698C371.963 54.3592 372.276 54.4073 372.599 54.4073C374.364 54.4073 375.795 52.9766 375.795 51.2117C375.795 49.4468 374.364 48.0161 372.599 48.0161C370.834 48.0161 369.404 49.4468 369.404 51.2117C369.404 51.46 369.432 51.7017 369.486 51.9337L346.782 74.4373C346.481 74.7359 345.986 74.4083 346.144 74.0144L360.349 38.5023L374.011 29.8081C374.011 29.8081 380.106 35.9034 384.012 39.809C387.867 43.6641 393.883 49.6806 393.883 49.6806L385.189 63.3429L349.675 77.5487Z" fill="#6E61FF"/>
<path d="M382.574 19.8037L404.555 41.2371L395.517 48.016L375.66 28.1591L382.574 19.8037Z" fill="#6E61FF"/>
<path d="M82.6545 94.0761H95.4218V169H82.8785V163.512C81.9826 167.171 79.332 169 74.927 169H71.4551C63.8396 169 60.0318 165.304 60.0318 157.913V124.986C60.0318 117.595 63.8396 113.899 71.4551 113.899H74.927C78.9587 113.899 81.5346 115.467 82.6545 118.603V94.0761ZM75.8229 159.145H79.1827C81.4973 159.145 82.6545 157.913 82.6545 155.449V127.562C82.6545 126.144 82.3932 125.173 81.8706 124.65C81.3479 124.053 80.452 123.755 79.1827 123.755H75.8229C74.6283 123.755 73.807 123.978 73.359 124.426C72.9111 124.8 72.6871 125.584 72.6871 126.778V156.121C72.6871 157.315 72.9111 158.137 73.359 158.585C73.807 158.958 74.6283 159.145 75.8229 159.145ZM104.555 105.052V93.9641H117.883V105.052H104.555ZM117.547 169H104.891V114.011H117.547V169ZM147.138 156.905V149.177C147.138 147.982 146.914 147.199 146.466 146.825C146.018 146.377 145.159 146.153 143.89 146.153H137.842C129.853 146.153 125.859 142.495 125.859 135.178V125.098C125.859 117.707 129.928 114.011 138.066 114.011H146.914C154.977 114.011 159.009 117.707 159.009 125.098V130.25H146.802V126.106C146.802 124.912 146.578 124.128 146.13 123.755C145.682 123.307 144.86 123.083 143.666 123.083H141.426C140.157 123.083 139.298 123.307 138.85 123.755C138.402 124.128 138.178 124.912 138.178 126.106V134.17C138.178 135.365 138.402 136.186 138.85 136.634C139.298 137.007 140.157 137.194 141.426 137.194H147.474C155.537 137.194 159.569 140.852 159.569 148.169V157.913C159.569 165.304 155.5 169 147.362 169H138.29C130.152 169 126.083 165.304 126.083 157.913V152.873H138.514V156.905C138.514 158.099 138.738 158.921 139.186 159.369C139.634 159.742 140.455 159.929 141.65 159.929H143.89C145.159 159.929 146.018 159.742 146.466 159.369C146.914 158.921 147.138 158.099 147.138 156.905ZM179.426 114.011H191.297C199.361 114.011 203.393 117.707 203.393 125.098V145.145H179.538V156.457C179.538 157.651 179.725 158.473 180.098 158.921C180.546 159.294 181.404 159.481 182.674 159.481H187.825C189.02 159.481 189.841 159.294 190.289 158.921C190.737 158.473 190.961 157.651 190.961 156.457V152.313H203.281V157.913C203.281 165.304 199.212 169 191.073 169H179.426C171.288 169 167.219 165.304 167.219 157.913V125.098C167.219 117.707 171.288 114.011 179.426 114.011ZM179.538 136.97H191.185V126.442C191.185 125.248 190.961 124.464 190.513 124.09C190.065 123.643 189.244 123.419 188.049 123.419H182.674C181.479 123.419 180.658 123.643 180.21 124.09C179.762 124.464 179.538 125.248 179.538 126.442V136.97ZM232.13 114.011H235.49C243.18 114.011 247.026 117.707 247.026 125.098V169H234.258V126.89C234.258 125.696 234.034 124.912 233.586 124.538C233.138 124.09 232.317 123.866 231.122 123.866H227.763C225.448 123.866 224.291 125.098 224.291 127.562V169H211.636V114.011H224.179V119.051C225.224 115.691 227.875 114.011 232.13 114.011ZM221.267 107.067V109.307H210.74V105.724C210.74 102.588 211.449 100.236 212.867 98.6679C214.286 97.0253 216.713 96.204 220.147 96.204H221.491C223.582 96.204 225.896 97.0253 228.435 98.6679C231.048 100.236 232.653 101.02 233.25 101.02C234.594 101.02 235.266 100.161 235.266 98.4439V96.204H245.794V100.124C245.794 103.185 245.084 105.5 243.666 107.067C242.247 108.561 239.821 109.307 236.386 109.307H235.266C233.176 109.307 230.786 108.523 228.099 106.955C225.485 105.313 223.88 104.492 223.283 104.492C221.939 104.492 221.267 105.35 221.267 107.067ZM278.43 114.011H290.974V169H278.206V164.296C277.086 167.432 274.51 169 270.479 169H267.007C259.391 169 255.583 165.304 255.583 157.913V125.098C255.583 117.707 259.391 114.011 267.007 114.011H270.479C274.884 114.011 277.534 115.803 278.43 119.387V114.011ZM271.375 159.145H274.734C277.049 159.145 278.206 157.913 278.206 155.449V127.562C278.206 125.098 277.049 123.866 274.734 123.866H271.375C270.18 123.866 269.359 124.09 268.911 124.538C268.463 124.912 268.239 125.696 268.239 126.89V156.121C268.239 157.315 268.463 158.137 268.911 158.585C269.359 158.958 270.18 159.145 271.375 159.145ZM322.282 94.0761H335.049V169H322.506V163.512C321.61 167.171 318.959 169 314.554 169H311.083C303.467 169 299.659 165.304 299.659 157.913V124.986C299.659 117.595 303.467 113.899 311.083 113.899H314.554C318.586 113.899 321.162 115.467 322.282 118.603V94.0761ZM315.45 159.145H318.81C321.125 159.145 322.282 157.913 322.282 155.449V127.562C322.282 126.144 322.021 125.173 321.498 124.65C320.975 124.053 320.079 123.755 318.81 123.755H315.45C314.256 123.755 313.434 123.978 312.986 124.426C312.538 124.8 312.314 125.584 312.314 126.778V156.121C312.314 157.315 312.538 158.137 312.986 158.585C313.434 158.958 314.256 159.145 315.45 159.145ZM355.942 114.011H368.597C376.512 114.011 380.469 117.707 380.469 125.098V157.913C380.469 165.304 376.512 169 368.597 169H355.942C347.953 169 343.959 165.304 343.959 157.913V125.098C343.959 117.707 347.953 114.011 355.942 114.011ZM368.037 156.457V126.554C368.037 125.36 367.814 124.576 367.366 124.202C366.918 123.755 366.059 123.531 364.79 123.531H359.638C358.369 123.531 357.51 123.755 357.062 124.202C356.614 124.576 356.39 125.36 356.39 126.554V156.457C356.39 157.651 356.614 158.473 357.062 158.921C357.51 159.294 358.369 159.481 359.638 159.481H364.79C366.059 159.481 366.918 159.294 367.366 158.921C367.814 158.473 368.037 157.651 368.037 156.457ZM411.978 113.787H413.993V124.762H409.29C404.586 124.762 402.234 127.45 402.234 132.826V169H389.579V114.011H402.122V121.067C402.719 118.901 403.877 117.147 405.594 115.803C407.311 114.459 409.439 113.787 411.978 113.787Z" fill="#494949"/>
</svg>
