<svg width="581" height="189" viewBox="0 0 581 189" fill="none" xmlns="http://www.w3.org/2000/svg">
<path d="M25.6466 71.2963H38.6379V80.7037C38.6379 88.0207 34.5688 91.6791 26.4305 91.6791H14.4472C6.30898 91.6791 2.23988 88.0207 2.23988 80.7037V63.0087C2.23988 55.6918 6.30898 52.0333 14.4472 52.0333H15.3432L15.9031 44.7537H26.6545L27.7745 60.2089H18.143C17.0231 60.2089 16.2391 60.4329 15.7911 60.8808C15.4178 61.3288 15.2312 62.1501 15.2312 63.3447V79.2478C15.2312 80.4424 15.4178 81.2637 15.7911 81.7117C16.2391 82.1597 17.0231 82.3836 18.143 82.3836H22.6227C23.8174 82.3836 24.6013 82.1597 24.9746 81.7117C25.4226 81.2637 25.6466 80.4424 25.6466 79.2478V71.2963ZM28.2224 21.011V36.1302H14.5592V21.011H28.2224ZM75.1373 5.3319H86.8967V76H74.8014L59.6822 29.1866V76H47.8109V5.3319H60.2422L75.1373 51.4734V5.3319ZM108.88 21.011H120.751C128.815 21.011 132.847 24.7068 132.847 32.0984V52.1453H108.992V63.4567C108.992 64.6513 109.179 65.4726 109.552 65.9206C110 66.2939 110.858 66.4805 112.128 66.4805H117.279C118.474 66.4805 119.295 66.2939 119.743 65.9206C120.191 65.4726 120.415 64.6513 120.415 63.4567V59.3129H132.735V64.9126C132.735 72.3042 128.665 76 120.527 76H108.88C100.742 76 96.6725 72.3042 96.6725 64.9126V32.0984C96.6725 24.7068 100.742 21.011 108.88 21.011ZM108.992 43.9698H120.639V33.4424C120.639 32.2478 120.415 31.4638 119.967 31.0905C119.519 30.6425 118.698 30.4185 117.503 30.4185H112.128C110.933 30.4185 110.112 30.6425 109.664 31.0905C109.216 31.4638 108.992 32.2478 108.992 33.4424V43.9698ZM175.696 39.49H163.264V33.8903C163.264 32.6957 163.04 31.9118 162.592 31.5385C162.144 31.0905 161.323 30.8665 160.128 30.8665H156.097C154.902 30.8665 154.081 31.0905 153.633 31.5385C153.185 31.9118 152.961 32.6957 152.961 33.8903V63.1207C152.961 64.3153 153.185 65.1366 153.633 65.5846C154.081 65.9579 154.902 66.1445 156.097 66.1445H160.128C161.323 66.1445 162.144 65.9579 162.592 65.5846C163.04 65.1366 163.264 64.3153 163.264 63.1207V57.409H175.696V64.9126C175.696 72.3042 171.626 76 163.488 76H152.513C144.375 76 140.305 72.3042 140.305 64.9126V32.0984C140.305 24.7068 144.375 21.011 152.513 21.011H163.488C171.626 21.011 175.696 24.7068 175.696 32.0984V39.49ZM195.281 21.011H207.153C215.216 21.011 219.248 24.7068 219.248 32.0984V52.1453H195.393V63.4567C195.393 64.6513 195.58 65.4726 195.953 65.9206C196.401 66.2939 197.26 66.4805 198.529 66.4805H203.681C204.875 66.4805 205.697 66.2939 206.145 65.9206C206.593 65.4726 206.817 64.6513 206.817 63.4567V59.3129H219.136V64.9126C219.136 72.3042 215.067 76 206.929 76H195.281C187.143 76 183.074 72.3042 183.074 64.9126V32.0984C183.074 24.7068 187.143 21.011 195.281 21.011ZM195.393 43.9698H207.041V33.4424C207.041 32.2478 206.817 31.4638 206.369 31.0905C205.921 30.6425 205.099 30.4185 203.905 30.4185H198.529C197.335 30.4185 196.513 30.6425 196.065 31.0905C195.617 31.4638 195.393 32.2478 195.393 33.4424V43.9698ZM247.426 63.9047V56.1771C247.426 54.9825 247.202 54.1985 246.754 53.8252C246.306 53.3773 245.447 53.1533 244.178 53.1533H238.13C230.141 53.1533 226.147 49.4948 226.147 42.1779V32.0984C226.147 24.7068 230.216 21.011 238.354 21.011H247.202C255.265 21.011 259.297 24.7068 259.297 32.0984V37.2501H247.09V33.1064C247.09 31.9118 246.866 31.1278 246.418 30.7545C245.97 30.3065 245.149 30.0825 243.954 30.0825H241.714C240.445 30.0825 239.586 30.3065 239.138 30.7545C238.69 31.1278 238.466 31.9118 238.466 33.1064V41.1699C238.466 42.3645 238.69 43.1858 239.138 43.6338C239.586 44.0071 240.445 44.1938 241.714 44.1938H247.762C255.825 44.1938 259.857 47.8522 259.857 55.1692V64.9126C259.857 72.3042 255.788 76 247.65 76H238.578C230.44 76 226.371 72.3042 226.371 64.9126V59.8729H238.802V63.9047C238.802 65.0993 239.026 65.9206 239.474 66.3685C239.922 66.7418 240.744 66.9285 241.938 66.9285H244.178C245.447 66.9285 246.306 66.7418 246.754 66.3685C247.202 65.9206 247.426 65.0993 247.426 63.9047ZM267.731 12.0515V0.964149H281.058V12.0515H267.731ZM280.722 76H268.067V21.011H280.722V76ZM311.769 30.8665H304.265V62.7847C304.265 63.9793 304.489 64.8006 304.937 65.2486C305.385 65.6219 306.244 65.8086 307.513 65.8086H311.657V76H303.817C295.679 76 291.61 72.3042 291.61 64.9126V30.8665H286.122V21.011H291.61V11.1556H304.265V21.011H311.769V30.8665ZM339.783 21.011H352.326V76H339.559V71.2963C338.439 74.4321 335.863 76 331.832 76H328.36C320.744 76 316.936 72.3042 316.936 64.9126V32.0984C316.936 24.7068 320.744 21.011 328.36 21.011H331.832C336.237 21.011 338.887 22.8029 339.783 26.3867V21.011ZM332.727 66.1445H336.087C338.402 66.1445 339.559 64.9126 339.559 62.4487V34.5623C339.559 32.0984 338.402 30.8665 336.087 30.8665H332.727C331.533 30.8665 330.712 31.0905 330.264 31.5385C329.816 31.9118 329.592 32.6957 329.592 33.8903V63.1207C329.592 64.3153 329.816 65.1366 330.264 65.5846C330.712 65.9579 331.533 66.1445 332.727 66.1445ZM353.446 2.08409L340.791 17.4272H330.264L339.895 2.08409H353.446ZM381.731 63.9047V56.1771C381.731 54.9825 381.507 54.1985 381.059 53.8252C380.611 53.3773 379.752 53.1533 378.483 53.1533H372.435C364.447 53.1533 360.452 49.4948 360.452 42.1779V32.0984C360.452 24.7068 364.521 21.011 372.659 21.011H381.507C389.57 21.011 393.602 24.7068 393.602 32.0984V37.2501H381.395V33.1064C381.395 31.9118 381.171 31.1278 380.723 30.7545C380.275 30.3065 379.454 30.0825 378.259 30.0825H376.019C374.75 30.0825 373.891 30.3065 373.443 30.7545C372.995 31.1278 372.771 31.9118 372.771 33.1064V41.1699C372.771 42.3645 372.995 43.1858 373.443 43.6338C373.891 44.0071 374.75 44.1938 376.019 44.1938H382.067C390.13 44.1938 394.162 47.8522 394.162 55.1692V64.9126C394.162 72.3042 390.093 76 381.955 76H372.883C364.745 76 360.676 72.3042 360.676 64.9126V59.8729H373.107V63.9047C373.107 65.0993 373.331 65.9206 373.779 66.3685C374.227 66.7418 375.049 66.9285 376.243 66.9285H378.483C379.752 66.9285 380.611 66.7418 381.059 66.3685C381.507 65.9206 381.731 65.0993 381.731 63.9047Z" fill="#494949"/>
<path d="M461 75.7311C475.605 75.7311 487.445 63.9392 487.445 49.3931C487.445 34.8471 475.605 23.0552 461 23.0552C446.395 23.0552 434.556 34.8471 434.556 49.3931C434.556 54.2614 435.882 58.8209 438.194 62.7333L434.64 75.9441L448.054 72.3643C451.881 74.5081 456.297 75.7311 461 75.7311Z" stroke="#6E61FF" stroke-width="6.66667"/>
<path d="M87.2145 114.011H99.9818V169H87.4385V163.512C86.5425 167.171 83.892 169 79.4869 169H76.0151C68.3995 169 64.5917 165.304 64.5917 157.913V114.011H77.247V156.121C77.247 157.315 77.471 158.137 77.919 158.585C78.367 158.958 79.1883 159.145 80.3829 159.145H83.7427C86.0572 159.145 87.2145 157.913 87.2145 155.449V114.011ZM130.043 114.011H133.402C141.093 114.011 144.938 117.707 144.938 125.098V169H132.17V126.89C132.17 125.696 131.946 124.912 131.498 124.538C131.05 124.09 130.229 123.866 129.035 123.866H125.675C123.36 123.866 122.203 125.098 122.203 127.562V169H109.548V114.011H122.091V119.051C123.136 115.691 125.787 114.011 130.043 114.011Z" fill="#494949"/>
<path d="M169.438 160.984C168.438 165.422 168.938 169.016 170.938 171.766C172.938 174.484 176.359 175.844 181.203 175.844C184.203 175.844 186.828 175.234 189.078 174.016C191.328 172.797 193.297 171.422 194.984 169.891L195.078 169.609L194.141 175H206.281L218.328 104.453H206.141L200.938 146.266C200 144.609 198.625 143.266 196.812 142.234C195 141.172 192.531 140.641 189.406 140.641C184.719 140.641 180.641 141.969 177.172 144.625C173.734 147.25 171.5 150.781 170.469 155.219L169.438 160.984ZM181.953 161.266L182.984 155.359C183.484 153.203 184.469 151.516 185.938 150.297C187.406 149.047 189.469 148.422 192.125 148.422C193.938 148.422 195.469 148.859 196.719 149.734C197.969 150.578 198.75 151.766 199.062 153.297L196.344 163.328C195.594 164.609 194.391 165.719 192.734 166.656C191.109 167.594 189.375 168.062 187.531 168.062C184.875 168.062 183.156 167.453 182.375 166.234C181.594 165.016 181.453 163.359 181.953 161.266ZM214.484 175H227.234L234.781 141.531H222.031L214.484 175ZM224.422 123.25C224.047 125.031 224.281 126.562 225.125 127.844C226 129.125 227.516 129.766 229.672 129.766C231.828 129.766 233.609 129.125 235.016 127.844C236.453 126.562 237.375 125.016 237.781 123.203C238.125 121.359 237.859 119.844 236.984 118.656C236.141 117.438 234.641 116.828 232.484 116.828C230.328 116.828 228.531 117.453 227.094 118.703C225.688 119.922 224.797 121.438 224.422 123.25ZM236.328 162.109L236.047 163.75C235.422 167.719 236.438 170.75 239.094 172.844C241.75 174.938 246 175.984 251.844 175.984C257.75 175.984 262.453 175.047 265.953 173.172C269.453 171.266 271.594 168.125 272.375 163.75C273.031 160.812 272.375 158.531 270.406 156.906C268.438 155.281 264.875 154.219 259.719 153.719C256.719 153.531 254.688 153.141 253.625 152.547C252.594 151.922 252.188 151.047 252.406 149.922C252.688 148.484 253.328 147.562 254.328 147.156C255.359 146.719 256.781 146.5 258.594 146.5C260.688 146.5 262.297 146.969 263.422 147.906C264.578 148.844 265 150.344 264.688 152.406L264.406 154.141H274.859L275.234 152.031C275.922 148.719 275 145.938 272.469 143.688C269.969 141.438 265.984 140.312 260.516 140.312C255.047 140.312 250.656 141.203 247.344 142.984C244.062 144.766 242.062 147.516 241.344 151.234C240.719 154.141 241.109 156.516 242.516 158.359C243.922 160.172 247 161.344 251.75 161.875C254.781 162.094 256.984 162.547 258.359 163.234C259.734 163.891 260.281 164.922 260 166.328C259.719 167.859 259.031 168.891 257.938 169.422C256.844 169.953 255.203 170.219 253.016 170.219C250.734 170.219 248.984 169.797 247.766 168.953C246.547 168.078 246.109 166.5 246.453 164.219L246.734 162.25L236.328 162.109ZM278.422 160.844C277.328 165.75 278.25 169.5 281.188 172.094C284.156 174.688 288.906 175.984 295.438 175.984C300.969 175.984 305.453 174.891 308.891 172.703C312.328 170.484 314.891 167.391 316.578 163.422L305.844 161.781C304.906 163.844 303.672 165.422 302.141 166.516C300.609 167.578 298.953 168.109 297.172 168.109C294.422 168.109 292.516 167.562 291.453 166.469C290.422 165.344 290.172 163.609 290.703 161.266L291.828 153.578C292.328 152.109 293.344 150.844 294.875 149.781C296.406 148.719 298.359 148.188 300.734 148.188C303.953 148.188 305.844 148.703 306.406 149.734C307 150.734 307.125 152.125 306.781 153.906L306.406 154.328H285.547L284.891 159.766H317.844L318.594 155.172C319.75 150.484 319 146.844 316.344 144.25C313.719 141.656 309.25 140.359 302.938 140.359C296.781 140.359 291.578 141.688 287.328 144.344C283.109 146.969 280.469 150.609 279.406 155.266L278.422 160.844ZM319.859 175H332.375L337.391 153.953C338.359 152.422 339.547 151.188 340.953 150.25C342.391 149.281 343.953 148.797 345.641 148.797C347.578 148.797 349.047 149.359 350.047 150.484C351.047 151.578 351.359 153.391 350.984 155.922L346.156 175H358.672L363.969 152.969C364.812 148.656 364.234 145.5 362.234 143.5C360.234 141.5 357.406 140.5 353.75 140.5C350.406 140.5 347.453 141.125 344.891 142.375C342.328 143.594 340.344 145.203 338.938 147.203L339.875 141.531H327.406L319.859 175ZM333.078 131.219L334.344 135.016C335.312 134.016 336.453 133.172 337.766 132.484C339.078 131.797 340.406 131.453 341.75 131.453C342.562 131.453 343.453 131.672 344.422 132.109C345.422 132.547 346.406 133.031 347.375 133.562C348.219 134.031 349.266 134.562 350.516 135.156C351.766 135.75 353.141 136.047 354.641 136.047C356.766 136.047 358.734 135.344 360.547 133.938C362.391 132.5 364.078 130.5 365.609 127.938L364.203 124.047C363.203 125.328 362.062 126.312 360.781 127C359.531 127.656 358.297 127.984 357.078 127.984C355.953 127.984 354.859 127.719 353.797 127.188C352.766 126.656 351.781 126.109 350.844 125.547C349.844 124.922 348.812 124.422 347.75 124.047C346.688 123.672 345.531 123.484 344.281 123.484C342.094 123.484 340.016 124.219 338.047 125.688C336.078 127.156 334.422 129 333.078 131.219ZM366.172 165.25C365.422 168.656 365.969 171.234 367.812 172.984C369.656 174.703 372.625 175.562 376.719 175.562C380.188 175.562 383.188 175 385.719 173.875C388.25 172.719 390.109 171.5 391.297 170.219C391.234 171.125 391.266 172 391.391 172.844C391.516 173.656 391.719 174.375 392 175H404.281L404.375 174.344C404 173.312 403.797 172.109 403.766 170.734C403.766 169.328 403.922 167.781 404.234 166.094L407.891 152.406C408.797 148.094 407.953 145.031 405.359 143.219C402.766 141.406 398.578 140.5 392.797 140.5C386.922 140.5 382.188 141.344 378.594 143.031C375 144.719 372.875 147.125 372.219 150.25L371.844 152.828L383.141 152.922L383.516 150.297C383.766 148.922 384.5 148 385.719 147.531C386.969 147.062 388.609 146.828 390.641 146.828C392.578 146.828 393.938 147.203 394.719 147.953C395.5 148.703 395.75 149.922 395.469 151.609L394.766 154.797H385.625C379.938 154.797 375.469 155.734 372.219 157.609C369 159.453 366.984 162 366.172 165.25ZM378.641 164.547C379.047 162.672 380.062 161.547 381.688 161.172C383.344 160.797 385.469 160.609 388.062 160.609H393.594L392.562 163.047C392.281 164.828 391.203 166.391 389.328 167.734C387.453 169.047 385.625 169.703 383.844 169.703C382.188 169.703 380.812 169.422 379.719 168.859C378.656 168.266 378.297 166.828 378.641 164.547ZM412.062 160.984C411.062 165.422 411.562 169.016 413.562 171.766C415.562 174.484 418.984 175.844 423.828 175.844C426.828 175.844 429.453 175.234 431.703 174.016C433.953 172.797 435.922 171.422 437.609 169.891L437.703 169.609L436.766 175H448.906L460.953 104.453H448.766L443.562 146.266C442.625 144.609 441.25 143.266 439.438 142.234C437.625 141.172 435.156 140.641 432.031 140.641C427.344 140.641 423.266 141.969 419.797 144.625C416.359 147.25 414.125 150.781 413.094 155.219L412.062 160.984ZM424.578 161.266L425.609 155.359C426.109 153.203 427.094 151.516 428.562 150.297C430.031 149.047 432.094 148.422 434.75 148.422C436.562 148.422 438.094 148.859 439.344 149.734C440.594 150.578 441.375 151.766 441.688 153.297L438.969 163.328C438.219 164.609 437.016 165.719 435.359 166.656C433.734 167.594 432 168.062 430.156 168.062C427.5 168.062 425.781 167.453 425 166.234C424.219 165.016 424.078 163.359 424.578 161.266ZM458.281 160.891C457.219 165.578 458.25 169.266 461.375 171.953C464.5 174.641 469.219 175.984 475.531 175.984C481.812 175.984 487.141 174.641 491.516 171.953C495.922 169.266 498.656 165.578 499.719 160.891L500.75 155.219C501.781 150.656 500.734 147.031 497.609 144.344C494.484 141.656 489.766 140.312 483.453 140.312C477.203 140.312 471.875 141.656 467.469 144.344C463.062 147.031 460.344 150.656 459.312 155.219L458.281 160.891ZM471.922 154.703C472.391 152.297 473.453 150.656 475.109 149.781C476.797 148.875 478.953 148.422 481.578 148.422C484.266 148.422 486.172 148.875 487.297 149.781C488.453 150.656 488.781 152.297 488.281 154.703L487.062 161.641C486.594 164.266 485.516 165.984 483.828 166.797C482.172 167.609 480.016 168.016 477.359 168.016C474.703 168.016 472.812 167.609 471.688 166.797C470.562 165.984 470.234 164.281 470.703 161.688L471.922 154.703ZM502.109 175H514.953L519.641 155.875C521.078 153.656 522.812 151.891 524.844 150.578C526.906 149.266 528.875 148.609 530.75 148.609C531.688 148.609 532.516 148.672 533.234 148.797C533.953 148.922 534.562 149.094 535.062 149.312L536.984 141.297C536.734 141.172 536.234 141.062 535.484 140.969C534.734 140.844 533.922 140.781 533.047 140.781C530.672 140.781 528.484 141.359 526.484 142.516C524.484 143.672 522.781 145.172 521.375 147.016H521.422L522.406 141.531H509.656L502.109 175ZM543.125 168.859C542.719 170.828 543.016 172.516 544.016 173.922C545.047 175.297 546.734 175.984 549.078 175.984C551.453 175.984 553.406 175.297 554.938 173.922C556.469 172.516 557.438 170.828 557.844 168.859C558.219 166.922 557.906 165.25 556.906 163.844C555.906 162.438 554.203 161.734 551.797 161.734C549.453 161.734 547.516 162.438 545.984 163.844C544.453 165.219 543.5 166.891 543.125 168.859ZM540.312 126.906H551.188L551.562 124.609C552.094 120.703 553.156 117.938 554.75 116.312C556.375 114.688 558.203 113.875 560.234 113.875C562.609 113.875 564.219 114.609 565.062 116.078C565.906 117.547 566.141 119.531 565.766 122.031C565.391 124.375 564.828 126.391 564.078 128.078C563.328 129.734 561.688 131.609 559.156 133.703C555.75 136.547 553.141 139.266 551.328 141.859C549.547 144.453 548.391 147.219 547.859 150.156L547.344 153.25H558.453L558.828 150.625C559.172 148.531 560.062 146.484 561.5 144.484C562.969 142.453 565.312 139.938 568.531 136.938C571.625 134.094 574.016 131.641 575.703 129.578C577.422 127.516 578.656 124.344 579.406 120.062C580.25 115.906 579.312 112.5 576.594 109.844C573.906 107.188 569.203 105.859 562.484 105.859C556.453 105.859 551.594 107.312 547.906 110.219C544.25 113.125 541.969 117.281 541.062 122.688L540.312 126.906Z" fill="#6E61FF"/>
</svg>
